<svg xmlns:xlink="http://www.w3.org/1999/xlink" xmlns="http://www.w3.org/2000/svg" stroke-width="0.501" stroke-linejoin="bevel" fill-rule="evenodd" version="1.1" overflow="visible" viewBox="0 0 75 75" x="0px" y="0px"><g fill="none" stroke="black" font-family="Times New Roman" font-size="16" transform="scale(1 -1)"><g transform="translate(0 -75)"><g><path d="M 45.957,3.952 C 44.646,5.772 44.393,7.94 45.281,9.752 C 46.662,12.566 51.348,15.074 59.216,17.213 C 59.228,17.212 59.239,17.207 59.251,17.207 C 59.272,17.207 59.293,17.208 59.314,17.212 C 64.536,17.958 67.698,19.614 69.264,22.426 C 69.383,22.641 69.307,22.912 69.091,23.033 C 68.876,23.152 68.604,23.075 68.485,22.859 C 67.111,20.391 64.293,18.893 59.641,18.163 C 59.619,18.171 59.594,18.174 59.569,18.178 C 59.233,19.748 60.335,20.67 61.596,21.429 C 61.729,21.51 61.81,21.653 61.811,21.809 C 61.813,21.964 61.732,22.108 61.601,22.19 C 61.065,22.52 60.051,23.507 60.522,24.283 C 60.65,24.493 60.584,24.767 60.374,24.894 C 60.164,25.023 59.89,24.956 59.762,24.746 C 59.116,23.685 59.796,22.548 60.584,21.844 C 59.655,21.213 58.359,20.044 58.67,18.165 C 56.664,18.158 52.572,18.45 51.431,18.94 C 51.809,20.15 51.769,21.418 51.299,22.869 C 51.224,23.103 50.973,23.233 50.738,23.155 C 50.504,23.08 50.375,22.829 50.451,22.595 C 50.933,21.107 50.907,19.854 50.375,18.66 C 49.364,17.562 47,17.434 45.478,18.015 C 44.897,18.236 43.926,18.755 43.936,19.739 C 43.939,19.89 43.862,20.025 43.743,20.108 C 43.627,21.136 43.976,21.716 44.375,22.372 C 44.717,22.929 45.102,23.561 45.172,24.481 C 45.275,25.878 44.703,29.298 44.051,30.516 C 43.934,30.733 43.663,30.815 43.448,30.699 C 43.231,30.583 43.149,30.313 43.264,30.096 C 43.792,29.109 44.383,25.894 44.283,24.548 C 44.229,23.842 43.931,23.353 43.616,22.836 C 43.168,22.103 42.674,21.269 42.896,19.793 C 42.48,19.502 41.617,19.148 40.874,19.039 C 39.304,18.815 37.842,19.096 37.149,19.752 C 36.812,20.072 36.669,20.459 36.711,20.931 C 36.779,21.655 37.626,22.842 38.081,23.304 C 38.127,23.35 38.162,23.406 38.183,23.467 C 40.247,29.222 37.69,43.676 35.945,45.168 C 35.9,45.208 35.845,45.233 35.789,45.25 C 35.863,45.369 35.923,45.507 35.951,45.678 C 36.276,47.593 36.807,49.345 36.786,51.313 C 36.782,51.551 36.718,51.747 36.618,51.91 C 36.865,51.993 37.114,52.111 37.353,52.277 C 37.529,51.774 37.88,51.5 38.127,51.365 C 38.438,51.194 38.812,51.111 39.197,51.111 C 39.791,51.111 40.416,51.307 40.891,51.68 C 41.467,52.131 41.698,52.757 41.527,53.398 C 41.464,53.636 41.22,53.777 40.982,53.714 C 40.744,53.65 40.603,53.406 40.667,53.168 C 40.744,52.877 40.635,52.612 40.342,52.382 C 39.847,51.994 39.028,51.886 38.557,52.145 C 38.233,52.324 38.093,52.666 38.142,53.162 C 38.162,53.358 38.051,53.544 37.869,53.618 C 37.687,53.693 37.477,53.639 37.354,53.487 C 36.693,52.673 35.819,52.525 35.249,52.74 C 34.814,52.902 34.576,53.264 34.592,53.731 C 34.601,53.977 34.409,54.184 34.162,54.191 C 33.907,54.209 33.71,54.009 33.702,53.763 C 33.675,53.019 34.037,52.378 34.661,52.033 C 34.515,51.851 34.424,51.613 34.427,51.313 C 34.448,49.572 33.971,48.021 33.683,46.33 C 32.099,47.366 30.024,49.237 29.109,52.284 C 28.304,52.026 27.233,51.608 26.517,51.27 C 26.455,51.241 26.391,51.228 26.326,51.228 C 26.159,51.228 25.999,51.322 25.924,51.483 C 25.818,51.706 25.914,51.972 26.137,52.076 C 26.911,52.441 28.036,52.879 28.888,53.15 C 28.825,53.446 28.773,53.751 28.733,54.069 C 28.17,54.059 27.571,54 26.985,53.942 C 26.708,53.914 26.439,53.888 26.184,53.867 C 26.171,53.865 26.159,53.865 26.148,53.865 C 25.918,53.865 25.723,54.042 25.704,54.275 C 25.685,54.521 25.868,54.736 26.113,54.755 C 26.363,54.776 26.626,54.802 26.895,54.828 C 27.455,54.884 28.065,54.946 28.655,54.959 C 28.622,55.581 28.636,56.24 28.703,56.936 C 28.96,59.638 30.039,62.37 32.201,65.794 C 32.335,66.008 32.495,66.264 32.672,66.549 C 33.958,68.621 36.967,73.474 38.513,73.614 C 38.788,73.638 38.911,73.563 38.978,73.504 C 39.341,73.189 39.387,72.202 39.431,71.248 C 39.471,70.416 39.511,69.555 39.747,68.829 C 39.764,68.776 39.791,68.728 39.825,68.685 C 40.104,68.341 48.977,66.436 49.052,66.436 C 49.153,66.436 49.252,66.47 49.331,66.534 L 49.643,66.787 C 51.198,68.041 54.089,70.378 54.909,70.075 C 55.872,69.722 55.224,66.001 54.838,63.778 C 54.701,62.992 54.572,62.249 54.491,61.616 L 54.397,60.894 C 54.016,57.983 53.859,56.778 55.025,54.601 C 55.817,53.103 56.78,52.051 57.888,51.475 L 58.215,51.305 C 62.938,48.86 66.058,47.244 68.896,44.002 C 71.101,41.476 73.428,38.301 73.957,33.906 C 74.513,29.27 73.358,25.991 72.289,23.654 C 72.248,23.564 72.239,23.465 72.26,23.369 C 73.201,19.262 69.229,15.96 65.015,14.937 C 64.077,14.709 62.849,14.49 61.547,14.259 C 56.168,13.303 49.474,12.112 49.077,8.296 C 48.952,7.129 49.884,6.494 50.871,5.823 C 51.556,5.357 52.333,4.828 52.858,4.055 C 53.345,3.337 53.041,2.373 52.467,1.857 C 52.079,1.508 51.887,1.489 51.536,1.451 C 51.465,1.443 51.392,1.436 51.314,1.426 C 49.328,1.157 47.276,2.124 45.957,3.952 Z M 8.2,16.527 C 8.17,16.741 7.991,16.903 7.774,16.91 C 7.746,16.91 5.909,16.962 4.543,16.962 C 3.812,16.962 3.214,16.947 3.104,16.902 C 2.5,16.662 1.225,16.482 1.032,16.918 C 0.73,17.601 1.027,17.792 1.139,17.864 C 1.548,18.129 2.221,18.036 2.337,17.907 C 2.421,17.796 2.552,17.73 2.691,17.73 L 2.693,17.73 C 2.831,17.73 2.962,17.795 3.047,17.905 C 3.836,18.94 5.051,21.234 5.587,22.424 C 5.676,22.622 5.611,22.854 5.432,22.976 C 3.716,24.141 2.694,25.48 2.626,26.651 C 2.581,27.449 2.972,28.211 3.791,28.917 C 4.438,29.473 5.587,29.918 6.44,29.64 C 6.987,29.464 7.356,28.994 7.534,28.248 C 7.582,28.049 7.76,27.908 7.966,27.907 L 7.968,27.907 C 8.171,27.907 8.35,28.045 8.399,28.243 C 8.797,29.832 9.747,30.855 11.003,31.052 C 12.078,31.222 13.162,30.745 13.705,29.87 C 14.322,28.877 14.14,27.591 13.194,26.25 C 13.059,26.061 13.093,25.801 13.27,25.653 C 13.447,25.504 13.708,25.515 13.873,25.678 C 14.544,26.35 17.993,28.299 19.685,27.967 C 21.372,27.64 22.445,26.92 23.121,25.943 C 28.597,29.807 32.281,35.577 33.531,42.289 C 33.591,42.604 33.718,43.147 33.88,43.82 L 33.935,44.046 C 34.435,46.088 35.364,49.891 35.121,50.727 C 35.052,50.962 35.188,51.21 35.424,51.279 C 35.659,51.348 35.908,51.212 35.976,50.975 C 36.263,49.993 35.584,47.036 34.8,43.834 L 34.746,43.61 C 34.588,42.955 34.465,42.429 34.407,42.123 C 33.107,35.152 29.268,29.16 23.559,25.161 C 24.2,23.728 24.257,21.91 24.22,20.013 C 24.199,18.875 25.002,18.309 25.709,17.81 C 26.343,17.362 26.896,16.973 26.939,16.213 C 26.8,16.067 26.597,15.976 26.326,15.941 C 24.969,15.76 22.585,17.003 21.899,17.597 C 21.803,17.68 21.677,17.719 21.551,17.702 C 21.406,17.685 21.222,17.612 20.781,17.434 C 19.779,17.031 17.912,16.28 15.993,16.173 C 13.906,16.061 12.168,16.504 10.886,16.902 C 10.669,16.97 10.435,16.862 10.345,16.653 C 9.934,15.705 9.244,15.127 8.864,15.176 C 8.563,15.217 8.314,15.721 8.2,16.527 Z M 7.829,20.874 C 7.969,21.051 8.219,21.279 8.468,21.495 C 8.833,21.211 9.21,20.957 9.556,20.763 C 9.625,20.725 9.699,20.706 9.773,20.706 C 9.93,20.706 10.081,20.788 10.163,20.934 C 10.282,21.15 10.206,21.421 9.991,21.54 C 9.733,21.684 9.453,21.871 9.174,22.078 L 9.259,22.147 C 9.508,22.348 9.73,22.528 9.885,22.661 C 10.073,22.823 10.093,23.104 9.933,23.29 C 9.771,23.477 9.491,23.497 9.304,23.337 C 9.155,23.208 8.939,23.034 8.7,22.84 L 8.472,22.656 C 8.204,22.893 7.949,23.137 7.731,23.382 C 7.569,23.566 7.288,23.586 7.103,23.422 C 6.918,23.26 6.901,22.978 7.063,22.794 C 7.277,22.551 7.525,22.311 7.782,22.077 C 7.53,21.855 7.29,21.63 7.131,21.428 C 6.978,21.237 7.01,20.957 7.203,20.803 C 7.285,20.738 7.383,20.706 7.48,20.706 C 7.611,20.706 7.741,20.763 7.829,20.874 Z M 50.293,46.519 C 50.479,46.68 50.5,46.961 50.338,47.147 C 49.737,47.843 47.584,49.159 46.867,49.542 C 46.65,49.657 46.38,49.576 46.265,49.359 C 46.149,49.142 46.23,48.872 46.448,48.756 C 47.311,48.295 49.218,47.081 49.665,46.565 C 49.753,46.463 49.877,46.411 50.002,46.411 C 50.105,46.411 50.209,46.447 50.293,46.519 Z M 51.852,48.893 C 51.945,49.123 51.834,49.382 51.606,49.473 C 51.259,49.612 50.928,49.753 50.602,49.891 C 49.628,50.303 48.708,50.693 47.558,50.988 C 47.319,51.05 47.077,50.905 47.016,50.668 C 46.955,50.429 47.099,50.187 47.337,50.125 C 48.422,49.847 49.312,49.469 50.255,49.07 C 50.586,48.93 50.922,48.787 51.273,48.647 C 51.327,48.624 51.384,48.615 51.439,48.615 C 51.616,48.615 51.782,48.72 51.852,48.893 Z M 46.616,55.986 C 46.616,56.818 46.004,57.489 45.25,57.489 C 44.495,57.489 43.884,56.818 43.884,55.986 C 43.884,55.154 44.495,54.478 45.25,54.478 C 46.004,54.478 46.616,55.154 46.616,55.986 Z M 33.981,57.751 C 33.981,58.582 33.369,59.254 32.614,59.254 C 31.86,59.254 31.249,58.582 31.249,57.751 C 31.249,56.919 31.86,56.242 32.614,56.242 C 33.369,56.242 33.981,56.919 33.981,57.751 Z" fill="#000000" stroke-width="0.594" stroke-linejoin="miter" stroke="none" marker-start="none" marker-end="none" stroke-miterlimit="79.8403193612775"></path></g></g></g></svg>