<svg xmlns:xlink="http://www.w3.org/1999/xlink" xmlns="http://www.w3.org/2000/svg" stroke-width="0.501" stroke-linejoin="bevel" fill-rule="evenodd" version="1.1" overflow="visible" viewBox="0 0 75 75" x="0px" y="0px"><g fill="none" stroke="black" font-family="Times New Roman" font-size="16" transform="scale(1 -1)"><g transform="translate(0 -75)"><g><path d="M 67.193,-30.975 C 70.99,-29.784 74.985,-29.223 78.964,-29.324" fill="none" stroke="none" stroke-width="1" stroke-linejoin="miter" stroke-miterlimit="79.8403193612775"></path><path d="M 67.7,-33.336 C 71.046,-32.765 74.478,-32.697 77.844,-33.137" fill="none" stroke="none" stroke-width="1" stroke-linejoin="miter" stroke-miterlimit="79.8403193612775"></path><path d="M 16.33,-31.856 C 18.959,-31.438 21.679,-31.604 24.238,-32.338" fill="none" stroke="none" stroke-width="1" stroke-linejoin="miter" stroke-linecap="round" stroke-miterlimit="79.8403193612775"></path><path d="M 16.571,-34.746 C 19.146,-33.755 21.978,-33.437 24.709,-33.834" fill="none" stroke="none" stroke-width="1" stroke-linejoin="miter" stroke-linecap="round" stroke-miterlimit="79.8403193612775"></path><path d="M 35.815,3.777 C 34.375,4.553 35.423,7.331 36.436,10.019 C 36.804,10.995 37.176,11.984 37.446,12.921 C 37.535,12.987 37.601,13.081 37.631,13.197 C 38.123,15.158 38.341,17.849 38.499,19.814 L 38.567,20.665 C 38.591,20.939 38.388,21.18 38.114,21.203 C 37.841,21.23 37.598,21.023 37.575,20.75 L 37.505,19.895 C 37.414,18.772 37.303,17.412 37.135,16.098 C 32.389,15.029 25.38,16.423 23.655,17.05 C 23.626,17.068 23.602,17.092 23.568,17.105 C 23.487,17.137 23.399,17.178 23.311,17.219 C 23.275,17.264 23.231,17.302 23.182,17.332 C 23.171,17.339 23.163,17.346 23.152,17.352 C 23.083,17.389 23.007,17.415 22.923,17.415 C 22.919,17.415 22.917,17.413 22.913,17.413 C 21.944,17.919 20.681,18.778 20.066,19.47 C 19.883,19.675 19.568,19.694 19.363,19.511 C 19.157,19.329 19.139,19.013 19.321,18.808 C 20.033,18.007 21.395,17.084 22.436,16.537 C 22.493,14.986 23.106,13.178 23.707,11.423 C 24.598,8.817 25.519,6.122 24.325,4.888 C 23.749,4.292 23.135,4.039 22.45,4.111 C 20.281,4.345 18.062,7.67 17.433,8.683 C 11.523,18.269 10.989,33.332 16.243,42.261 C 17.237,43.956 18.704,46.366 19.965,47.721 C 20.242,48.018 20.675,48.428 21.096,48.825 C 21.524,49.231 21.796,49.493 21.976,49.68 C 23.387,49.205 25.148,48.789 27.01,48.789 C 28.247,48.789 29.526,48.972 30.772,49.442 C 31.03,49.54 31.16,49.827 31.063,50.085 C 30.965,50.343 30.678,50.471 30.42,50.374 C 27.478,49.264 24.278,49.926 22.074,50.698 C 22.062,50.706 22.052,50.714 22.04,50.722 C 20.273,51.592 19.382,52.153 18.263,53.875 C 17.404,55.19 17.243,57.153 17.085,59.051 C 17.005,60.024 16.928,60.944 16.759,61.745 C 16.027,65.206 13.471,66.583 11.323,66.717 C 8.682,66.89 6.27,65.357 5.455,63.008 C 5.203,62.278 5.173,61.307 5.14,60.282 C 5.097,58.938 5.048,57.415 4.426,56.847 C 4.215,56.654 3.929,56.573 3.549,56.592 C 2.493,56.652 1.736,57.142 1.234,58.088 C -0.019,60.452 0.814,64.807 1.915,66.65 C 4.116,70.334 10.608,73.203 14.763,71.174 C 15.805,70.664 17.971,69.603 19.258,67.314 L 19.453,66.967 C 19.766,66.412 20.119,65.785 20.231,65.387 C 20.344,64.983 20.467,64.403 20.486,64.017 C 20.569,62.272 21.057,58.77 22.016,56.8 C 23.107,54.557 25.173,53.258 27.165,53.57 L 32.129,54.405 C 37.71,55.129 44.547,52.91 48.755,49.006 C 48.775,48.985 48.802,48.977 48.825,48.962 C 48.925,48.855 49.036,48.76 49.172,48.693 C 51.518,46.737 55.619,39.653 56.345,36.758 C 56.401,36.532 56.604,36.381 56.827,36.381 C 56.867,36.381 56.908,36.386 56.949,36.395 C 57.216,36.463 57.377,36.733 57.311,37.001 C 56.539,40.083 52.276,47.456 49.753,49.505 C 49.752,49.506 49.75,49.506 49.749,49.507 C 51.901,53.178 57.059,58.998 60.551,58.593 C 60.861,58.156 60.871,55.905 60.878,54.403 C 60.882,53.573 60.885,52.715 60.922,51.96 C 60.946,51.545 60.979,51.067 61.047,50.657 C 61.08,50.462 61.223,50.307 61.412,50.257 C 62.648,49.934 66.06,47.246 68.141,44.676 C 68.363,44.415 68.573,44.139 68.801,43.807 C 70.208,41.745 71.024,38.957 71.208,37.108 C 71.429,34.918 71.142,32.98 70.356,31.31 C 71.177,30.873 72.108,30.498 73.011,30.137 C 73.375,29.991 73.736,29.846 74.088,29.698 C 74.341,29.59 74.461,29.298 74.354,29.045 C 74.274,28.855 74.089,28.74 73.895,28.74 C 73.83,28.74 73.765,28.752 73.702,28.779 C 73.355,28.925 72.999,29.068 72.64,29.212 C 71.71,29.584 70.751,29.97 69.882,30.432 C 69.716,30.164 69.538,29.903 69.344,29.651 C 70.304,28.707 71.369,27.871 72.439,27.218 C 72.675,27.076 72.749,26.768 72.607,26.533 C 72.512,26.379 72.348,26.294 72.18,26.294 C 72.092,26.294 72.003,26.319 71.922,26.368 C 70.804,27.047 69.696,27.914 68.694,28.891 C 68.333,28.51 67.934,28.149 67.499,27.81 C 64.537,25.508 60.878,25.049 60.11,25.155 C 60.297,26.865 60.276,28.39 60.096,30.725 C 60.075,30.999 59.836,31.209 59.56,31.183 C 59.286,31.163 59.08,30.923 59.102,30.648 C 59.359,27.328 59.281,25.699 58.73,22.725 C 58.728,22.715 58.727,22.704 58.726,22.694 C 58.458,21.662 58.118,20.442 57.767,19.181 C 56.434,14.396 55.643,11.429 55.892,10.586 C 55.922,10.482 55.986,10.392 56.073,10.328 C 57.184,9.499 57.651,8.589 57.385,7.765 C 57.101,6.887 56.045,6.237 54.873,6.219 C 54.159,6.211 52.432,6.446 51.57,8.869 C 51.07,10.263 50.979,11.489 50.873,12.91 C 50.847,13.252 50.817,13.61 50.785,13.976 C 53.251,15.669 55.941,18.474 56.669,21.707 C 56.73,21.976 56.561,22.243 56.293,22.303 C 56.022,22.364 55.758,22.194 55.697,21.927 C 54.982,18.75 52.138,15.989 49.706,14.457 C 49.579,14.397 49.425,14.321 49.255,14.235 C 48.901,14.058 48.168,13.694 47.597,13.484 C 48.97,16.594 51.203,23.37 49.634,28.164 C 49.548,28.425 49.267,28.569 49.006,28.482 C 48.743,28.396 48.602,28.115 48.686,27.854 C 50.311,22.889 47.527,15.515 46.313,13.082 C 46.311,13.077 46.308,13.073 46.306,13.068 C 45.798,12.298 45.279,11.311 44.731,10.263 C 43.285,7.499 41.486,4.058 39.034,3.308 C 38.027,2.999 36.974,3.153 35.815,3.777 Z M 65.121,34.773 C 66.696,35.743 64.077,38.022 62.582,37.365 C 62.19,37.191 61.965,36.979 61.872,36.753 C 61.473,35.79 63.672,33.876 65.121,34.773 Z M 69.339,37.664 C 69.339,38.441 68.801,39.072 68.131,39.072 C 67.466,39.072 66.927,38.441 66.927,37.664 C 66.927,36.886 67.466,36.254 68.131,36.254 C 68.801,36.254 69.339,36.886 69.339,37.664 Z M 27.704,38.448 C 27.815,39.03 27.968,39.577 28.14,40.105 C 28.593,39.61 29.078,39.148 29.583,38.67 L 29.856,38.412 C 29.951,38.32 30.075,38.274 30.198,38.274 C 30.33,38.274 30.462,38.326 30.56,38.43 C 30.749,38.629 30.742,38.943 30.542,39.134 L 30.269,39.393 C 29.764,39.871 29.279,40.331 28.822,40.832 C 29.507,40.977 30.199,41.041 30.954,41.025 C 31.22,41.026 31.456,41.24 31.461,41.516 C 31.466,41.791 31.246,42.016 30.971,42.022 C 30.227,42.037 29.532,41.975 28.849,41.849 C 29.091,42.314 29.361,42.742 29.663,43.117 C 29.836,43.332 29.801,43.645 29.588,43.819 C 29.373,43.99 29.058,43.956 28.886,43.743 C 28.494,43.255 28.149,42.697 27.85,42.085 C 27.608,42.455 27.394,42.839 27.205,43.262 C 27.092,43.513 26.796,43.626 26.547,43.513 C 26.295,43.401 26.182,43.106 26.295,42.854 C 26.53,42.33 26.818,41.851 27.134,41.388 C 26.603,41.197 26.055,40.969 25.407,40.684 C 25.154,40.573 25.04,40.28 25.151,40.028 C 25.233,39.841 25.415,39.73 25.607,39.73 C 25.675,39.73 25.742,39.743 25.807,39.772 C 26.313,39.994 26.75,40.177 27.166,40.336 C 26.993,39.791 26.838,39.228 26.725,38.632 C 26.674,38.362 26.852,38.102 27.122,38.051 C 27.153,38.045 27.184,38.043 27.216,38.043 C 27.45,38.043 27.66,38.208 27.704,38.448 Z M 59.027,41.358 C 59.027,42.162 58.463,42.813 57.779,42.813 C 57.088,42.813 56.53,42.162 56.53,41.358 C 56.53,40.553 57.088,39.902 57.779,39.902 C 58.463,39.902 59.027,40.553 59.027,41.358 Z M 61.99,51.112 C 61.972,51.26 61.959,51.412 61.947,51.563 C 62.096,51.625 62.337,51.753 62.853,52.029 C 64.244,52.773 68.477,55.044 69.552,54.567 C 69.614,54.541 69.638,54.513 69.654,54.45 C 69.886,53.524 69.461,51.947 69.009,50.278 C 68.632,48.885 68.249,47.458 68.17,46.171 C 66.211,48.33 63.49,50.518 61.99,51.112 Z" fill="#000000" stroke-width="0.664" stroke-linejoin="miter" stroke="none" marker-start="none" marker-end="none" stroke-miterlimit="79.8403193612775"></path></g></g></g></svg>