<svg fill="#B36AE2" xmlns:xlink="http://www.w3.org/1999/xlink" xmlns="http://www.w3.org/2000/svg" stroke-width="0.501" stroke-linejoin="bevel" fill-rule="evenodd" version="1.1" overflow="visible" viewBox="0 0 75 75" x="0px" y="0px"><g fill="none" stroke="black" font-family="Times New Roman" font-size="16" transform="scale(1 -1)"><g transform="translate(0 -75)"><g><path d="M 67.193,-30.975 C 70.99,-29.784 74.985,-29.223 78.964,-29.324" fill="none" stroke="none" stroke-width="1" stroke-linejoin="miter" stroke-miterlimit="79.8403193612775"></path><path d="M 67.7,-33.336 C 71.046,-32.765 74.478,-32.697 77.844,-33.137" fill="none" stroke="none" stroke-width="1" stroke-linejoin="miter" stroke-miterlimit="79.8403193612775"></path><path d="M 16.33,-31.856 C 18.959,-31.438 21.679,-31.604 24.238,-32.338" fill="none" stroke="none" stroke-width="1" stroke-linejoin="miter" stroke-linecap="round" stroke-miterlimit="79.8403193612775"></path><path d="M 16.571,-34.746 C 19.146,-33.755 21.978,-33.437 24.709,-33.834" fill="none" stroke="none" stroke-width="1" stroke-linejoin="miter" stroke-linecap="round" stroke-miterlimit="79.8403193612775"></path><path d="M 44.839,6.861 C 44.383,6.89 44.002,7.012 43.717,7.204 C 43.71,7.213 43.707,7.223 43.698,7.231 C 40.557,10.075 42.026,18.221 44.151,20.639 C 44.308,20.819 44.291,21.091 44.112,21.247 C 43.933,21.404 43.662,21.387 43.504,21.209 C 42.479,20.041 41.677,18.028 41.279,15.825 C 40.063,17.118 39.409,19.381 39.116,20.713 C 39.065,20.945 38.834,21.091 38.603,21.04 C 38.371,20.989 38.224,20.759 38.275,20.527 C 38.7,18.605 39.541,16.089 41.125,14.808 C 40.797,12.078 41.12,9.221 42.432,7.387 C 41.862,7.148 41.299,7.103 40.724,7.267 C 38.323,7.955 36.185,12.036 34.623,15.016 C 33.973,16.255 33.414,17.325 32.906,18.05 C 31.993,19.346 30.73,20.325 29.607,21.195 C 23.035,26.065 20.22,30.696 20.189,36.683 C 20.189,36.863 20.077,37.02 19.916,37.082 C 19.9,37.103 19.882,37.122 19.863,37.139 L 19.034,37.883 C 14.476,41.969 9.765,46.194 5.778,50.747 C 3.833,52.969 -0.78,59.827 1.557,62.267 C 2.654,63.411 3.892,63.39 4.579,62.885 C 4.96,62.606 5.247,62.089 4.91,61.48 C 4.696,61.091 4.147,59.797 4.272,59.072 C 4.651,56.808 7.408,53.763 9.622,51.316 L 9.762,51.162 C 11.377,49.382 13.856,47.239 15.654,46.068 C 16.731,45.363 17.615,44.761 18.445,44.196 C 19.422,43.532 20.344,42.904 21.41,42.225 C 21.575,42.12 21.79,42.139 21.932,42.272 C 22.166,42.485 22.31,42.653 22.388,42.806 C 22.742,43.093 23.006,43.484 23.194,43.995 C 24.109,46.483 27.694,51.03 33.422,52.639 C 39.479,54.334 45.395,52.722 47.745,50.163 C 47.354,49.465 47.071,48.729 46.801,48.009 C 46.69,47.71 46.578,47.413 46.461,47.125 C 46.371,46.905 46.476,46.653 46.696,46.563 C 46.749,46.542 46.804,46.531 46.859,46.531 C 47.029,46.531 47.19,46.632 47.257,46.8 C 47.378,47.096 47.492,47.4 47.608,47.708 C 47.92,48.541 48.242,49.401 48.733,50.147 C 48.791,50.233 48.806,50.331 48.797,50.427 C 49.283,51.216 49.716,52.279 50.17,53.397 C 50.782,54.9 51.413,56.456 52.109,57.07 C 52.245,57.19 52.374,57.232 52.529,57.212 C 53.434,57.087 54.715,55.088 55.48,53.894 C 56.019,53.054 56.29,52.641 56.539,52.469 C 56.563,52.452 56.588,52.438 56.616,52.427 C 56.893,52.309 58.227,52.256 62.563,52.192 C 63.312,52.181 63.912,52.172 64.181,52.163 C 64.3,52.153 64.408,52.202 64.492,52.282 C 64.844,52.618 65.215,53.194 65.646,53.86 C 66.431,55.072 67.506,56.718 68.394,56.562 C 69.69,55.393 70.356,52.605 70.846,50.559 C 70.962,50.074 71.068,49.628 71.172,49.251 C 71.216,48.674 71.615,47.805 72.075,46.803 C 72.483,45.913 72.906,44.992 73.025,44.366 C 73.858,40.044 73.756,37.634 71.43,34.445 C 71.89,34.236 72.361,33.964 72.795,33.716 C 73.183,33.492 73.549,33.281 73.827,33.162 C 74.046,33.069 74.148,32.816 74.054,32.597 C 73.984,32.433 73.825,32.336 73.658,32.336 C 73.601,32.336 73.544,32.346 73.489,32.37 C 73.164,32.51 72.775,32.733 72.365,32.969 C 71.888,33.244 71.362,33.547 70.891,33.74 C 70.787,33.612 70.68,33.481 70.57,33.349 C 70.885,33.114 71.209,32.865 71.531,32.617 C 72.009,32.248 72.478,31.886 72.896,31.592 C 73.09,31.454 73.137,31.186 73,30.992 C 72.916,30.873 72.783,30.809 72.648,30.809 C 72.563,30.809 72.476,30.834 72.401,30.887 C 71.973,31.188 71.493,31.558 71.005,31.935 C 70.671,32.192 70.333,32.452 70.006,32.695 C 68.011,30.445 66.749,29.784 64.768,28.85 C 63.835,28.407 62.558,28.182 61.605,28.035 C 61.56,28.047 61.514,28.056 61.467,28.052 C 59.024,27.888 56.432,28.568 56.145,28.647 C 55.918,28.709 55.679,28.575 55.616,28.345 C 55.553,28.115 55.689,27.879 55.918,27.816 C 56.32,27.707 58.111,27.247 60.132,27.175 L 57.69,25.134 C 54.499,22.463 49.984,16.415 49.879,12.636 C 49.856,11.868 50.127,11.022 50.391,10.204 C 50.659,9.372 50.936,8.511 50.75,8.073 C 50.599,7.715 50.04,7.374 49.422,7.266 C 48.805,7.156 48.253,7.288 47.938,7.618 C 48.434,8.738 48.059,9.481 47.746,10.092 C 47.554,10.468 47.402,10.765 47.452,11.117 C 47.525,11.641 47.584,12.141 47.642,12.626 C 47.99,15.552 48.264,17.863 51.151,21.494 C 51.298,21.68 51.268,21.951 51.081,22.098 C 50.895,22.249 50.624,22.216 50.477,22.03 C 47.439,18.208 47.136,15.668 46.787,12.728 C 46.73,12.248 46.672,11.753 46.6,11.238 C 46.51,10.616 46.76,10.129 46.98,9.7 C 47.308,9.059 47.567,8.552 46.915,7.529 C 46.869,7.457 46.855,7.378 46.854,7.299 C 46.304,6.99 45.539,6.812 44.839,6.861 Z M 48.899,30.285 C 49.548,30.854 51.221,32.07 51.624,32.202 C 51.85,32.275 51.974,32.518 51.9,32.744 C 51.827,32.97 51.584,33.095 51.358,33.021 C 50.707,32.809 48.814,31.354 48.331,30.932 C 48.153,30.774 48.135,30.503 48.292,30.324 C 48.376,30.227 48.496,30.178 48.615,30.178 C 48.716,30.178 48.817,30.213 48.899,30.285 Z M 47.701,32.254 C 48.265,32.409 48.773,32.624 49.265,32.833 C 49.72,33.026 50.15,33.209 50.596,33.334 C 50.825,33.396 50.96,33.634 50.895,33.863 C 50.832,34.092 50.596,34.225 50.366,34.163 C 49.865,34.024 49.389,33.821 48.928,33.625 C 48.463,33.428 47.981,33.223 47.474,33.084 C 47.245,33.021 47.109,32.784 47.173,32.554 C 47.225,32.363 47.398,32.238 47.587,32.238 C 47.625,32.238 47.664,32.243 47.701,32.254 Z M 59.642,37.93 C 60.088,38.242 60.373,38.66 60.624,39.03 C 60.734,39.191 60.84,39.347 60.95,39.476 C 61.042,39.369 61.143,39.224 61.236,39.089 C 61.515,38.684 61.862,38.182 62.436,37.956 C 62.654,37.87 62.907,37.978 62.994,38.199 C 63.081,38.422 62.972,38.671 62.751,38.758 C 62.421,38.888 62.179,39.239 61.944,39.578 C 61.699,39.934 61.446,40.302 61.054,40.44 C 60.921,40.487 60.771,40.465 60.656,40.38 C 60.348,40.154 60.126,39.829 59.912,39.514 C 59.692,39.19 59.464,38.857 59.148,38.635 C 58.954,38.499 58.906,38.231 59.043,38.036 C 59.127,37.917 59.26,37.852 59.396,37.852 C 59.481,37.852 59.567,37.878 59.642,37.93 Z M 55.188,40.453 C 55.188,41.646 54.453,42.622 53.546,42.622 C 52.639,42.622 51.904,41.646 51.904,40.453 C 51.904,39.253 52.639,38.283 53.546,38.283 C 54.453,38.283 55.188,39.253 55.188,40.453 Z M 69.074,40.453 C 69.074,41.646 68.339,42.622 67.432,42.622 C 66.525,42.622 65.79,41.646 65.79,40.453 C 65.79,39.253 66.525,38.283 67.432,38.283 C 68.339,38.283 69.074,39.253 69.074,40.453 Z" fill="#B36AE2" stroke-width="0.574" stroke-linejoin="miter" stroke="none" marker-start="none" marker-end="none" stroke-miterlimit="79.8403193612775"></path></g></g></g></svg>