<svg fill="#B36AE2" xmlns:xlink="http://www.w3.org/1999/xlink" xmlns="http://www.w3.org/2000/svg" stroke-width="0.501" stroke-linejoin="bevel" fill-rule="evenodd" version="1.1" overflow="visible" viewBox="0 0 75 75" x="0px" y="0px"><g fill="none" stroke="black" font-family="Times New Roman" font-size="16" transform="scale(1 -1)"><g transform="translate(0 -75)"><g><path d="M 67.193,-30.975 C 70.99,-29.784 74.985,-29.223 78.964,-29.324" fill="none" stroke="none" stroke-width="1" stroke-linejoin="miter" stroke-miterlimit="79.8403193612775"></path><path d="M 67.7,-33.336 C 71.046,-32.765 74.478,-32.697 77.844,-33.137" fill="none" stroke="none" stroke-width="1" stroke-linejoin="miter" stroke-miterlimit="79.8403193612775"></path><path d="M 16.33,-31.856 C 18.959,-31.438 21.679,-31.604 24.238,-32.338" fill="none" stroke="none" stroke-width="1" stroke-linejoin="miter" stroke-linecap="round" stroke-miterlimit="79.8403193612775"></path><path d="M 16.571,-34.746 C 19.146,-33.755 21.978,-33.437 24.709,-33.834" fill="none" stroke="none" stroke-width="1" stroke-linejoin="miter" stroke-linecap="round" stroke-miterlimit="79.8403193612775"></path><path d="M 45.355,2.831 C 45.117,2.858 43.736,2.78 43.026,2.712 C 43.063,1.947 43.339,1.426 43.892,1.158 C 45.628,0.318 49.265,1.828 50.87,3.257 C 54.422,6.407 57.947,10.147 59.687,16.145 C 61.044,20.836 60.649,27.4 58.705,32.482 C 57.341,36.034 54.55,41.174 48.997,45.483 C 47.957,46.288 45.663,47.78 44.8,48.341 L 44.5,48.537 C 44.363,48.628 44.28,48.781 44.277,48.946 C 44.273,49.11 44.353,49.265 44.486,49.363 C 45.112,49.809 45.553,50.03 46.018,50.26 C 46.543,50.522 47.086,50.792 48.021,51.445 L 48.448,51.743 C 50.296,53.039 51.757,54.062 53.359,55.897 C 56.132,59.051 58.713,65.807 56.126,69.775 C 54.626,72.068 52.048,73.68 49.232,74.086 C 46.617,74.461 44.078,73.743 42.079,72.063 C 41.598,71.345 41.065,70.01 41.389,69.291 C 41.445,69.17 41.613,68.796 42.449,68.702 C 43.04,68.636 43.593,69.013 44.226,69.45 C 44.676,69.759 45.185,70.112 45.777,70.336 C 46.322,70.542 46.893,70.642 47.472,70.642 C 48.842,70.642 50.239,70.077 51.376,69.016 C 52.988,67.511 53.678,65.371 53.134,63.565 C 51.084,56.777 45.186,53.677 39.82,51.304 C 38.068,50.528 36.7,49.976 35.492,49.489 C 32.853,48.425 30.948,47.655 27.201,45.447 C 23.827,43.459 20.575,40.173 18.043,36.195 C 14.092,29.97 13.396,21.446 16.271,14.48 C 17.779,10.836 20.506,7.304 24.372,3.984 C 26.625,2.055 29.742,0.286 31.249,0.966 C 31.791,1.21 32.111,1.808 32.205,2.745 C 32.149,2.744 32.096,2.747 32.041,2.745 C 31.816,2.743 31.588,2.738 31.361,2.738 C 30.845,2.738 30.333,2.757 29.854,2.835 C 29.581,2.88 29.397,3.136 29.44,3.411 C 29.485,3.684 29.739,3.87 30.016,3.825 C 30.616,3.726 31.334,3.738 32.025,3.749 C 32.461,3.756 32.893,3.762 33.3,3.744 C 33.332,3.743 33.359,3.729 33.39,3.721 C 34.333,3.702 35.928,3.703 37.493,3.704 C 39.721,3.707 41.825,3.709 42.486,3.654 C 43.064,3.75 45.094,3.872 45.472,3.827 C 45.747,3.795 45.944,3.545 45.911,3.271 C 45.879,2.995 45.636,2.795 45.355,2.831 M 56.042,13.606 C 55.542,13.615 55.039,13.61 54.534,13.603 C 54.218,13.601 53.899,13.597 53.58,13.597 C 52.844,13.597 52.102,13.615 51.381,13.695 C 51.106,13.726 50.908,13.975 50.939,14.251 C 50.97,14.526 51.215,14.721 51.493,14.693 C 52.465,14.584 53.509,14.595 54.522,14.607 C 55.036,14.612 55.551,14.618 56.059,14.609 C 56.336,14.604 56.558,14.375 56.553,14.098 C 56.547,13.822 56.336,13.581 56.042,13.606 M 56.008,16.526 C 56.282,16.546 56.527,16.345 56.55,16.068 C 56.574,15.793 56.368,15.55 56.094,15.526 C 55.495,15.476 54.899,15.438 54.305,15.399 C 53.567,15.35 52.832,15.304 52.108,15.232 C 52.092,15.231 52.075,15.231 52.058,15.231 C 51.803,15.231 51.585,15.425 51.561,15.684 C 51.534,15.959 51.736,16.204 52.011,16.231 C 52.747,16.303 53.491,16.35 54.241,16.4 C 54.828,16.437 55.417,16.476 56.008,16.526 M 19.379,16.526 C 19.912,16.476 20.445,16.437 20.976,16.399 C 21.652,16.35 22.325,16.302 22.99,16.231 C 23.264,16.202 23.463,15.954 23.435,15.679 C 23.407,15.421 23.189,15.231 22.936,15.231 C 22.918,15.231 22.9,15.231 22.882,15.234 C 22.23,15.304 21.568,15.352 20.903,15.399 C 20.366,15.438 19.825,15.476 19.285,15.527 C 19.01,15.553 18.807,15.798 18.833,16.073 C 18.858,16.349 19.098,16.553 19.379,16.526 M 23.559,13.697 C 22.905,13.616 22.232,13.597 21.566,13.597 C 21.276,13.597 20.988,13.601 20.703,13.603 C 20.248,13.608 19.792,13.615 19.342,13.606 C 19.043,13.625 18.837,13.821 18.83,14.098 C 18.825,14.375 19.046,14.603 19.322,14.609 C 19.784,14.618 20.249,14.612 20.715,14.607 C 21.626,14.595 22.566,14.584 23.435,14.691 C 23.706,14.722 23.96,14.531 23.994,14.256 C 24.028,13.981 23.833,13.73 23.559,13.697 M 27.984,15.558 C 27.014,15.558 26.219,16.348 26.219,17.323 C 26.219,18.3 27.014,19.088 27.984,19.088 C 28.96,19.088 29.748,18.3 29.748,17.323 C 29.748,16.348 28.96,15.558 27.984,15.558 M 41.809,15.032 C 41.47,14.054 40.588,13.451 39.501,13.451 C 39.487,13.451 39.473,13.451 39.458,13.452 C 38.756,13.461 38.11,13.724 37.666,14.142 C 37.32,13.79 36.811,13.579 36.213,13.561 C 35.328,13.538 34.241,13.999 33.974,15.077 C 33.909,15.347 34.073,15.617 34.342,15.684 C 34.612,15.752 34.883,15.586 34.949,15.317 C 35.081,14.779 35.676,14.554 36.183,14.563 C 36.587,14.575 37.047,14.748 37.132,15.195 C 37.173,15.421 37.364,15.59 37.593,15.604 C 37.839,15.617 38.033,15.473 38.102,15.254 C 38.246,14.8 38.823,14.463 39.474,14.454 C 39.79,14.448 40.572,14.529 40.861,15.362 C 40.953,15.623 41.239,15.761 41.499,15.671 C 41.761,15.58 41.9,15.294 41.809,15.032 M 44.554,29.436 C 44.457,29.346 44.328,29.297 44.194,29.305 C 40.188,29.486 35.405,29.486 31.185,29.486 C 31.061,29.486 30.94,29.532 30.847,29.617 C 30.374,30.05 30.013,30.783 29.631,31.559 C 28.807,33.235 28.18,34.299 27.061,33.865 C 25.467,33.249 23.113,27.663 22.264,24.949 C 22.196,24.735 21.999,24.597 21.786,24.597 C 21.736,24.597 21.685,24.604 21.636,24.621 C 21.372,24.703 21.225,24.984 21.307,25.248 C 21.334,25.334 24.082,33.79 26.7,34.799 C 28.76,35.599 29.784,33.521 30.531,32.002 C 30.815,31.425 31.106,30.832 31.399,30.488 C 35.497,30.488 40.102,30.484 44.018,30.317 C 44.319,30.649 44.65,31.178 44.997,31.732 C 45.899,33.173 46.915,34.804 48.397,34.602 C 48.459,34.593 48.518,34.574 48.573,34.543 C 51.136,33.121 52.853,27.403 53.318,25.684 C 53.39,25.417 53.232,25.141 52.966,25.07 C 52.698,24.997 52.422,25.156 52.35,25.424 C 51.501,28.56 49.906,32.551 48.174,33.615 C 48.17,33.615 48.166,33.615 48.162,33.615 C 47.357,33.615 46.523,32.282 45.847,31.201 C 45.409,30.499 44.994,29.836 44.554,29.436 M 45.635,17.323 C 45.635,18.3 46.423,19.088 47.4,19.088 C 48.375,19.088 49.165,18.3 49.165,17.323 C 49.165,16.348 48.375,15.558 47.4,15.558 C 46.423,15.558 45.635,16.348 45.635,17.323 Z" fill="#B36AE2" stroke-width="0.669" stroke-linejoin="miter" stroke="none" marker-start="none" marker-end="none" stroke-miterlimit="79.8403193612775"></path></g></g></g></svg>