<svg fill="#B36AE2" xmlns:xlink="http://www.w3.org/1999/xlink" xmlns="http://www.w3.org/2000/svg" stroke-width="0.501" stroke-linejoin="bevel" fill-rule="evenodd" version="1.1" overflow="visible" viewBox="0 0 75 75" x="0px" y="0px"><g fill="none" stroke="black" font-family="Times New Roman" font-size="16" transform="scale(1 -1)"><g transform="translate(0 -75)"><g><path d="M 67.193,-30.975 C 70.99,-29.784 74.985,-29.223 78.964,-29.324" fill="none" stroke="none" stroke-width="1" stroke-linejoin="miter" stroke-miterlimit="79.8403193612775"></path><path d="M 67.7,-33.336 C 71.046,-32.765 74.478,-32.697 77.844,-33.137" fill="none" stroke="none" stroke-width="1" stroke-linejoin="miter" stroke-miterlimit="79.8403193612775"></path><path d="M 16.33,-31.856 C 18.959,-31.438 21.679,-31.604 24.238,-32.338" fill="none" stroke="none" stroke-width="1" stroke-linejoin="miter" stroke-linecap="round" stroke-miterlimit="79.8403193612775"></path><path d="M 16.571,-34.746 C 19.146,-33.755 21.978,-33.437 24.709,-33.834" fill="none" stroke="none" stroke-width="1" stroke-linejoin="miter" stroke-linecap="round" stroke-miterlimit="79.8403193612775"></path><path d="M 22.832,3.481 C 14.659,7.183 11.175,11.594 10.805,18.694 C 10.674,23.703 14.099,29.458 17.592,30.096 C 17.815,30.137 17.971,30.34 17.954,30.564 C 17.367,38.357 18.731,44.784 21.124,52.63 C 21.442,53.676 21.772,54.875 22.1,56.096 L 22.069,56.096 C 21.487,56.118 20.928,56.195 20.389,56.27 C 19.716,56.363 19.02,56.462 18.27,56.449 L 18.264,56.449 C 18.035,56.449 17.848,56.644 17.845,56.886 C 17.842,57.131 18.028,57.332 18.259,57.334 C 19.071,57.348 19.797,57.244 20.498,57.147 C 21.043,57.072 21.557,57 22.098,56.981 C 22.179,56.977 22.254,56.95 22.316,56.906 C 22.368,57.099 22.419,57.291 22.47,57.483 C 22.496,57.583 22.523,57.684 22.55,57.784 C 22.507,57.794 22.464,57.811 22.423,57.836 C 21.696,58.276 20.847,58.504 19.949,58.745 C 19.552,58.853 19.154,58.959 18.769,59.084 C 18.547,59.157 18.422,59.404 18.491,59.639 C 18.559,59.872 18.797,60.002 19.016,59.931 C 19.389,59.81 19.773,59.707 20.156,59.604 C 21.046,59.363 21.966,59.116 22.779,58.642 C 23.17,60.107 23.568,61.56 23.957,62.807 C 24.249,63.749 24.541,64.726 24.833,65.702 C 25.779,68.868 26.758,72.141 27.649,73.896 C 27.74,74.077 27.881,74.291 28.038,74.291 C 28.954,74.291 30.702,70.82 31.275,69.678 C 31.617,68.999 31.76,68.718 31.876,68.583 C 32.028,68.407 32.29,68.376 32.477,68.516 C 33.549,69.317 40.38,69.342 42.223,68.553 C 42.374,68.487 42.549,68.513 42.677,68.617 C 42.804,68.719 42.864,68.887 42.83,69.048 C 42.7,69.696 43.948,72.035 45.288,73.359 C 45.882,73.947 46.212,74.035 46.291,74.017 C 47.479,73.765 48.206,70.013 48.849,66.702 C 49.265,64.56 49.695,62.341 50.298,60.415 L 50.6,59.443 C 50.788,58.829 51.01,58.112 51.248,57.349 C 52.716,57.84 54.334,58.124 55.74,58.351 C 55.969,58.389 56.184,58.223 56.219,57.98 C 56.254,57.739 56.097,57.513 55.868,57.475 C 54.495,57.255 52.92,56.978 51.511,56.509 C 51.61,56.194 51.712,55.874 51.813,55.555 C 52.988,55.776 55.042,55.973 56.204,55.643 C 56.428,55.579 56.562,55.337 56.5,55.1 C 56.44,54.865 56.21,54.725 55.986,54.787 C 55.04,55.057 53.248,54.913 52.086,54.707 C 52.323,53.977 52.558,53.265 52.782,52.616 C 53.137,51.578 53.484,50.683 53.851,49.737 C 54.288,48.606 54.74,47.438 55.261,45.889 C 56.305,42.769 57.704,36.612 57.278,32.435 C 57.264,32.311 57.305,32.185 57.391,32.091 C 60.675,28.511 61.2,22.627 60.298,18.676 C 59.734,16.22 58.126,14.174 56.474,13.81 C 55.357,13.564 54.263,14.088 53.31,15.321 C 52.875,15.884 52.461,17.821 52.786,18.644 C 52.791,18.649 52.798,18.651 52.802,18.655 C 55.14,20.939 56.637,24.368 56.808,27.829 C 56.82,28.074 56.632,28.28 56.388,28.294 C 56.131,28.318 55.935,28.117 55.923,27.874 C 55.765,24.677 54.332,21.388 52.183,19.288 C 52.18,19.285 52.179,19.281 52.176,19.278 C 52.12,19.241 52.068,19.195 52.032,19.131 C 51.085,17.471 45.126,16.084 42.835,15.993 C 41.69,17.879 39.009,18.268 36.41,18.638 C 34.395,18.927 32.493,19.199 31.518,20.115 C 31.34,20.282 31.06,20.274 30.892,20.095 C 30.725,19.917 30.733,19.637 30.912,19.469 C 32.091,18.362 34.127,18.071 36.284,17.762 C 38.727,17.413 41.253,17.052 42.139,15.44 C 42.152,15.417 42.175,15.407 42.192,15.387 C 42.195,15.375 42.193,15.361 42.199,15.349 C 42.717,14.266 42.624,13.278 42.318,12.818 C 41.738,11.947 40.767,11.383 39.435,11.139 C 35.592,10.434 29.643,12.578 27.069,14.42 C 21.826,18.157 20.859,21.04 19.739,24.378 C 19.693,24.516 19.644,24.658 19.597,24.798 C 19.597,24.845 19.594,24.893 19.579,24.94 C 19.132,26.26 18.879,27.338 18.78,28.332 C 18.756,28.575 18.541,28.755 18.294,28.728 C 18.052,28.704 17.874,28.488 17.898,28.244 C 17.985,27.375 18.187,26.446 18.51,25.383 C 17.568,24.893 16.792,23.927 16.303,22.612 C 15.464,20.358 15.678,17.611 16.857,15.442 C 19.149,11.213 22.874,9.315 27.763,7.769 C 28.528,7.525 29.955,7.173 32.411,6.882 L 32.52,6.868 C 32.918,6.804 33.366,6.744 33.845,6.678 C 36.229,6.355 39.495,5.914 40.355,4.429 C 40.944,3.398 40.84,2.276 40.106,1.758 C 36.447,-0.819 26.134,1.981 22.832,3.481 Z M 35.908,31.026 C 36.729,31.81 37.14,32.762 37.132,33.855 C 37.117,35.553 36.056,37.501 34.219,39.198 C 33.591,39.779 31.922,41.159 29.998,41.437 C 29.755,41.471 29.531,41.305 29.496,41.062 C 29.461,40.821 29.629,40.596 29.87,40.561 C 31.549,40.317 33.051,39.073 33.618,38.549 C 35.252,37.039 36.234,35.281 36.246,33.847 C 36.253,33.008 35.933,32.275 35.297,31.667 C 34.426,30.838 33.478,30.565 32.558,30.873 C 31.276,31.303 30.22,32.786 29.928,34.566 C 29.601,36.534 28.525,37.392 27.912,37.729 C 27.174,38.136 26.32,38.222 25.688,37.953 C 25.463,37.857 25.358,37.598 25.452,37.372 C 25.548,37.147 25.808,37.04 26.033,37.138 C 26.324,37.26 26.879,37.286 27.486,36.953 C 27.958,36.694 28.789,36.02 29.054,34.422 C 29.398,32.329 30.692,30.565 32.276,30.033 C 32.614,29.921 32.954,29.864 33.295,29.864 C 34.201,29.864 35.101,30.26 35.908,31.026 Z M 47.843,32.342 C 49.266,33.973 49.461,35.409 49.616,36.562 C 49.789,37.834 49.902,38.676 51.501,39.403 C 51.724,39.505 51.822,39.768 51.72,39.99 C 51.619,40.212 51.357,40.31 51.134,40.21 C 49.09,39.278 48.92,38.017 48.739,36.682 C 48.592,35.59 48.425,34.354 47.176,32.924 C 46.555,32.211 45.324,31.981 44.179,32.365 C 43.61,32.557 42.273,33.188 42.153,34.919 C 41.958,37.716 45.585,41.364 47.965,42.174 C 48.197,42.252 48.321,42.504 48.241,42.735 C 48.164,42.967 47.911,43.092 47.68,43.011 C 44.988,42.098 41.045,38.079 41.271,34.858 C 41.378,33.288 42.361,32.042 43.897,31.525 C 44.366,31.369 44.842,31.292 45.302,31.292 C 46.316,31.292 47.25,31.66 47.843,32.342 Z M 39.475,55.416 C 39.475,56 38.601,56.48 37.526,56.48 C 36.446,56.48 35.578,56 35.578,55.416 C 35.578,54.826 36.446,54.354 37.526,54.354 C 38.601,54.354 39.475,54.826 39.475,55.416 Z M 30.855,56.975 C 30.855,57.826 30.165,58.51 29.32,58.51 C 28.47,58.51 27.779,57.826 27.779,56.975 C 27.779,56.131 28.47,55.44 29.32,55.44 C 30.165,55.44 30.855,56.131 30.855,56.975 Z M 46.789,57.24 C 46.789,58.091 46.099,58.775 45.255,58.775 C 44.404,58.775 43.72,58.091 43.72,57.24 C 43.72,56.396 44.404,55.706 45.255,55.706 C 46.099,55.706 46.789,56.396 46.789,57.24 Z" fill="#B36AE2" stroke-width="0.59" stroke-linejoin="miter" stroke="none" marker-start="none" marker-end="none" stroke-miterlimit="79.8403193612775"></path></g></g></g></svg>