<svg xmlns:xlink="http://www.w3.org/1999/xlink" xmlns="http://www.w3.org/2000/svg" stroke-width="0.501" stroke-linejoin="bevel" fill-rule="evenodd" version="1.1" overflow="visible" viewBox="0 0 75 75" x="0px" y="0px"><g fill="none" stroke="black" font-family="Times New Roman" font-size="16" transform="scale(1 -1)"><g transform="translate(0 -75)"><g><path d="M 40.301,1.76 C 39.629,2.935 40.825,4.148 41.598,4.766 C 44.067,6.744 44.454,10.451 44.53,13.066 C 44.53,13.069 44.529,13.071 44.529,13.074 C 44.529,13.076 44.53,13.079 44.53,13.081 L 44.53,15.213 C 44.53,15.494 44.303,15.72 44.022,15.72 C 43.742,15.72 43.514,15.494 43.514,15.213 L 43.514,13.472 C 42.179,13.145 40.259,13.335 38.855,13.636 C 38.808,13.658 38.762,13.679 38.708,13.686 C 37.705,13.82 35.872,14.543 35.242,15.168 C 35.044,15.366 34.722,15.363 34.525,15.165 C 34.327,14.966 34.329,14.644 34.528,14.447 C 35.251,13.73 36.811,13.093 37.934,12.811 C 37.266,10.114 35.332,5.75 32.729,3.518 C 30.966,2.015 28.394,1.019 26.905,2.388 C 25.565,3.626 26.503,5.133 28.206,7.467 C 28.764,8.233 29.343,9.024 29.75,9.798 C 31.679,13.454 31.843,21.04 31.012,24.371 C 30.08,28.135 26.943,32.792 23.694,35.253 C 24.668,37.169 26.155,38.136 26.261,38.202 C 26.492,38.306 26.614,38.568 26.537,38.817 C 26.453,39.084 26.166,39.234 25.902,39.149 C 25.573,39.046 23.578,37.636 22.54,35.209 C 22.046,34.052 21.727,32.649 21.444,31.411 C 21.124,30.004 20.791,28.549 20.311,28.057 C 19.563,27.296 18.768,27.047 18.011,27.336 C 16.94,27.742 16.077,29.177 16.002,30.67 C 15.913,32.481 16.76,35.119 18.064,37.087 C 19.039,38.566 20.217,39.617 21.471,40.123 C 21.731,40.228 21.857,40.523 21.752,40.784 C 21.646,41.044 21.35,41.168 21.091,41.064 C 19.771,40.531 18.541,39.494 17.508,38.06 C 17.444,38.107 17.371,38.142 17.287,38.153 C 15.995,38.324 13.849,39.006 12.07,39.811 C 11.346,40.138 10.77,40.448 10.408,40.703 C 9.57,41.299 8.848,41.864 8.201,42.43 C 5.808,44.532 4.364,46.749 3.911,49.019 C 2.588,55.63 4.874,60.99 10.703,64.946 C 10.817,65.022 10.895,65.142 10.919,65.279 C 11.008,65.797 11.103,66.403 11.204,67.051 C 11.549,69.259 12.268,73.856 13.001,74.262 C 13.35,74.457 13.711,74.458 14.137,74.264 C 16.033,73.405 18.127,69.161 18.779,67.054 C 18,67.008 17.235,66.942 16.41,66.776 C 16.135,66.721 15.956,66.453 16.012,66.179 C 16.061,65.938 16.272,65.772 16.509,65.772 C 16.542,65.772 16.576,65.775 16.61,65.782 C 17.484,65.957 18.281,66.012 19.173,66.06 C 19.174,66.059 19.174,66.058 19.176,66.058 C 19.29,65.983 19.432,65.957 19.564,65.987 C 20.4,66.172 23.814,66.044 24.52,65.885 C 24.762,65.829 25.004,65.956 25.1,66.183 C 25.427,66.96 25.74,67.849 26.045,68.709 C 26.91,71.166 27.892,73.952 29.291,74.206 C 30.897,74.495 33.007,70.443 34.821,63.606 C 34.815,63.588 34.803,63.574 34.798,63.556 C 34.731,63.284 34.899,63.009 35.172,62.943 L 35.27,62.923 C 37.834,62.321 45.882,58.066 49.178,52.909 C 52.802,47.24 54.859,40.525 55.292,32.951 C 55.355,31.878 55.362,30.668 55.312,29.359 C 55.251,27.779 55.094,26.011 54.854,24.111 C 54.672,23.943 54.631,23.671 54.769,23.462 C 54.481,21.38 54.098,19.257 53.68,17.461 L 53.597,17.103 C 52.585,12.748 50.479,3.686 45.218,1.049 C 43.669,0.279 41.045,0.46 40.301,1.76 Z M 55.838,23.793 C 56.061,25.529 56.211,27.149 56.29,28.635 L 56.585,28.42 C 58.904,26.718 61.796,24.603 64.793,24.963 C 66.782,25.205 68.492,26.209 69.485,27.721 C 70.4,29.114 70.609,30.772 70.093,32.515 C 69.37,34.958 67.817,36.089 66.683,36.915 C 65.554,37.738 65.181,38.063 65.509,38.883 C 65.71,39.387 66.181,40.273 67.088,40.548 C 67.872,40.787 68.828,40.524 69.928,39.769 C 73.874,37.071 74.416,32.898 74.176,29.872 C 73.932,26.716 71.555,23.644 69.336,22.242 C 64.986,19.502 58.626,20.811 55.838,23.793 Z M 5.154,31.233 C 3.216,34.094 5.766,39.67 7.886,41.308 C 7.898,41.318 7.904,41.332 7.915,41.342 C 8.487,40.861 9.113,40.377 9.821,39.875 C 10.151,39.642 10.603,39.387 11.163,39.115 C 9.76,37.87 9.688,36.138 9.627,34.304 C 9.605,33.666 9.583,33.006 9.508,32.325 C 9.402,31.376 8.616,30.537 7.598,30.285 C 7.135,30.17 5.969,30.034 5.154,31.233 Z M 17.303,46.399 C 17.353,46.937 17.408,47.483 17.543,47.874 C 17.56,47.871 17.576,47.864 17.593,47.86 C 17.825,47.816 18.054,47.792 18.277,47.792 C 18.939,47.792 19.544,47.99 19.969,48.359 C 20.181,48.543 20.204,48.863 20.02,49.076 C 19.836,49.287 19.515,49.311 19.304,49.126 C 18.975,48.841 18.393,48.737 17.79,48.857 C 17.143,48.984 16.604,49.339 16.38,49.784 C 16.3,49.943 16.142,50.049 15.962,50.062 C 15.787,50.072 15.611,49.991 15.51,49.843 C 15.2,49.393 14.724,49.1 14.208,49.04 C 13.696,48.978 13.182,49.152 12.769,49.525 C 12.562,49.713 12.24,49.699 12.052,49.488 C 11.863,49.281 11.88,48.96 12.088,48.772 C 12.561,48.345 13.121,48.092 13.715,48.029 C 13.383,47.096 13.434,45.51 14.041,44.532 C 14.412,43.936 14.941,43.617 15.574,43.612 L 15.583,43.612 C 17.045,43.613 17.189,45.158 17.303,46.399 Z M 31.332,44.36 C 31.424,44.625 31.283,44.914 31.018,45.005 C 29.968,45.369 27.976,46.193 27.115,46.735 C 26.877,46.884 26.564,46.814 26.414,46.577 C 26.266,46.338 26.337,46.025 26.574,45.877 C 27.588,45.238 29.752,44.369 30.685,44.047 C 30.74,44.028 30.796,44.019 30.852,44.019 C 31.062,44.019 31.259,44.15 31.332,44.36 Z M 14.904,45.069 C 14.444,45.808 14.414,47.194 14.713,47.811 C 14.76,47.91 14.765,48.014 14.747,48.116 C 15.169,48.233 15.559,48.45 15.89,48.747 C 16.086,48.545 16.323,48.371 16.588,48.226 C 16.406,47.712 16.348,47.095 16.291,46.493 C 16.17,45.178 16.044,44.628 15.583,44.628 L 15.58,44.628 C 15.48,44.629 15.175,44.631 14.904,45.069 Z M 32.572,47.047 C 32.612,47.325 32.419,47.582 32.141,47.621 C 30.874,47.802 28.899,48.171 27.507,48.618 C 27.239,48.703 26.954,48.555 26.869,48.288 C 26.782,48.022 26.93,47.736 27.198,47.649 C 28.65,47.185 30.692,46.803 31.997,46.616 C 32.023,46.612 32.047,46.611 32.07,46.611 C 32.319,46.611 32.536,46.793 32.572,47.047 Z M 26.615,52.749 C 26.615,53.717 25.83,54.503 24.862,54.503 C 23.894,54.503 23.109,53.717 23.109,52.749 C 23.109,51.789 23.894,50.997 24.862,50.997 C 25.83,50.997 26.615,51.789 26.615,52.749 Z M 10.98,53.562 C 10.98,54.53 10.195,55.315 9.228,55.315 C 8.26,55.315 7.475,54.53 7.475,53.562 C 7.475,52.601 8.26,51.809 9.228,51.809 C 10.195,51.809 10.98,52.601 10.98,53.562 Z" fill="#000000" stroke-width="0.677" stroke-linejoin="miter" stroke="none" marker-start="none" marker-end="none" stroke-miterlimit="79.8403193612775"></path></g></g></g></svg>