<svg fill="#B36AE2" xmlns:xlink="http://www.w3.org/1999/xlink" xmlns="http://www.w3.org/2000/svg" stroke-width="0.501" stroke-linejoin="bevel" fill-rule="evenodd" version="1.1" overflow="visible" viewBox="0 0 75 75" x="0px" y="0px"><g fill="none" stroke="black" font-family="Times New Roman" font-size="16" transform="scale(1 -1)"><g transform="translate(0 -75)"><g><path d="M 24.615,3.208 C 17.919,5.989 14.601,9.537 14.176,14.375 C 14.061,15.686 14.122,17.425 15.07,18.268 C 15.531,18.687 16.295,18.733 16.969,18.774 C 18.769,18.878 19.133,17.247 19.485,14.744 C 19.622,13.771 19.752,12.854 20.05,12.135 C 21.978,7.479 29.051,5.279 41.08,5.6 C 44.558,5.698 51.089,6.552 55.765,11.176 C 55.897,11.308 56.027,11.44 56.161,11.58 C 58.017,13.538 58.328,14.782 58.637,17.356 C 58.67,17.635 58.472,17.888 58.193,17.922 C 57.909,17.947 57.661,17.757 57.627,17.478 C 57.334,15.041 57.084,14.033 55.425,12.281 C 55.368,12.222 55.312,12.167 55.255,12.109 C 55.176,12.099 55.099,12.075 55.029,12.025 C 54.562,11.696 52.883,11.521 51.327,11.646 C 50.899,11.685 50.413,11.73 50.161,11.963 C 50.124,11.998 50.081,12.027 50.034,12.05 C 49.754,12.182 49.547,12.354 49.42,12.556 C 49.209,12.899 49.194,13.364 49.374,13.938 C 49.765,15.189 51.004,16.566 51.809,16.917 C 52.067,17.028 52.184,17.326 52.074,17.583 C 51.958,17.856 51.82,18.157 51.677,18.468 C 51.348,19.187 50.974,20.004 50.831,20.568 C 50.763,20.841 50.483,21.004 50.213,20.935 C 49.941,20.867 49.776,20.59 49.845,20.317 C 50.011,19.664 50.388,18.841 50.753,18.044 C 50.822,17.893 50.89,17.745 50.954,17.603 C 49.975,16.966 48.833,15.618 48.401,14.242 C 48.215,13.646 48.195,13.097 48.318,12.613 C 45.352,11.943 40.17,11.854 36.974,12.817 C 36.955,12.822 36.936,12.819 36.917,12.822 C 37.428,13.579 38.077,14.69 38.329,15.939 C 38.385,16.215 38.206,16.484 37.931,16.539 C 37.658,16.592 37.387,16.417 37.332,16.141 C 37.046,14.72 36.119,13.437 35.673,12.821 L 35.626,12.756 C 34.809,11.616 33.324,10.879 31.653,10.785 C 30.235,10.7 28.958,11.123 28.247,11.906 C 28.069,12.101 28.049,12.253 28.049,12.357 C 28.041,12.906 28.709,13.659 29.355,14.387 C 30.043,15.163 30.754,15.965 30.952,16.82 C 31.015,17.093 30.846,17.367 30.572,17.431 C 30.298,17.496 30.024,17.324 29.961,17.05 C 29.821,16.447 29.197,15.743 28.593,15.062 C 27.917,14.3 27.281,13.573 27.093,12.812 C 25.72,12.541 24.141,12.898 23.397,13.662 C 23.011,14.058 22.886,14.513 23.016,15.053 C 23.248,16.013 24.036,16.738 24.799,17.441 C 25.554,18.136 26.267,18.791 26.494,19.679 C 26.504,19.721 26.51,19.763 26.51,19.807 C 26.486,25.227 24.877,28.425 23.322,31.516 C 21.627,34.887 20.025,38.069 20.505,44 C 20.606,45.307 19.629,46.099 18.77,46.796 C 18.619,46.918 18.467,47.041 18.322,47.165 L 18.195,47.275 C 16.738,48.533 15.334,49.747 14.708,52.73 C 13.8,52.451 12.758,52.173 11.686,52.173 L 11.648,52.173 C 11.367,52.175 11.141,52.404 11.142,52.685 C 11.144,52.964 11.371,53.19 11.65,53.19 L 11.686,53.19 C 12.669,53.19 13.669,53.473 14.535,53.741 C 14.501,53.999 14.471,54.269 14.446,54.55 C 14.248,54.558 14.039,54.568 13.826,54.579 C 13.081,54.615 12.315,54.655 11.687,54.609 C 11.409,54.599 11.164,54.8 11.143,55.081 C 11.123,55.361 11.335,55.604 11.615,55.624 C 12.302,55.673 13.139,55.632 13.876,55.595 C 14.05,55.587 14.22,55.578 14.384,55.571 C 14.342,56.693 14.374,57.987 14.495,59.491 C 14.77,62.888 18.215,72.894 20.512,74.047 C 20.759,74.171 20.892,74.127 20.989,74.065 C 21.708,73.615 22.199,72.082 22.594,70.851 C 22.802,70.207 22.997,69.597 23.22,69.119 C 23.299,68.951 23.463,68.839 23.649,68.826 C 24.648,68.763 33.174,66.96 33.636,66.793 C 33.856,66.655 34.135,66.715 34.293,66.913 L 34.3,66.906 C 37.989,71.237 39.524,71.773 40.12,71.704 C 40.263,71.687 40.45,71.629 40.615,71.31 C 41.518,69.583 41.128,65.186 40.814,61.652 C 40.71,60.484 40.613,59.383 40.558,58.4 C 40.446,56.315 41.58,52.955 43.083,50.91 C 43.729,50.027 44.664,49.48 45.568,48.951 C 45.845,48.791 46.119,48.631 46.378,48.464 C 47.411,47.792 48.969,46.908 50.477,46.053 C 51.535,45.452 52.535,44.885 53.24,44.454 C 57.551,41.811 59.33,39.26 61.685,34.54 C 63.206,31.505 64.468,22.172 63.544,18.129 C 62.953,15.566 61.968,11.878 60.254,9.456 C 58.89,7.533 56.673,5.663 54.325,4.453 C 51.608,3.055 48.455,1.687 43.827,1.142 C 37.53,0.386 29.271,1.276 24.615,3.208 Z M 40.699,47.729 C 40.763,48.001 40.595,48.275 40.321,48.34 C 39.763,48.472 39.203,48.761 38.609,49.067 C 38.149,49.303 37.674,49.547 37.191,49.717 C 36.925,49.809 36.635,49.669 36.543,49.404 C 36.45,49.14 36.59,48.85 36.855,48.756 C 37.271,48.61 37.694,48.392 38.144,48.161 C 38.765,47.843 39.408,47.512 40.087,47.351 C 40.126,47.341 40.166,47.337 40.204,47.337 C 40.435,47.337 40.644,47.495 40.699,47.729 Z M 41.113,50.541 C 41.16,50.818 40.974,51.08 40.698,51.128 C 40.233,51.208 39.769,51.274 39.302,51.341 C 38.771,51.415 38.237,51.492 37.697,51.589 C 37.421,51.636 37.156,51.456 37.106,51.179 C 37.056,50.902 37.239,50.637 37.516,50.588 C 38.069,50.488 38.615,50.41 39.159,50.332 C 39.617,50.268 40.072,50.203 40.526,50.126 C 40.555,50.122 40.584,50.119 40.613,50.119 C 40.855,50.119 41.071,50.293 41.113,50.541 Z M 35.721,54.704 C 35.721,55.762 34.866,56.617 33.816,56.617 C 32.756,56.617 31.902,55.755 31.902,54.704 C 31.902,53.652 32.756,52.798 33.816,52.798 C 34.866,52.798 35.721,53.652 35.721,54.704 Z M 26.672,53.978 C 26.611,54.907 22.847,55.355 23.03,53.978 C 23.213,52.54 26.903,52.486 26.672,53.978 Z M 19.584,56.935 C 19.584,57.939 18.764,58.754 17.759,58.754 C 16.756,58.754 15.934,57.939 15.934,56.935 C 15.934,55.925 16.756,55.11 17.759,55.11 C 18.764,55.11 19.584,55.925 19.584,56.935 Z" stroke-width="0.678" stroke-linejoin="miter" stroke="none" fill="#B36AE2" marker-start="none" marker-end="none" stroke-miterlimit="79.8403193612775"></path></g></g></g></svg>