<svg xmlns:xlink="http://www.w3.org/1999/xlink" xmlns="http://www.w3.org/2000/svg" stroke-width="0.501" stroke-linejoin="bevel" fill-rule="evenodd" version="1.1" overflow="visible" viewBox="0 0 75 75" x="0px" y="0px"><g fill="none" stroke="black" font-family="Times New Roman" font-size="16" transform="scale(1 -1)"><g transform="translate(0 -75)"><g><path d="M 73.701,45.837 C 73.24,45.966 72.785,46.109 72.332,46.252 C 71.657,46.465 70.958,46.676 70.248,46.847 C 70.368,47.738 70.398,48.638 70.374,49.594 C 70.363,50.034 70.322,50.486 70.258,50.942 C 70.044,51.175 69.692,51.25 69.485,51.268 C 68.807,51.332 68.005,51.074 67.587,50.66 C 67.54,50.613 67.484,50.575 67.424,50.549 C 67.357,50.521 67.31,50.479 67.271,50.414 C 67.172,50.251 66.996,50.159 66.817,50.159 C 66.724,50.159 66.629,50.184 66.543,50.236 C 66.293,50.388 66.213,50.713 66.364,50.964 C 66.5,51.188 66.683,51.359 66.909,51.478 C 67.559,52.075 68.621,52.41 69.582,52.325 C 69.733,52.311 69.874,52.282 70.012,52.247 C 69.369,54.95 67.919,57.747 65.987,59.869 C 65.387,60.533 64.58,61.161 63.588,61.741 C 61.154,63.17 57.982,64.093 55.667,64.768 C 55.294,64.877 54.94,64.978 54.612,65.078 C 52.993,65.554 52.34,65.827 52.028,66.165 C 51.328,66.833 50.818,68.262 50.278,69.773 C 49.538,71.849 48.703,74.186 47.428,74.186 C 47.358,74.186 47.285,74.179 47.213,74.163 C 45.804,73.882 40.875,66.882 38.841,62.275 C 38.831,62.252 38.819,62.229 38.805,62.209 C 37.679,60.401 36.938,58.526 36.22,56.713 C 35.134,53.968 34.196,51.598 32.236,50.433 C 29.737,48.948 28.298,48.882 26.122,48.786 C 25.002,48.735 23.608,48.673 21.713,48.398 C 12.946,47.13 6.549,41.844 4.315,37.469 C 2.604,34.729 1.032,28.976 0.93,25.12 C 0.702,16.466 2.768,10.733 7.84,5.952 C 12.602,1.465 21.221,-1.125 28.478,2.595 C 29.886,3.318 30.004,3.395 30.201,3.524 L 30.407,3.656 C 30.448,3.681 30.493,3.692 30.539,3.707 C 30.539,3.707 30.539,3.707 30.539,3.707 C 34.768,7.313 36.329,12.677 34.517,17.372 C 33.369,20.336 30.093,22.35 26.896,22.047 C 24.889,21.863 23.538,21.264 22.987,20.316 C 22.544,19.557 22.73,18.729 22.979,18.146 C 23.638,17.406 24.396,17.521 25.561,17.766 C 26.42,17.946 27.393,18.15 28.331,17.755 C 29.34,17.332 30.069,16.315 30.381,14.891 C 30.888,12.589 30.228,9.797 28.814,8.254 C 26.396,5.617 23.126,4.599 18.821,5.138 C 13.568,5.791 7.541,11.706 7.639,18.354 C 7.643,18.645 7.88,18.878 8.17,18.878 L 8.177,18.878 C 8.47,18.873 8.704,18.632 8.7,18.34 C 8.601,11.713 14.706,6.719 18.952,6.191 C 22.893,5.696 25.863,6.606 28.032,8.971 C 29.212,10.257 29.776,12.705 29.345,14.664 C 29.109,15.741 28.602,16.492 27.922,16.778 C 27.285,17.045 26.553,16.89 25.779,16.728 C 24.643,16.489 23.231,16.194 22.121,17.519 C 22.089,17.556 22.064,17.597 22.043,17.641 C 21.524,18.789 21.533,19.929 22.069,20.85 C 22.58,21.726 23.814,22.828 26.798,23.103 C 30.45,23.435 34.194,21.145 35.507,17.754 C 37.374,12.914 35.973,7.443 31.951,3.563 C 34.222,3.342 37.64,3.495 39.113,4.63 C 39.542,4.96 39.763,5.342 39.792,5.797 C 39.874,7.144 38.143,8.311 37.395,8.75 C 37.22,8.85 37.121,9.043 37.134,9.242 C 37.19,10.064 37.764,10.926 38.372,11.838 C 38.954,12.713 39.556,13.618 39.668,14.432 C 38.99,16.35 38.411,18.396 38.034,20.205 C 37.975,20.492 38.16,20.773 38.446,20.832 C 38.735,20.89 39.014,20.707 39.073,20.42 C 39.425,18.724 39.962,16.81 40.593,14.997 C 40.691,14.899 40.753,14.764 40.753,14.615 C 40.753,14.605 40.75,14.583 40.748,14.558 C 42.317,10.165 45.704,2.843 51.007,2.161 C 52.782,1.933 55.144,2.296 56.134,3.633 C 56.626,4.286 56.726,5.115 56.433,6.101 C 56.142,7.078 54.812,8.725 53.317,8.392 C 53.081,8.339 52.845,8.45 52.734,8.66 C 50.159,13.503 50.235,19.045 51.64,22.017 C 52.294,23.39 53.594,25.321 55.207,27.32 C 56.687,29.146 58.199,30.757 59.255,31.629 C 60.693,32.826 65.379,37.536 66.446,38.924 C 67.98,40.905 68.942,42.549 69.535,44.077 C 70.427,43.788 71.697,43.148 72.389,42.707 C 72.477,42.653 72.575,42.626 72.672,42.626 C 72.848,42.626 73.02,42.713 73.12,42.873 C 73.278,43.119 73.204,43.447 72.958,43.605 C 72.334,43.999 70.959,44.726 69.874,45.08 C 69.944,45.321 70.008,45.562 70.063,45.8 C 70.71,45.64 71.347,45.45 72.014,45.24 C 72.477,45.094 72.942,44.948 73.414,44.816 C 73.461,44.802 73.51,44.796 73.558,44.796 C 73.789,44.796 74.002,44.948 74.067,45.183 C 74.146,45.465 73.981,45.758 73.701,45.837 M 47.596,43.867 C 47.435,43.867 47.277,43.94 47.173,44.079 C 46.997,44.313 47.043,44.645 47.277,44.821 C 48.341,45.623 50.633,46.34 51.919,46.594 C 52.207,46.644 52.485,46.463 52.541,46.176 C 52.598,45.889 52.41,45.61 52.123,45.553 C 50.97,45.327 48.835,44.669 47.915,43.975 C 47.819,43.903 47.707,43.867 47.596,43.867 M 53.051,43.944 C 52.633,43.635 52.18,43.361 51.699,43.072 C 50.889,42.583 50.052,42.078 49.443,41.41 C 49.339,41.296 49.195,41.238 49.051,41.238 C 48.924,41.238 48.797,41.283 48.695,41.376 C 48.478,41.574 48.462,41.909 48.66,42.126 C 49.373,42.907 50.278,43.452 51.152,43.98 C 51.61,44.256 52.042,44.517 52.419,44.795 C 52.655,44.97 52.987,44.921 53.161,44.685 C 53.334,44.45 53.286,44.117 53.051,43.944 M 57.224,50.276 C 57.126,50.198 57.009,50.159 56.892,50.159 C 56.736,50.159 56.584,50.227 56.478,50.357 C 54.653,52.633 50.899,52.447 48.536,50.844 C 48.295,50.682 47.965,50.744 47.8,50.986 C 47.635,51.228 47.699,51.559 47.942,51.722 C 50.683,53.581 55.044,53.84 57.305,51.021 C 57.489,50.793 57.452,50.459 57.224,50.276 M 64.446,46.353 C 63.725,46.227 63.091,46.445 62.656,46.921 C 62.173,46.394 61.487,46.162 60.838,46.162 C 60.685,46.162 60.534,46.174 60.389,46.2 C 59.222,46.399 58.445,47.295 58.498,48.382 C 58.512,48.674 58.767,48.897 59.053,48.886 C 59.345,48.873 59.571,48.623 59.557,48.331 C 59.524,47.662 60.08,47.327 60.567,47.245 C 61.193,47.141 61.927,47.381 62.159,48.162 C 62.227,48.389 62.439,48.557 62.676,48.54 C 62.914,48.537 63.12,48.375 63.18,48.145 C 63.375,47.407 63.878,47.331 64.265,47.399 C 64.831,47.496 65.26,47.911 65.235,48.193 C 65.211,48.485 65.429,48.741 65.721,48.764 C 66.007,48.792 66.268,48.572 66.293,48.281 C 66.374,47.298 65.396,46.516 64.446,46.353 M 57.07,9.561 C 56.993,9.557 56.924,9.567 56.856,9.592 C 55.976,9.921 55.266,11.034 54.744,12.9 C 53.882,15.988 53.649,20.871 54.194,24.206 C 53.501,23.206 52.947,22.295 52.599,21.562 C 51.339,18.897 51.262,13.939 53.499,9.489 C 55.413,9.626 57.022,7.834 57.449,6.404 C 57.785,5.275 57.666,4.406 57.406,3.759 C 59.318,3.877 60.529,4.654 60.745,5.95 C 60.914,6.991 60.453,7.76 60.036,8.224 C 59.191,9.162 57.904,9.603 57.07,9.561 M 63.151,63.185 C 63.013,64.093 62.968,65.288 62.923,66.537 C 62.868,68.097 62.774,70.707 62.365,71.042 C 60.541,71.522 57.087,68.038 55.515,65.917 C 55.666,65.872 55.805,65.831 55.962,65.785 C 58.039,65.181 60.79,64.381 63.151,63.185 Z" fill="#000000" stroke-width="0.707" stroke-linejoin="miter" stroke="none" marker-start="none" marker-end="none" stroke-miterlimit="79.8403193612775"></path></g></g></g></svg>