<svg xmlns:xlink="http://www.w3.org/1999/xlink" xmlns="http://www.w3.org/2000/svg" stroke-width="0.501" stroke-linejoin="bevel" fill-rule="evenodd" version="1.1" overflow="visible" viewBox="0 0 75 75" x="0px" y="0px"><g fill="none" stroke="black" font-family="Times New Roman" font-size="16" transform="scale(1 -1)"><g transform="translate(0 -75)"><g><path d="M 67.193,-30.975 C 70.99,-29.784 74.985,-29.223 78.964,-29.324" fill="none" stroke="none" stroke-width="1" stroke-linejoin="miter" stroke-miterlimit="79.8403193612775"></path><path d="M 67.7,-33.336 C 71.046,-32.765 74.478,-32.697 77.844,-33.137" fill="none" stroke="none" stroke-width="1" stroke-linejoin="miter" stroke-miterlimit="79.8403193612775"></path><path d="M 16.33,-31.856 C 18.959,-31.438 21.679,-31.604 24.238,-32.338" fill="none" stroke="none" stroke-width="1" stroke-linejoin="miter" stroke-linecap="round" stroke-miterlimit="79.8403193612775"></path><path d="M 16.571,-34.746 C 19.146,-33.755 21.978,-33.437 24.709,-33.834" fill="none" stroke="none" stroke-width="1" stroke-linejoin="miter" stroke-linecap="round" stroke-miterlimit="79.8403193612775"></path><path d="M 57.346,11.809 C 56.809,12.113 56.39,12.59 55.946,13.094 C 55.318,13.809 54.668,14.548 53.607,14.911 C 53.18,15.054 52.632,15.219 52.009,15.404 C 49.053,16.288 44.104,17.767 43.301,19.94 C 43.265,20.035 43.197,20.107 43.114,20.156 C 42.777,21.59 43.027,24.02 43.388,25.017 C 43.466,25.239 43.352,25.482 43.131,25.562 C 42.908,25.643 42.664,25.527 42.585,25.306 C 42.203,24.243 41.921,21.819 42.242,20.166 C 40.932,20.13 39.08,20.432 38.166,20.71 L 37.888,20.794 C 36.463,21.223 34.847,21.709 32.973,22.802 C 32.871,22.861 32.755,22.871 32.65,22.844 C 32.405,23.052 32.144,23.263 31.885,23.47 C 31.569,23.723 31.232,23.991 30.948,24.246 C 31.073,24.231 31.201,24.22 31.329,24.22 C 32.326,24.22 33.377,24.658 34.086,25.298 C 35.16,26.269 35.373,27.544 34.655,28.709 C 34.532,28.909 34.27,28.971 34.068,28.848 C 33.868,28.725 33.807,28.462 33.929,28.262 C 34.603,27.169 33.958,26.332 33.514,25.93 C 32.65,25.149 31.077,24.745 30.205,25.414 C 30.017,25.558 29.749,25.522 29.606,25.334 C 29.508,25.207 29.499,25.042 29.561,24.904 C 29.509,24.786 29.505,24.65 29.573,24.528 C 29.874,23.985 30.591,23.411 31.353,22.804 C 31.783,22.461 32.227,22.105 32.541,21.791 C 32.625,21.709 32.734,21.666 32.843,21.666 L 32.843,21.667 C 33.066,21.241 33.065,20.73 32.968,20.349 C 32.81,19.728 32.396,19.273 31.915,19.188 C 30.602,18.954 25.266,20.65 23.565,23.015 C 23.088,23.681 22.967,24.312 23.203,24.936 C 23.81,24.6 24.483,24.295 25.034,24.227 C 25.052,24.225 25.069,24.224 25.087,24.224 C 25.299,24.224 25.482,24.382 25.509,24.597 C 25.539,24.831 25.372,25.044 25.138,25.073 C 24.576,25.143 23.595,25.625 22.514,26.365 C 22.461,26.402 22.402,26.422 22.342,26.432 C 21.785,26.926 21.122,27.564 20.972,27.773 C 20.948,27.84 20.907,27.901 20.853,27.95 C 17.89,30.615 16.732,34.994 17.412,40.967 C 17.617,42.756 18.207,44.726 19.118,46.663 C 19.835,48.178 20.727,49.621 21.698,50.842 C 21.735,50.875 21.766,50.914 21.79,50.957 C 22.454,51.783 23.137,52.487 23.822,53.045 C 28.245,56.656 35.382,58.131 41.175,56.627 C 45.724,55.447 48.635,52.898 53.069,47.976 C 54.249,46.663 55.897,44.987 57.492,43.859 C 55.845,43.488 54.49,42.794 53.018,41.935 C 52.199,43.213 49.639,46.849 47.869,47.299 C 47.483,47.397 47.141,47.355 46.85,47.172 C 45.024,46.017 44.657,37.245 45.407,35.479 C 45.476,35.317 45.633,35.22 45.799,35.22 C 45.855,35.22 45.911,35.231 45.966,35.253 C 46.183,35.345 46.284,35.595 46.192,35.812 C 45.47,37.511 46.117,45.7 47.304,46.45 C 47.336,46.471 47.433,46.531 47.659,46.474 C 49.136,46.098 51.873,42.261 52.502,41.147 C 52.558,41.047 52.653,40.975 52.764,40.945 C 52.875,40.914 52.991,40.931 53.09,40.99 C 54.993,42.113 56.627,42.992 58.885,43.235 C 58.954,43.242 59.014,43.267 59.068,43.302 C 60.582,43.535 60.954,43.526 61.991,43.498 L 62.41,43.487 C 62.623,43.491 62.799,43.628 62.839,43.831 C 62.975,44.526 63.063,45.211 63.146,45.873 C 63.379,47.704 63.567,48.819 64.234,48.858 C 65.755,48.96 67.039,46.183 67.735,44.701 C 67.92,44.305 68.066,43.995 68.19,43.783 C 68.69,42.933 69.229,42.074 69.75,41.244 C 71.948,37.748 74.22,34.134 74.355,29.833 C 74.36,29.696 74.36,29.559 74.36,29.426 C 74.326,24.355 70.732,19.519 65.995,18.165 C 65.941,18.175 65.885,18.175 65.826,18.163 C 63.905,17.756 61.888,17.644 59.992,17.84 C 58.142,18.029 56.474,18.5 55.035,19.245 C 53.958,19.797 53.022,20.507 52.252,21.357 C 52.094,21.53 51.824,21.543 51.65,21.385 C 51.475,21.228 51.462,20.957 51.62,20.784 C 52.46,19.858 53.477,19.085 54.644,18.486 C 56.154,17.706 57.892,17.211 59.81,17.006 C 59.816,17.003 59.821,16.998 59.827,16.996 C 60.812,16.706 61.856,14.998 62.107,13.696 C 62.088,13.641 62.075,13.583 62.081,13.524 C 62.142,12.939 61.869,12.443 61.269,12.052 C 60.187,11.346 58.354,11.233 57.346,11.809 Z M 62.929,13.928 C 62.727,14.879 62.167,16.076 61.404,16.905 C 61.55,16.902 61.696,16.894 61.843,16.894 C 63.163,16.894 64.502,17.031 65.805,17.292 C 66.168,16.292 66.091,15.366 65.569,14.718 C 65.017,14.035 64.049,13.76 62.929,13.928 Z M 48.212,22.556 C 49.245,23.535 51.475,24.272 52.657,24.462 C 52.89,24.499 53.048,24.718 53.01,24.951 C 52.972,25.183 52.751,25.342 52.522,25.304 C 51.197,25.091 48.802,24.289 47.626,23.175 C 47.455,23.013 47.447,22.744 47.609,22.572 C 47.692,22.484 47.806,22.44 47.918,22.44 C 48.024,22.44 48.129,22.478 48.212,22.556 Z M 47.217,24.862 C 48.42,25.61 50.562,26.026 52.092,25.808 C 52.327,25.777 52.541,25.937 52.574,26.169 C 52.607,26.402 52.445,26.619 52.212,26.651 C 50.48,26.897 48.141,26.44 46.768,25.586 C 46.567,25.462 46.506,25.199 46.631,24.999 C 46.71,24.869 46.85,24.798 46.993,24.798 C 47.07,24.798 47.147,24.818 47.217,24.862 Z M 67.086,28.094 C 66.54,28.872 65.296,28.804 64.467,28.656 C 64.341,28.565 64.153,28.486 63.955,28.395 C 63.5,28.184 63.011,27.923 63.188,27.378 C 63.858,26.435 66.989,26.765 67.086,28.094 Z M 59.823,28.469 C 60.046,29.333 59.233,30.316 58.011,30.657 C 56.789,30.998 55.619,30.571 55.402,29.702 C 55.181,28.838 55.993,27.855 57.215,27.514 C 58.437,27.173 59.602,27.6 59.823,28.469 Z M 71.768,30.02 C 72.66,30.781 72.933,31.895 72.377,32.509 C 71.825,33.123 70.655,33.004 69.768,32.242 C 68.882,31.481 68.609,30.367 69.16,29.753 C 69.711,29.139 70.882,29.258 71.768,30.02 Z M 11.308,52.236 C 11.117,52.944 11.096,53.746 11.073,54.593 C 11.021,56.527 10.962,58.719 8.609,59.882 C 7.561,60.401 5.647,59.24 5.431,59.107 C 4.507,58.528 4.156,57.811 3.875,57.235 C 3.616,56.706 3.462,56.424 3.075,56.282 C 2.364,56.024 1.36,56.063 1.053,56.53 C 0.194,57.833 0.718,59.856 2.243,61.134 C 4.337,62.88 6.888,63.773 9.068,63.517 C 10.693,63.33 12.036,62.539 13.063,61.172 C 14.359,59.441 14.488,57.6 14.602,55.976 C 14.71,54.446 14.811,53 15.844,51.921 C 17.137,50.567 18.633,50.332 20.421,50.56 C 19.725,49.587 19.088,48.514 18.535,47.396 C 18.48,47.41 18.421,47.413 18.362,47.401 C 15.292,46.842 12.193,48.964 11.308,52.236 Z" fill="#000000" stroke-width="0.569" stroke-linejoin="miter" stroke="none" marker-start="none" marker-end="none" stroke-miterlimit="79.8403193612775"></path></g></g></g></svg>