<svg xmlns:xlink="http://www.w3.org/1999/xlink" xmlns="http://www.w3.org/2000/svg" stroke-width="0.501" stroke-linejoin="bevel" fill-rule="evenodd" version="1.1" overflow="visible" viewBox="0 0 75 75" x="0px" y="0px"><g fill="none" stroke="black" font-family="Times New Roman" font-size="16" transform="scale(1 -1)"><g transform="translate(0 -75)"><g><path d="M 20.858,6.35 C 13.769,9.992 8.092,17.663 5.817,23.25 C 5.815,23.257 5.812,23.263 5.81,23.269 C 3.524,28.354 3.181,36.511 4.956,43.564 C 6.024,47.785 9.4,53.052 11.591,54.768 C 12.962,55.842 15.22,56.742 17.097,56.742 C 17.559,56.742 17.998,56.687 18.396,56.567 C 19.303,56.292 19.888,55.722 20.184,54.825 C 20.815,52.908 18.605,50.757 16.656,48.86 C 15.556,47.791 14.519,46.78 13.958,45.812 C 10.275,39.475 9.947,31.711 13.036,23.949 C 13.721,22.24 14.63,21.132 15.432,20.155 C 15.657,19.881 15.879,19.612 16.088,19.337 C 16.272,19.095 16.616,19.046 16.86,19.225 C 17.106,19.403 17.163,19.745 16.99,19.994 C 15.594,22 14.593,26.219 15.387,29.067 C 15.751,30.368 16.277,31.414 16.786,32.427 C 17.398,33.644 17.976,34.795 18.109,36.192 C 18.109,37.268 17.446,37.636 17.089,37.834 C 17.017,37.875 16.927,37.917 16.907,37.927 C 16.847,38.076 16.726,38.191 16.573,38.244 C 16.383,38.311 15.881,38.91 15.812,39.72 C 15.75,40.435 16.056,40.984 16.72,41.352 C 17.699,41.894 18.664,42.009 19.591,41.694 C 20.687,41.321 21.391,40.462 21.661,39.839 C 22.715,37.411 23.6,33.399 23.623,32.309 C 22,30.42 19.406,26.586 20.821,22.571 C 20.902,22.342 21.117,22.198 21.347,22.198 C 21.409,22.198 21.471,22.209 21.533,22.23 C 21.823,22.333 21.976,22.652 21.874,22.942 C 20.404,27.114 24.057,31.228 25.211,32.389 C 25.298,32.476 25.34,32.585 25.357,32.699 C 25.925,33.331 26.895,34.409 27.512,34.905 C 27.982,34.425 28.656,34.09 29.366,34.024 C 29.457,34.016 29.546,34.012 29.634,34.012 C 30.261,34.012 30.828,34.221 31.253,34.613 C 31.479,34.821 31.494,35.175 31.284,35.401 C 31.075,35.628 30.722,35.642 30.496,35.432 C 30.16,35.124 29.707,35.113 29.469,35.136 C 29.007,35.179 28.55,35.398 28.266,35.707 C 28.235,35.828 28.165,35.961 28.048,36.09 C 27.758,37.499 28.03,38.772 28.84,39.7 C 29.651,40.63 30.877,41.07 32.205,40.907 C 32.427,40.883 32.641,40.985 32.754,41.176 C 32.867,41.367 32.856,41.606 32.728,41.786 C 32.1,42.66 31.509,44.275 31.005,46.306 C 30.071,46.12 28.431,45.523 27.637,45.073 C 27.55,45.023 27.455,45 27.361,45 C 27.167,45 26.979,45.101 26.876,45.282 C 26.724,45.55 26.817,45.891 27.085,46.044 C 27.962,46.542 29.698,47.176 30.752,47.394 C 30.708,47.593 30.666,47.795 30.624,48 L 30.629,48 L 30.499,48.007 C 29.234,48.069 28.039,48.128 26.891,47.726 C 26.83,47.704 26.767,47.694 26.706,47.694 C 26.476,47.694 26.26,47.837 26.179,48.067 C 26.077,48.358 26.231,48.677 26.522,48.779 C 27.827,49.237 29.084,49.193 30.408,49.129 C 29.369,54.89 28.998,62.353 30.074,66.635 C 30.501,68.336 31.04,69.012 31.451,69.271 C 33.293,69.129 35.576,65.157 36.412,63.205 C 36.525,62.942 36.817,62.808 37.092,62.892 C 40.36,63.917 46.487,65.44 49.026,65.162 C 49.31,65.132 49.558,65.309 49.627,65.577 C 49.837,66.389 49.957,67.383 50.085,68.435 C 50.381,70.863 50.715,73.616 52.148,73.816 C 54.678,73.942 58.428,67.102 60.917,62.562 C 61.394,61.692 61.844,60.871 62.259,60.141 C 62.567,59.601 62.871,59.072 63.171,58.551 C 63.801,57.456 64.413,56.391 64.998,55.324 C 65.016,55.529 65.147,55.715 65.352,55.795 C 65.828,55.981 66.276,56.199 66.708,56.41 C 67.419,56.758 68.155,57.116 69.045,57.348 C 69.343,57.427 69.649,57.247 69.726,56.949 C 69.804,56.65 69.626,56.346 69.327,56.268 C 68.544,56.064 67.891,55.745 67.198,55.407 C 66.745,55.186 66.276,54.957 65.757,54.755 C 65.691,54.729 65.622,54.717 65.554,54.717 C 65.462,54.717 65.373,54.739 65.292,54.782 C 65.501,54.395 65.705,54.007 65.906,53.617 C 66.018,53.743 66.184,53.812 66.359,53.8 C 66.396,53.818 66.436,53.831 66.477,53.841 C 67.827,54.135 69.151,54.418 70.519,54.656 C 70.824,54.71 71.112,54.506 71.165,54.202 C 71.218,53.899 71.014,53.609 70.711,53.556 C 69.411,53.33 68.144,53.061 66.854,52.779 C 66.734,52.701 66.594,52.66 66.445,52.66 C 66.425,52.66 66.405,52.66 66.385,52.661 C 67.958,49.444 69.245,45.945 70.036,41.285 C 70.905,34.552 71.049,24.857 66.793,16.909 C 63.455,10.679 57.587,5.529 51.096,3.133 C 41.85,-0.287 31.676,0.797 20.858,6.35 Z M 31.804,13.872 C 35.251,14.924 36.769,17.843 36.721,20.109 C 36.679,22.074 35.553,23.533 33.707,24.012 C 33.524,24.059 33.4,24.163 33.307,24.349 C 32.798,25.36 33.379,28.127 34.86,31.755 C 35.16,32.501 34.977,33.484 34.783,34.524 C 34.39,36.625 34.257,38.05 35.916,38.676 C 37.325,39.205 38.418,38.911 39.258,37.775 C 41.128,35.248 40.986,29.483 39.787,27.929 C 39.636,27.731 39.632,27.458 39.779,27.258 C 39.926,27.057 40.189,26.979 40.42,27.063 C 41.85,27.582 43.821,27.251 45.971,26.131 C 49.395,24.346 52.518,20.971 53.236,18.281 C 53.316,17.983 53.621,17.808 53.92,17.886 C 54.217,17.966 54.395,18.271 54.315,18.569 C 53.511,21.578 50.219,25.174 46.487,27.12 C 45.077,27.856 43.135,28.592 41.256,28.391 C 42.19,31.06 41.928,36.043 40.156,38.439 C 39.027,39.965 37.38,40.42 35.522,39.72 C 32.864,38.718 33.338,36.176 33.685,34.32 C 33.841,33.482 34.003,32.615 33.825,32.175 C 32.66,29.319 31.45,25.556 32.309,23.848 C 32.548,23.374 32.935,23.057 33.428,22.931 C 34.78,22.58 35.574,21.543 35.604,20.085 C 35.645,18.166 34.241,15.784 31.477,14.94 C 31.183,14.85 31.017,14.538 31.107,14.243 C 31.18,14.003 31.401,13.848 31.64,13.848 C 31.695,13.848 31.75,13.856 31.804,13.872 Z M 53.256,31.639 C 54.24,31.828 54.968,32.422 55.611,32.946 C 56.546,33.709 57.283,34.312 58.678,33.919 C 58.976,33.835 59.284,34.009 59.367,34.306 C 59.45,34.603 59.277,34.911 58.98,34.995 C 57.028,35.543 55.9,34.623 54.905,33.811 C 54.313,33.328 53.753,32.871 53.045,32.735 C 52.041,32.542 51.297,32.746 50.829,33.34 C 50.175,34.171 50.111,35.746 50.682,37.004 C 51.204,38.159 52.439,39.104 53.984,39.532 C 55.884,40.057 57.928,39.739 59.456,38.68 C 59.709,38.505 60.058,38.567 60.233,38.82 C 60.409,39.074 60.346,39.422 60.093,39.597 C 58.295,40.843 55.899,41.222 53.687,40.607 C 51.797,40.085 50.331,38.939 49.665,37.464 C 49.028,36.061 48.923,33.956 49.953,32.649 C 50.372,32.116 51.111,31.548 52.352,31.548 C 52.628,31.548 52.928,31.576 53.256,31.639 Z M 45.426,46.577 C 46.235,46.857 46.824,47.369 47.11,47.984 C 47.621,47.659 48.231,47.476 48.849,47.476 C 49.118,47.476 49.387,47.51 49.649,47.581 C 50.753,47.878 51.452,48.747 51.519,49.905 C 51.537,50.213 51.303,50.477 50.995,50.495 C 50.675,50.521 50.423,50.279 50.405,49.97 C 50.352,49.06 49.726,48.757 49.359,48.658 C 48.571,48.447 47.667,48.759 47.22,49.383 C 47.15,49.662 47.04,49.932 46.865,50.196 C 46.716,50.418 46.431,50.505 46.185,50.401 C 45.939,50.299 45.8,50.035 45.853,49.774 C 45.912,49.485 46.027,49.216 46.174,48.961 C 46.259,48.298 45.638,47.832 45.061,47.633 C 44.413,47.409 43.581,47.446 43.315,47.956 C 43.172,48.23 42.835,48.334 42.562,48.193 C 42.289,48.05 42.182,47.713 42.325,47.44 C 42.681,46.757 43.424,46.38 44.297,46.38 C 44.657,46.38 45.04,46.444 45.426,46.577 Z M 34.427,49.231 C 35.096,50.289 36.156,51.018 37.411,51.282 C 38.861,51.588 40.437,51.262 41.734,50.39 C 41.99,50.218 42.337,50.286 42.509,50.542 C 42.681,50.798 42.613,51.145 42.357,51.317 C 40.811,52.356 38.925,52.741 37.181,52.375 C 35.628,52.047 34.314,51.143 33.484,49.827 C 33.319,49.566 33.396,49.222 33.657,49.057 C 33.75,48.998 33.853,48.971 33.955,48.971 C 34.14,48.971 34.321,49.062 34.427,49.231 Z M 50.269,52.24 C 50.664,53.152 51.585,53.83 52.863,54.148 C 54.502,54.556 56.327,54.254 57.401,53.394 C 57.643,53.203 57.994,53.242 58.187,53.482 C 58.379,53.723 58.34,54.074 58.099,54.266 C 56.746,55.349 54.584,55.727 52.593,55.231 C 50.97,54.828 49.781,53.922 49.244,52.683 C 49.121,52.401 49.252,52.072 49.535,51.949 C 49.607,51.918 49.682,51.903 49.756,51.903 C 49.972,51.903 50.177,52.028 50.269,52.24 Z" fill="#000000" stroke-width="0.744" stroke-linejoin="miter" stroke="none" marker-start="none" marker-end="none" stroke-miterlimit="79.8403193612775"></path></g></g></g></svg>