<svg fill="#B36AE2" xmlns:xlink="http://www.w3.org/1999/xlink" xmlns="http://www.w3.org/2000/svg" stroke-width="0.501" stroke-linejoin="bevel" fill-rule="evenodd" version="1.1" overflow="visible" viewBox="0 0 75 75" x="0px" y="0px"><g fill="none" stroke="black" font-family="Times New Roman" font-size="16" transform="scale(1 -1)"><g transform="translate(0 -75)"><g><path d="M 46.162,0.392 C 45.303,0.827 44.717,1.997 44.632,3.444 C 44.501,5.625 46.425,7.932 48.36,8.902 C 49.046,9.244 49.724,9.556 50.382,9.858 C 52.268,10.728 54.052,11.549 55.343,12.786 C 57.26,14.619 57.642,17.248 56.45,20.387 C 55.866,21.907 53.261,23.436 52.824,23.479 C 52.785,23.489 52.743,23.495 52.7,23.495 C 52.68,23.495 52.655,23.483 52.634,23.481 C 52.214,23.65 51.815,23.753 51.43,23.849 C 51.103,23.931 50.793,24.008 50.472,24.126 C 50.241,24.213 49.987,24.092 49.904,23.863 C 49.82,23.632 49.937,23.379 50.168,23.294 C 50.533,23.16 50.88,23.073 51.216,22.989 C 51.3,22.968 51.381,22.944 51.464,22.924 C 51.244,22.792 51.003,22.649 50.716,22.474 C 49.914,21.989 49.004,21.438 48.485,21.216 C 45.861,20.101 43.102,19.763 40.501,19.512 C 38.263,19.298 35.665,19.471 33.578,19.61 C 33.214,19.635 32.866,19.659 32.537,19.679 C 28.138,19.947 27.035,20.92 26.589,21.63 C 26.363,21.99 26.326,22.538 26.493,23.059 C 26.666,23.6 27.036,24.03 27.512,24.279 C 28.547,23.783 29.932,23.166 30.87,23.024 C 30.893,23.021 30.916,23.019 30.939,23.019 C 31.153,23.019 31.342,23.176 31.376,23.396 C 31.412,23.637 31.246,23.864 31.004,23.9 C 30.097,24.038 28.549,24.763 27.843,25.102 C 27.776,25.167 27.69,25.214 27.593,25.226 C 26.917,25.559 22.75,28.645 22.391,29.184 L 22.103,29.597 C 22.066,29.651 22.015,29.687 21.961,29.715 C 21.099,30.722 20.007,32.219 19.406,33.43 C 19.298,33.649 19.031,33.738 18.812,33.63 C 18.592,33.522 18.502,33.256 18.611,33.036 C 19.286,31.676 20.441,30.127 21.288,29.138 C 21.121,24.938 19.751,22.343 17.098,21.217 C 16.056,20.777 14.455,20.774 13.69,21.534 C 13.209,22.017 13.018,22.674 13.205,23.208 C 13.362,23.661 13.764,23.947 14.336,24.015 C 14.669,24.053 14.815,24.238 14.961,24.426 C 16.428,26.241 16.529,31.833 16.584,34.837 C 16.598,35.577 16.609,36.162 16.635,36.419 C 16.639,36.452 16.639,36.486 16.635,36.52 C 16.613,36.707 16.509,36.932 16.322,37.342 C 15.612,38.89 13.951,42.517 14.149,49.292 C 14.234,52.194 14.564,54.923 15.131,57.405 C 15.769,60.174 17.175,64.213 18.177,66.608 C 20.408,71.97 22.334,74.8 23.029,74.8 C 23.04,74.8 23.052,74.798 23.063,74.797 C 23.856,74.635 24.319,72.124 24.517,71.051 C 24.528,70.99 24.538,70.935 24.549,70.877 C 24.061,70.78 23.456,70.617 23.166,70.512 C 22.937,70.428 22.818,70.174 22.901,69.943 C 22.967,69.763 23.136,69.651 23.317,69.651 C 23.368,69.651 23.419,69.66 23.47,69.678 C 23.838,69.813 24.74,70.036 25.094,70.067 C 25.18,70.075 25.254,70.112 25.318,70.161 C 28.464,70.346 31.983,69.493 33.914,68.086 C 33.667,67.738 33.448,67.313 33.263,66.952 L 33.192,66.817 C 33.08,66.6 33.164,66.333 33.381,66.219 C 33.447,66.186 33.516,66.17 33.585,66.17 C 33.745,66.17 33.9,66.257 33.979,66.408 L 34.05,66.547 C 34.261,66.955 34.551,67.516 34.817,67.797 C 34.897,67.881 34.935,67.989 34.936,68.096 C 35.243,68.329 35.572,68.616 35.915,68.918 C 36.812,69.707 37.922,70.688 38.763,70.653 C 39.346,70.239 39.3,66.826 39.28,65.349 L 39.272,64.714 C 39.272,64.658 39.281,64.605 39.301,64.552 C 40.328,61.852 40.393,58.841 39.913,56.455 C 39.926,56.457 39.939,56.457 39.952,56.457 C 40.71,56.457 41.419,56.208 41.987,56.065 C 42.168,56.02 42.329,55.98 42.458,55.95 C 42.696,55.894 42.845,55.657 42.789,55.418 C 42.742,55.214 42.56,55.075 42.358,55.075 C 42.325,55.075 42.29,55.078 42.257,55.086 C 42.125,55.117 41.958,55.158 41.772,55.205 C 41.189,55.351 40.311,55.571 39.952,55.571 C 39.867,55.571 39.787,55.594 39.72,55.635 C 39.632,55.311 39.533,55.002 39.426,54.711 C 39.937,54.671 40.661,54.15 41.072,53.919 C 41.322,53.779 41.283,53.919 41.467,53.873 C 41.705,53.814 41.848,53.572 41.788,53.335 C 41.737,53.134 41.556,53 41.359,53 C 41.323,53 41.286,53.004 41.25,53.013 C 40.951,53.088 40.652,53.258 40.361,53.421 C 40.014,53.617 39.654,53.82 39.361,53.827 C 39.257,53.829 39.163,53.867 39.09,53.928 C 39.083,53.916 39.077,53.904 39.071,53.892 C 38.831,53.414 38.498,52.944 38.145,52.445 C 37.479,51.506 36.791,50.534 36.628,49.366 C 36.561,48.891 36.533,48.012 37.098,47.484 C 39.725,45.065 45.446,45.601 47.121,46.058 C 47.301,46.107 47.43,46.264 47.445,46.451 C 47.49,47.006 47.584,47.912 47.699,49.036 C 48.016,52.127 48.497,56.797 48.606,60.387 C 48.683,62.967 48.771,65.891 50.662,67.247 C 51.453,67.818 53.007,67.924 53.633,67.225 C 54.538,66.224 54.222,65.091 53.537,63.011 C 53.374,62.521 53.201,61.998 53.039,61.434 C 52.494,59.553 53.885,53.471 55.908,45.084 C 56.893,41 57.824,37.142 57.911,35.696 C 58.015,33.874 57.658,29.453 56.924,27.652 C 56.312,28.194 55.871,28.827 55.586,29.318 C 55.462,29.53 55.191,29.602 54.979,29.478 C 54.767,29.356 54.696,29.083 54.819,28.872 C 55.25,28.131 56,27.1 57.125,26.396 C 57.171,26.369 57.22,26.352 57.27,26.342 C 57.351,26.282 57.431,26.222 57.517,26.158 C 58.388,25.514 59.474,24.71 60.048,23.804 C 61.267,21.876 62.107,20.328 61.803,17.967 C 61.257,13.66 60.084,11.705 58.112,9.602 C 56.342,7.712 52.677,6.449 51.134,5.975 C 48.588,4.85 48.686,3.666 49.03,2.45 C 49.238,1.72 49.361,1.278 48.501,0.721 C 47.639,0.166 46.831,0.053 46.162,0.392 Z M 33.44,33.884 C 33.773,35.433 36.143,38.95 37.512,39.627 C 37.732,39.736 37.822,40.002 37.713,40.222 C 37.604,40.441 37.337,40.531 37.119,40.423 C 35.47,39.608 32.963,35.885 32.573,34.071 C 32.522,33.831 32.674,33.596 32.913,33.545 C 32.944,33.538 32.976,33.535 33.006,33.535 C 33.211,33.535 33.395,33.676 33.44,33.884 Z M 29.096,36.607 C 30.205,38.93 32.768,40.941 34.626,41.959 C 34.841,42.077 34.919,42.346 34.802,42.561 C 34.684,42.776 34.414,42.854 34.199,42.738 C 32.226,41.656 29.496,39.502 28.297,36.988 C 28.191,36.768 28.285,36.503 28.507,36.398 C 28.568,36.368 28.632,36.354 28.697,36.354 C 28.862,36.354 29.021,36.447 29.096,36.607 Z M 25.652,40.247 C 26.693,41.57 28.939,43.521 31.844,44.666 C 32.071,44.756 32.184,45.013 32.094,45.242 C 32.005,45.469 31.746,45.58 31.519,45.492 C 28.449,44.282 26.064,42.205 24.956,40.796 C 24.804,40.603 24.838,40.325 25.03,40.173 C 25.111,40.109 25.208,40.078 25.304,40.078 C 25.435,40.078 25.565,40.137 25.652,40.247 Z" fill="#B36AE2" stroke-width="0.591" stroke-linejoin="miter" stroke="none" marker-start="none" marker-end="none" stroke-miterlimit="79.8403193612775"></path></g></g></g></svg>