<svg fill="#B36AE2" xmlns:xlink="http://www.w3.org/1999/xlink" xmlns="http://www.w3.org/2000/svg" stroke-width="0.501" stroke-linejoin="bevel" fill-rule="evenodd" version="1.1" overflow="visible" viewBox="0 0 75 75" x="0px" y="0px"><g fill="none" stroke="black" font-family="Times New Roman" font-size="16" transform="scale(1 -1)"><g transform="translate(0 -75)"><g><path d="M 33.713,1.304 C 32.655,1.663 30.37,3.318 29.965,4.838 C 29.831,5.334 29.925,5.754 30.248,6.123 C 30.57,6.49 30.896,6.676 31.217,6.676 L 31.223,6.676 C 31.629,6.673 32.096,6.374 32.573,5.811 C 33.525,4.687 35.183,4.339 35.365,4.331 C 38.683,4.009 40.251,5.249 40.774,8.617 C 41.005,10.121 39.991,12.805 38.688,14.137 C 38.313,14.523 37.925,14.779 37.541,14.909 C 37.527,14.92 37.518,14.935 37.503,14.943 C 36.649,15.45 35.953,16.304 35.589,16.935 C 35.479,17.124 35.238,17.189 35.048,17.079 C 34.859,16.969 34.795,16.727 34.904,16.539 C 35.2,16.03 35.688,15.392 36.299,14.856 C 32.568,13.729 28.924,14.303 26,16.5 C 22.204,19.344 19.452,25.584 19.991,30.126 C 20.125,31.279 21.153,32.816 22.07,33.592 C 22.263,31.924 23.136,29.187 23.603,28.392 C 23.677,28.267 23.81,28.196 23.945,28.196 C 24.013,28.196 24.082,28.215 24.144,28.251 C 24.332,28.362 24.396,28.604 24.285,28.792 C 23.744,29.713 22.684,33.363 22.834,34.383 C 22.846,34.463 22.827,34.537 22.794,34.605 C 22.816,35.1 22.78,35.908 22.724,37.085 C 22.65,38.652 22.566,40.427 22.677,41.431 C 23.679,50.666 25.757,54.284 29.652,60.389 C 30.219,61.28 30.868,62.131 31.547,62.936 C 31.173,63.091 30.742,63.344 30.351,63.575 C 30.189,63.671 30.034,63.762 29.897,63.837 C 29.706,63.943 29.637,64.184 29.742,64.374 C 29.848,64.565 30.088,64.636 30.278,64.53 C 30.422,64.45 30.584,64.355 30.752,64.255 C 31.195,63.995 31.747,63.669 32.066,63.594 C 32.081,63.59 32.094,63.586 32.108,63.581 C 32.267,63.759 32.426,63.936 32.587,64.109 C 32.375,64.232 32.15,64.404 31.907,64.588 C 31.653,64.782 31.392,64.982 31.216,65.061 C 31.017,65.152 30.929,65.386 31.019,65.585 C 31.11,65.783 31.343,65.871 31.541,65.782 C 31.799,65.665 32.085,65.448 32.386,65.218 C 32.621,65.038 33.011,64.741 33.154,64.711 C 33.653,65.229 34.148,65.721 34.626,66.187 C 34.65,66.211 34.671,66.238 34.689,66.267 C 35.088,66.93 35.444,67.624 35.788,68.294 C 36.634,69.945 37.434,71.503 38.815,72.622 C 39.189,72.927 39.399,72.874 39.467,72.856 C 39.65,72.81 40.014,72.586 40.413,71.615 C 40.43,71.572 40.463,71.542 40.493,71.509 C 41.073,69.8 41.232,68.44 41.349,66.228 C 41.359,66.012 41.541,65.833 41.758,65.855 C 42.383,65.877 43.024,65.726 43.539,65.603 C 43.877,65.524 44.144,65.462 44.37,65.452 C 44.397,65.444 44.42,65.427 44.448,65.424 C 46.119,65.235 47.424,64.593 48.685,63.973 C 48.943,63.847 49.195,63.723 49.446,63.605 C 49.56,63.551 49.693,63.555 49.802,63.615 C 50.646,64.07 51.13,64.438 51.689,64.862 C 51.929,65.044 52.189,65.24 52.516,65.472 C 52.662,65.493 52.784,65.513 52.891,65.531 C 53.107,65.569 53.277,65.598 53.604,65.617 C 53.959,65.636 54.081,65.519 54.145,65.414 C 54.77,64.402 53.031,60.385 51.658,57.99 C 51.616,57.914 51.599,57.827 51.61,57.743 C 51.708,56.967 51.797,56.051 51.59,54.962 C 51.519,54.545 51.403,54.118 51.235,53.66 C 51.16,53.455 51.266,53.227 51.471,53.153 C 51.516,53.136 51.561,53.129 51.606,53.129 C 51.768,53.129 51.918,53.229 51.978,53.389 C 52.106,53.742 52.198,54.075 52.275,54.4 C 52.294,54.393 52.31,54.387 52.33,54.38 C 53.056,54.101 53.276,54.03 53.427,54.03 C 53.432,54.03 53.438,54.03 53.444,54.031 C 53.661,54.038 53.853,54.22 53.846,54.439 C 53.839,54.657 53.67,54.82 53.458,54.818 C 53.34,54.838 52.831,55.034 52.614,55.117 C 52.537,55.147 52.474,55.171 52.419,55.192 C 52.45,55.415 52.475,55.634 52.487,55.843 C 52.77,55.775 53.048,55.751 53.321,55.751 C 53.479,55.751 53.637,55.758 53.793,55.764 L 53.756,56.553 C 53.295,56.533 52.891,56.526 52.495,56.67 C 52.479,57.039 52.45,57.39 52.409,57.711 C 52.911,58.607 55.895,64.084 54.817,65.829 C 54.641,66.115 54.284,66.443 53.559,66.407 C 53.384,66.396 53.249,66.383 53.13,66.368 C 54.163,68.391 55.627,71.029 57.082,70.504 C 58.483,69.992 57.271,62.701 55.26,56.214 C 55.055,55.556 54.726,54.794 54.307,54.009 C 53.018,51.574 51.158,49.3 50.104,48.509 L 50.109,48.502 C 49.141,47.956 46.871,44.911 46.348,43.774 C 45.692,42.352 44.866,39.388 44.876,37.473 C 44.336,37.34 43.889,36.963 43.571,36.361 C 42.845,34.983 42.947,32.774 43.52,31.792 C 43.593,31.665 43.725,31.596 43.861,31.596 C 43.929,31.596 43.997,31.613 44.059,31.649 C 44.249,31.759 44.312,32.001 44.203,32.19 C 43.754,32.959 43.696,34.903 44.27,35.991 C 44.513,36.452 44.834,36.7 45.222,36.731 C 45.553,36.639 45.771,36.415 46.065,36.104 C 46.202,35.958 46.349,35.804 46.519,35.65 C 50.172,32.324 51.644,25.781 49.67,21.65 C 48,18.169 45.813,17.767 43.884,17.413 C 43.354,17.316 42.852,17.22 42.389,17.066 L 42.341,17.11 C 41.826,17.555 41.57,17.779 41.117,18.523 C 41.004,18.71 40.761,18.769 40.573,18.655 C 40.387,18.542 40.328,18.299 40.441,18.112 C 40.957,17.262 41.284,16.98 41.823,16.513 L 41.825,16.511 C 41.845,16.406 41.892,16.309 41.983,16.25 C 44.486,14.591 45.105,9.618 44.113,6.014 C 43.58,4.096 42.399,2.606 40.692,1.708 C 38.674,0.646 36.064,0.495 33.713,1.304 Z M 28.467,39.731 C 29.696,40.572 33.634,40.527 35.095,39.846 C 35.295,39.753 35.529,39.84 35.62,40.037 C 35.713,40.235 35.626,40.471 35.428,40.564 C 33.712,41.363 29.515,41.406 28.02,40.384 C 27.84,40.26 27.794,40.014 27.917,39.834 C 27.995,39.723 28.119,39.662 28.245,39.662 C 28.322,39.662 28.399,39.685 28.467,39.731 Z M 36.531,44.028 C 36.611,44.232 36.51,44.46 36.307,44.539 C 33.109,45.79 30.999,45.563 27.822,45.09 C 27.606,45.057 27.457,44.857 27.489,44.64 C 27.522,44.425 27.725,44.279 27.939,44.307 C 31.078,44.776 33.002,44.983 36.019,43.804 C 36.066,43.786 36.115,43.776 36.164,43.776 C 36.322,43.776 36.47,43.872 36.531,44.028 Z M 37.651,47.782 C 37.752,47.975 37.678,48.215 37.484,48.316 C 35.103,49.56 33.114,49.932 30.156,49.687 C 29.937,49.67 29.776,49.478 29.795,49.261 C 29.812,49.044 30.007,48.879 30.22,48.9 C 33.053,49.134 34.857,48.797 37.118,47.614 C 37.176,47.585 37.238,47.571 37.3,47.571 C 37.444,47.571 37.581,47.647 37.651,47.782 Z M 43.721,66.373 C 43.261,66.482 42.706,66.613 42.117,66.641 C 42.004,68.611 41.823,69.992 41.29,71.61 C 43.802,73.113 46.147,74.079 47.607,74.195 C 48.481,74.264 49.591,74.109 49.962,73.601 C 50.022,73.521 50.2,73.278 49.994,72.733 C 49.693,72.411 47.517,70.498 46.139,69.363 C 45.021,68.442 44.639,67.358 44.359,66.568 C 44.321,66.459 44.285,66.356 44.249,66.26 C 44.102,66.284 43.917,66.326 43.721,66.373 Z" fill="#B36AE2" stroke-width="0.526" stroke-linejoin="miter" stroke="none" marker-start="none" marker-end="none" stroke-miterlimit="79.8403193612775"></path></g></g></g></svg>