<svg fill="#B36AE2" xmlns:xlink="http://www.w3.org/1999/xlink" xmlns="http://www.w3.org/2000/svg" stroke-width="0.501" stroke-linejoin="bevel" fill-rule="evenodd" version="1.1" overflow="visible" viewBox="0 0 75 75" x="0px" y="0px"><g fill="none" stroke="black" font-family="Times New Roman" font-size="16" transform="scale(1 -1)"><g transform="translate(0 -75)"><g><path d="M 13.592,1.254 C 12.619,1.903 12.063,2.806 12.177,3.553 C 12.293,4.311 13.103,4.949 14.459,5.348 C 14.68,5.413 14.831,5.615 14.832,5.844 C 14.84,8.063 13.212,10.792 11.795,12.923 C 9.569,16.251 10.553,19.213 11.773,21.111 C 11.872,21.264 11.882,21.459 11.801,21.623 C 11.397,22.443 10.952,23.29 10.51,24.132 C 9.677,25.717 8.816,27.356 8.296,28.712 C 6.825,32.552 6.106,35.858 5.971,39.423 C 5.897,43.711 6.45,47.677 7.712,51.902 C 10.312,60.632 17.408,67.513 28.793,72.352 C 31.711,73.517 34.627,74.533 36.821,74.533 C 37.606,74.533 38.299,74.403 38.866,74.103 C 39.733,73.662 39.99,73.199 39.728,72.552 C 39.35,71.616 37.765,71.168 36.087,70.696 C 33.591,69.993 30.761,69.196 30.281,66.41 C 30.251,66.232 30.312,66.054 30.445,65.932 C 30.632,65.765 33.132,64.288 34.328,63.707 C 34.35,63.61 34.39,63.517 34.468,63.443 L 35.656,62.324 C 35.757,62.231 35.885,62.184 36.012,62.184 C 36.151,62.184 36.289,62.239 36.392,62.349 C 36.589,62.558 36.577,62.887 36.368,63.085 L 35.621,63.787 C 36.067,64.08 36.513,64.376 36.974,64.689 C 41.049,67.459 45.668,70.601 54.446,69.474 C 59.272,68.855 63.882,66.218 66.19,62.755 C 68.23,59.701 70.479,53.809 67.832,51 C 67.295,50.426 66.915,50.446 66.361,50.688 C 66.181,50.769 66.035,50.811 65.908,50.847 C 65.705,50.905 65.685,50.911 65.517,51.327 C 65.211,52.105 65.011,53.167 64.8,54.292 C 64.416,56.338 63.981,58.655 62.729,60.317 C 60.139,63.754 57.138,65.505 53.287,65.825 C 48.723,66.21 43.878,66.117 39.17,60.798 C 38.99,60.971 38.794,61.129 38.608,61.228 C 38.356,61.361 38.039,61.266 37.905,61.012 C 37.77,60.757 37.867,60.443 38.121,60.309 C 38.241,60.245 38.445,60.069 38.631,59.855 C 38.643,59.803 38.662,59.752 38.692,59.705 C 39.127,58.997 39.508,58.565 39.879,58.148 C 40.324,57.646 40.709,57.21 41.148,56.327 C 41.505,55.619 42.163,55.109 43.001,54.893 C 44.26,54.564 45.803,54.906 47.129,55.806 C 48.441,56.692 50.256,56.719 51.26,55.868 C 51.755,55.446 51.897,54.503 51.559,53.894 C 49.389,49.991 42.214,50.151 39.724,50.872 C 39.665,50.889 39.604,50.884 39.544,50.88 C 39.051,51.21 38.403,51.39 37.894,51.438 C 37.607,51.473 37.354,51.257 37.326,50.971 C 37.298,50.683 37.508,50.43 37.795,50.403 C 38.052,50.378 38.361,50.302 38.639,50.187 C 36.576,48.153 35.221,45.592 34.526,42.364 C 33.832,39.187 34.055,36.699 35.187,34.974 C 36.02,33.697 37.712,32.775 39.711,32.507 C 41.2,32.305 44.402,32.683 44.958,33.881 C 45.072,34.127 44.978,34.348 44.87,34.603 C 44.547,35.37 44.478,35.851 45.036,36.195 C 45.531,36.499 46.037,36.593 46.542,36.469 C 47.357,36.274 48.027,35.575 48.383,34.99 C 49.71,32.781 47.787,30.813 46.901,30.07 C 44.021,27.669 39.279,27.569 37.875,27.805 C 37.853,27.809 37.832,27.798 37.808,27.798 C 37.78,27.806 37.755,27.82 37.725,27.823 C 37.314,27.861 36.372,28.231 35.866,28.47 C 35.607,28.592 35.297,28.48 35.174,28.221 C 35.051,27.96 35.162,27.651 35.423,27.528 C 35.436,27.522 36.611,26.974 37.408,26.823 C 37.695,26.195 38.391,25.461 40.057,24.35 C 40.191,24.529 40.327,24.714 40.466,24.904 C 41.01,25.649 41.628,26.494 42.313,27.155 C 42.52,27.355 42.849,27.35 43.048,27.144 C 43.249,26.936 43.243,26.608 43.035,26.408 C 42.414,25.807 41.851,25.036 41.306,24.29 C 41.181,24.118 41.057,23.95 40.936,23.785 C 41.041,23.72 41.149,23.652 41.262,23.585 C 41.286,23.599 41.314,23.612 41.341,23.624 C 42.19,23.954 43.026,24.507 43.835,25.041 C 44.162,25.258 44.488,25.473 44.809,25.671 C 45.054,25.821 45.375,25.745 45.526,25.5 C 45.677,25.256 45.6,24.936 45.355,24.784 C 45.042,24.591 44.728,24.384 44.408,24.173 C 43.749,23.736 43.07,23.287 42.356,22.936 C 42.888,22.627 43.476,22.297 44.125,21.941 C 44.775,21.587 45.535,21.203 46.309,20.813 C 47.889,20.019 50.499,18.706 50.804,18.106 C 50.179,17.439 47.437,16.6 45.63,16.203 C 45.478,16.169 45.349,16.07 45.278,15.932 C 45.011,15.41 44.142,13.974 43.222,12.454 C 39.937,7.022 39.451,6.077 39.491,5.654 C 39.538,5.058 39.848,4.303 40.177,3.505 C 40.441,2.866 40.932,1.675 40.813,1.426 C 38.947,0.277 32.178,3.528 27.576,6.246 C 27.57,6.233 27.562,6.221 27.555,6.208 C 27.26,5.721 27.09,5.188 26.908,4.624 C 26.715,4.021 26.514,3.399 26.153,2.799 C 26.055,2.639 25.883,2.549 25.707,2.549 C 25.615,2.549 25.522,2.574 25.437,2.625 C 25.192,2.773 25.113,3.093 25.261,3.339 C 25.561,3.833 25.735,4.372 25.917,4.942 C 26.088,5.471 26.263,6.017 26.548,6.546 C 26.53,6.653 26.528,6.763 26.541,6.872 C 26.256,7.047 25.985,7.218 25.728,7.382 C 25.483,7.029 25.229,6.687 24.981,6.353 C 24.48,5.681 24.008,5.048 23.61,4.32 C 23.515,4.146 23.338,4.049 23.154,4.049 C 23.069,4.049 22.983,4.068 22.905,4.111 C 22.652,4.249 22.559,4.566 22.697,4.818 C 23.13,5.611 23.647,6.305 24.146,6.975 C 24.384,7.293 24.627,7.621 24.86,7.957 C 24.45,8.241 23.717,8.694 22.871,9.217 C 21.457,10.089 18.84,11.705 18.511,12.164 C 18.52,12.192 18.535,12.215 18.54,12.243 L 18.572,12.464 C 18.687,13.264 18.848,14.357 19.526,14.656 C 19.788,14.773 19.908,15.08 19.792,15.344 C 19.676,15.607 19.368,15.726 19.104,15.608 C 17.899,15.076 17.684,13.595 17.542,12.614 L 17.509,12.4 C 17.491,12.278 17.524,12.16 17.582,12.061 C 17.532,11.914 17.538,11.748 17.631,11.607 C 17.632,11.603 17.635,11.601 17.636,11.598 C 19.605,8.642 20.474,5.77 20.017,3.717 C 19.759,2.558 19.082,1.637 18.004,0.984 C 16.456,0.045 14.66,0.543 13.592,1.254 Z M 32.515,9.463 C 33.021,10.289 32.924,11.275 32.292,11.663 C 31.661,12.052 30.737,11.697 30.231,10.872 C 29.717,10.046 29.815,9.054 30.446,8.665 C 31.078,8.277 32.007,8.638 32.515,9.463 Z M 31.468,14.359 C 31.531,14.64 31.354,14.917 31.074,14.981 C 30.911,15.018 30.853,15.207 30.84,15.264 C 30.799,15.445 30.832,15.704 31.059,15.888 C 31.092,15.915 31.113,15.95 31.138,15.983 C 31.17,15.991 31.203,15.989 31.235,16.004 C 31.438,16.094 31.714,16.133 32.039,16.118 C 32.228,16.103 32.413,16.208 32.511,16.374 C 32.61,16.54 32.607,16.748 32.507,16.911 C 32.215,17.385 32.365,17.752 32.581,17.925 C 32.648,17.979 32.885,18.133 33.098,17.922 C 33.301,17.72 33.63,17.72 33.833,17.922 C 34.037,18.125 34.037,18.455 33.833,18.659 C 33.313,19.179 32.533,19.212 31.936,18.741 C 31.758,18.6 31.611,18.405 31.499,18.184 C 30.822,18.742 29.446,18.307 29.537,17.347 C 29.573,16.92 29.839,16.613 30.166,16.442 C 29.844,16.048 29.708,15.535 29.827,15.027 C 29.955,14.484 30.345,14.077 30.846,13.965 C 30.885,13.957 30.922,13.954 30.96,13.954 C 31.199,13.954 31.414,14.117 31.468,14.359 Z M 38.773,19.547 C 39.281,20.372 39.183,21.358 38.552,21.747 C 37.92,22.136 36.997,21.781 36.491,20.955 C 35.977,20.13 36.074,19.144 36.706,18.755 C 37.337,18.367 38.267,18.72 38.773,19.547 Z" fill="#B36AE2" stroke-width="0.694" stroke-linejoin="miter" stroke="none" marker-start="none" marker-end="none" stroke-miterlimit="79.8403193612775"></path></g></g></g></svg>