<svg fill="#B36AE2" xmlns:xlink="http://www.w3.org/1999/xlink" xmlns="http://www.w3.org/2000/svg" stroke-width="0.501" stroke-linejoin="bevel" fill-rule="evenodd" version="1.1" overflow="visible" viewBox="0 0 75 75" x="0px" y="0px"><g fill="none" stroke="black" font-family="Times New Roman" font-size="16" transform="scale(1 -1)"><g transform="translate(0 -75)"><g><path d="M 67.193,-30.975 C 70.99,-29.784 74.985,-29.223 78.964,-29.324" fill="none" stroke="none" stroke-width="1" stroke-linejoin="miter" stroke-miterlimit="79.8403193612775"></path><path d="M 67.7,-33.336 C 71.046,-32.765 74.478,-32.697 77.844,-33.137" fill="none" stroke="none" stroke-width="1" stroke-linejoin="miter" stroke-miterlimit="79.8403193612775"></path><path d="M 16.33,-31.856 C 18.959,-31.438 21.679,-31.604 24.238,-32.338" fill="none" stroke="none" stroke-width="1" stroke-linejoin="miter" stroke-linecap="round" stroke-miterlimit="79.8403193612775"></path><path d="M 16.571,-34.746 C 19.146,-33.755 21.978,-33.437 24.709,-33.834" fill="none" stroke="none" stroke-width="1" stroke-linejoin="miter" stroke-linecap="round" stroke-miterlimit="79.8403193612775"></path><path d="M 47.518,6.692 C 45.636,7.028 44.208,8.344 43.149,10.714 C 42.281,12.646 41.682,16.652 41.942,18.801 C 41.957,18.933 41.911,19.064 41.814,19.154 C 41.737,19.227 41.635,19.266 41.53,19.266 C 41.504,19.266 41.48,19.265 41.456,19.26 L 40.87,19.15 C 39.365,18.865 37.304,18.475 35.616,18.639 C 30.242,19.172 22.922,22.021 19.549,27.02 C 19.128,27.642 18.741,28.239 18.366,28.819 C 17.453,30.227 16.59,31.56 15.475,32.893 C 14.183,34.327 11.299,34.962 8.46,34.433 C 7.662,34.287 6.951,33.979 6.263,33.679 C 5.366,33.286 4.515,32.918 3.624,33.006 C 2.839,33.083 1.965,33.536 1.495,34.107 C 1.027,34.678 0.862,35.253 1.003,35.816 C 1.227,36.707 2.197,37.565 3.663,38.169 C 5.92,39.105 9.431,39.383 11.807,37.782 C 11.951,37.685 12.139,37.69 12.281,37.79 C 12.421,37.891 12.484,38.069 12.439,38.237 C 12.047,39.659 11.781,41.128 11.65,42.605 C 11.417,45.116 11.544,47.696 12.025,50.271 C 12.221,51.315 12.469,52.346 12.762,53.333 C 13.309,55.173 14.026,56.737 14.903,58.011 C 14.438,58.446 13.932,58.767 13.4,59.105 L 13.044,59.334 C 12.851,59.458 12.796,59.715 12.921,59.908 C 13.044,60.101 13.301,60.155 13.494,60.031 L 13.846,59.806 C 14.388,59.462 14.904,59.133 15.401,58.68 C 15.583,58.909 15.772,59.125 15.967,59.329 C 15.914,59.355 15.866,59.391 15.827,59.44 C 15.485,59.854 15.002,60.245 14.535,60.623 L 14.21,60.891 C 14.034,61.037 14.009,61.299 14.155,61.475 C 14.302,61.653 14.564,61.675 14.741,61.53 L 15.059,61.268 C 15.478,60.927 15.947,60.545 16.323,60.134 C 16.282,60.865 16.502,61.37 16.937,61.529 C 17.267,61.648 17.661,61.536 17.836,61.273 C 17.951,61.099 18.18,61.038 18.368,61.132 C 20.255,62.085 22.645,62.626 24.602,62.544 C 25.87,62.495 27.739,62.137 29.477,61.609 C 31.371,61.036 32.814,60.327 33.34,59.716 C 33.419,59.625 33.534,59.572 33.654,59.572 C 33.846,59.572 34.243,59.625 35.454,60.09 C 36.024,60.301 36.649,60.553 37.201,60.776 C 37.688,60.971 38.117,61.144 38.397,61.245 L 38.495,61.279 C 38.944,61.44 40.315,61.924 40.578,61.621 C 41.554,60.48 39.192,55.636 38.157,54.216 C 36.23,51.576 34.349,48.522 35,45.896 C 35.34,44.533 35.955,43.601 36.883,43.045 C 38.698,41.955 41.329,42.617 43.876,43.258 C 45.327,43.622 46.829,44 48.102,44.026 C 51.603,44.112 53.274,42.539 54.27,41.606 C 54.432,41.454 54.576,41.32 54.706,41.212 C 54.772,41.158 54.852,41.125 54.936,41.118 C 55.734,41.048 57.368,41.093 58.568,41.171 C 63.225,41.474 67.32,40.236 70.1,37.691 C 72.587,35.413 73.95,32.111 74.043,28.138 C 74.108,25.53 73.256,23.225 72.505,21.507 C 71.671,19.578 68.53,15.948 66.381,15.285 C 65.229,14.924 64.314,14.94 63.934,15.324 C 63.634,15.629 63.495,15.943 63.511,16.283 C 63.559,17.358 65.11,18.671 66.357,19.726 C 67.132,20.383 67.865,21.002 68.271,21.564 C 70.287,24.368 70.965,27.834 70.13,31.073 C 69.305,34.278 67.12,36.927 64.137,38.342 C 62.637,39.052 58.092,39.46 57.407,38.793 C 57.242,38.632 57.196,38.404 57.287,38.197 C 57.297,38.178 57.306,38.159 57.318,38.141 C 59.853,34.162 59.667,27.905 56.913,24.48 C 56.614,24.11 56.253,23.745 55.775,23.333 C 55.129,22.779 54.4,22.26 53.628,21.711 C 52.254,20.734 50.833,19.724 49.8,18.431 C 49.789,18.416 49.779,18.402 49.769,18.386 C 49.475,18.017 49.223,17.634 49.02,17.245 C 47.911,15.128 47.584,12.716 48.149,10.793 C 48.337,10.153 48.865,9.822 49.33,9.529 C 49.859,9.195 50.315,8.908 50.398,8.227 C 50.44,7.884 50.41,7.401 50.037,7.047 C 49.567,6.604 48.698,6.483 47.518,6.692 Z M 55.923,11.838 C 53.828,12.673 50.934,15.752 50.563,18.045 C 51.517,19.187 52.833,20.127 54.11,21.035 C 54.609,21.39 55.117,21.756 55.603,22.129 C 55.255,19.613 54.998,16.662 57.268,15.054 C 57.492,14.896 57.851,14.842 58.349,14.767 C 58.969,14.673 60.007,14.518 60.123,14.096 C 60.379,13.177 59.984,12.579 59.605,12.242 C 58.753,11.477 57.241,11.311 55.923,11.838 Z M 7.82,48.175 C 7.013,48.648 6.282,48.575 5.636,48.509 C 4.861,48.433 4.3,48.376 3.646,49.199 C 3.371,49.544 3.289,50.108 3.427,50.707 C 3.608,51.498 4.123,52.165 4.801,52.49 C 6.79,53.441 8.758,52.727 11.168,50.18 C 10.876,48.542 10.721,46.9 10.709,45.276 C 10.076,46.586 9.273,47.326 7.82,48.175 Z M 20.914,50.807 C 21.125,50.898 21.221,51.143 21.13,51.353 C 20.833,52.034 20.561,52.782 20.297,53.505 L 20.07,54.126 C 19.991,54.342 19.752,54.451 19.537,54.372 C 19.322,54.292 19.212,54.053 19.292,53.838 L 19.517,53.222 C 19.785,52.486 20.063,51.727 20.368,51.023 C 20.437,50.865 20.589,50.772 20.749,50.772 C 20.805,50.772 20.86,50.783 20.914,50.807 Z M 23.06,51.867 C 23.221,52.03 23.217,52.294 23.053,52.452 C 22.622,52.873 22.159,53.511 21.71,54.13 C 21.508,54.409 21.311,54.679 21.127,54.917 C 20.987,55.099 20.725,55.131 20.544,54.991 C 20.363,54.85 20.33,54.59 20.471,54.409 C 20.65,54.176 20.842,53.913 21.038,53.642 C 21.508,52.996 21.993,52.328 22.474,51.858 C 22.555,51.779 22.659,51.74 22.763,51.74 C 22.871,51.74 22.98,51.783 23.06,51.867 Z M 23.207,58.044 C 23.356,58.802 22.891,59.527 22.177,59.672 C 21.463,59.81 20.76,59.306 20.616,58.549 C 20.467,57.784 20.931,57.06 21.646,56.921 C 22.36,56.778 23.057,57.281 23.207,58.044 Z" fill="#B36AE2" stroke-width="0.554" stroke-linejoin="miter" stroke="none" marker-start="none" marker-end="none" stroke-miterlimit="79.8403193612775"></path></g></g></g></svg>