<svg xmlns:xlink="http://www.w3.org/1999/xlink" xmlns="http://www.w3.org/2000/svg" stroke-width="0.501" stroke-linejoin="bevel" fill-rule="evenodd" version="1.1" overflow="visible" viewBox="0 0 75 75" x="0px" y="0px"><g fill="none" stroke="black" font-family="Times New Roman" font-size="16" transform="scale(1 -1)"><g transform="translate(0 -75)"><g><path d="M 67.193,-30.975 C 70.99,-29.784 74.985,-29.223 78.964,-29.324" fill="none" stroke="none" stroke-width="1" stroke-linejoin="miter" stroke-miterlimit="79.8403193612775"></path><path d="M 67.7,-33.336 C 71.046,-32.765 74.478,-32.697 77.844,-33.137" fill="none" stroke="none" stroke-width="1" stroke-linejoin="miter" stroke-miterlimit="79.8403193612775"></path><path d="M 16.33,-31.856 C 18.959,-31.438 21.679,-31.604 24.238,-32.338" fill="none" stroke="none" stroke-width="1" stroke-linejoin="miter" stroke-linecap="round" stroke-miterlimit="79.8403193612775"></path><path d="M 16.571,-34.746 C 19.146,-33.755 21.978,-33.437 24.709,-33.834" fill="none" stroke="none" stroke-width="1" stroke-linejoin="miter" stroke-linecap="round" stroke-miterlimit="79.8403193612775"></path><path d="M 19.942,13.431 C 13.891,20.672 11.369,25.651 9.147,34.734 C 7.924,39.73 7.777,46.713 8.748,53.471 C 8.387,53.463 8.012,53.441 7.614,53.405 C 7.088,53.36 6.564,53.297 6.04,53.234 C 5.057,53.116 4.04,52.993 3.022,52.989 L 3.019,52.989 C 2.734,52.989 2.502,53.22 2.5,53.506 C 2.499,53.792 2.731,54.025 3.017,54.026 C 3.976,54.03 4.962,54.149 5.916,54.263 C 6.452,54.328 6.987,54.393 7.523,54.438 C 8.01,54.482 8.466,54.505 8.905,54.511 C 9.002,55.117 9.113,55.731 9.237,56.347 C 8.895,56.435 8.491,56.516 8.055,56.583 C 6.571,56.824 4.793,56.933 3.628,56.854 C 3.339,56.84 3.095,57.051 3.075,57.337 C 3.056,57.622 3.273,57.87 3.558,57.889 C 4.796,57.972 6.668,57.859 8.218,57.607 C 8.663,57.538 9.083,57.455 9.448,57.362 C 9.616,58.132 9.805,58.898 10.014,59.648 C 11.69,65.675 16.823,73.933 19.018,74.132 C 19.032,74.134 19.052,74.136 19.077,74.136 C 19.183,74.136 19.382,74.103 19.634,73.857 C 20.856,72.66 21.421,68.66 21.343,67.545 C 21.331,67.377 21.402,67.214 21.532,67.106 C 21.664,67 21.839,66.962 22,67.009 C 23.914,67.544 27.508,67.01 29.456,66.522 C 29.649,66.474 29.851,66.539 29.978,66.691 C 32.534,69.728 34.804,71.385 36.209,71.245 C 37.138,70.837 36.291,66.084 36.011,64.509 C 35.981,64.337 36.038,64.163 36.164,64.043 C 37.373,62.894 38.272,61.479 39.091,59.406 C 40.022,60.04 40.801,60.259 41.621,60.489 C 41.987,60.592 42.373,60.7 42.803,60.855 C 43.07,60.953 43.368,60.814 43.466,60.543 C 43.563,60.275 43.423,59.977 43.154,59.88 C 42.694,59.714 42.291,59.601 41.901,59.491 C 41.039,59.248 40.35,59.054 39.465,58.401 C 39.586,58.056 39.704,57.702 39.819,57.341 C 39.849,57.359 39.881,57.374 39.915,57.386 C 41.327,57.888 42.179,58.192 43.822,58.28 C 44.114,58.297 44.352,58.075 44.367,57.789 C 44.382,57.503 44.162,57.259 43.877,57.244 C 42.385,57.164 41.631,56.896 40.262,56.409 C 40.215,56.392 40.166,56.383 40.119,56.38 C 40.266,55.896 40.412,55.4 40.563,54.893 C 40.973,53.506 41.397,52.072 41.928,50.548 C 42.589,48.636 43.316,46.91 44.147,45.271 C 45.654,42.289 47.543,39.542 49.926,36.872 C 50.248,36.51 50.846,35.916 51.603,35.163 C 55.447,31.337 65.66,21.176 62.379,17.596 C 61.355,16.476 59.229,17.365 57.625,18.308 C 55.784,19.389 54.094,20.843 53.417,21.451 C 53.418,21.454 53.42,21.456 53.421,21.458 C 53.565,22.02 53.551,22.57 53.537,23.101 C 53.531,23.33 53.525,23.559 53.533,23.787 C 53.544,24.073 53.32,24.314 53.034,24.324 C 52.741,24.356 52.507,24.112 52.497,23.825 C 52.488,23.576 52.494,23.325 52.501,23.074 C 52.513,22.593 52.525,22.139 52.416,21.716 C 52.393,21.625 52.403,21.535 52.427,21.45 C 52.4,21.395 52.38,21.337 52.375,21.274 C 52.211,19.43 51.547,17.594 50.456,15.966 C 49.489,14.526 48.237,13.293 46.736,12.3 C 46.735,12.3 46.734,12.299 46.733,12.298 C 45.346,11.369 43.777,10.673 42.076,10.208 C 41.798,10.556 41.531,10.876 41.271,11.188 C 40.715,11.851 40.19,12.478 39.648,13.29 C 39.489,13.528 39.168,13.592 38.93,13.433 C 38.692,13.274 38.627,12.952 38.786,12.715 C 39.359,11.856 39.901,11.208 40.476,10.522 C 40.748,10.196 41.028,9.862 41.321,9.493 C 41.361,9.442 41.413,9.409 41.466,9.377 C 41.469,9.373 41.468,9.368 41.47,9.364 C 42.06,8.331 43.094,7.371 44.093,6.443 C 46.035,4.641 47.16,3.461 46.406,2.283 C 45.854,1.423 44.934,0.963 43.593,0.878 C 36.758,0.456 22.997,9.776 19.942,13.431 Z M 55.512,6.25 C 53.468,7.015 48.643,10.432 47.729,11.743 C 48.954,12.616 50.012,13.645 50.888,14.815 C 53.217,11.488 59.161,8.528 63.462,9.602 C 65.51,10.115 67.296,11.55 68.237,13.441 C 69.482,15.929 68.646,18.276 68.035,19.989 C 67.675,21.001 67.364,21.876 67.608,22.354 C 67.731,22.596 68.023,22.782 68.501,22.921 C 69.083,23.095 69.675,22.848 70.263,22.195 C 72.21,20.029 73.131,14.714 72.023,12.038 C 69.337,5.558 63.165,3.394 55.512,6.25 Z M 27.713,37.152 C 27.963,37.291 28.052,37.607 27.912,37.857 C 27.551,38.502 27.898,40.692 28.299,41.215 C 28.363,41.188 28.441,41.152 28.505,41.122 C 29.221,40.796 30.553,40.185 32.328,41.097 C 33.794,41.85 34.471,43.157 34.185,44.681 C 33.753,46.985 31.315,49.146 28.862,49.402 C 26.335,49.67 24.02,48.911 22.17,47.213 C 20.082,45.296 18.871,42.42 18.93,39.522 C 18.935,39.236 19.192,38.992 19.459,39.015 C 19.745,39.02 19.972,39.257 19.967,39.543 C 19.914,42.11 21.028,44.756 22.871,46.449 C 24.004,47.49 25.943,48.667 28.754,48.37 C 30.755,48.162 32.817,46.349 33.166,44.489 C 33.306,43.741 33.193,42.707 31.854,42.019 C 30.528,41.337 29.57,41.775 28.937,42.066 C 28.816,42.121 28.697,42.171 28.579,42.212 C 28.536,42.308 28.472,42.395 28.374,42.451 C 27.733,42.817 27.56,42.994 27.297,43.264 C 27.141,43.423 26.946,43.622 26.63,43.885 C 26.409,44.068 26.082,44.038 25.9,43.818 C 25.717,43.598 25.746,43.271 25.966,43.088 C 26.244,42.857 26.409,42.688 26.555,42.539 C 26.787,42.302 26.998,42.089 27.466,41.789 C 26.74,40.721 26.496,38.263 27.007,37.351 C 27.102,37.181 27.279,37.086 27.46,37.086 C 27.546,37.086 27.633,37.107 27.713,37.152 Z M 45.011,45.865 C 44.297,47.286 43.663,48.784 43.08,50.415 C 43.121,50.422 43.161,50.423 43.202,50.441 C 44.98,51.195 48.342,50.879 50.179,49.328 C 51.198,48.466 51.562,47.384 51.26,46.108 C 51.074,45.323 50.619,44.83 49.867,44.599 C 48.385,44.144 46.101,44.89 45.011,45.865 Z M 29.776,55.494 C 29.776,56.054 28.995,56.511 28.034,56.511 C 27.079,56.511 26.298,56.054 26.298,55.494 C 26.298,54.934 27.079,54.485 28.034,54.485 C 28.995,54.485 29.776,54.934 29.776,55.494 Z M 22.15,57.423 C 22.15,58.571 21.307,59.504 20.27,59.504 C 19.233,59.504 18.39,58.571 18.39,57.423 C 18.39,56.282 19.233,55.349 20.27,55.349 C 21.307,55.349 22.15,56.282 22.15,57.423 Z M 35.554,57.52 C 35.554,58.667 34.71,59.594 33.681,59.594 C 32.644,59.594 31.801,58.667 31.801,57.52 C 31.801,56.379 32.644,55.446 33.681,55.446 C 34.71,55.446 35.554,56.379 35.554,57.52 Z" fill="#000000" stroke-width="0.691" stroke-linejoin="miter" stroke="none" marker-start="none" marker-end="none" stroke-miterlimit="79.8403193612775"></path></g></g></g></svg>