<svg fill="#B36AE2" xmlns:xlink="http://www.w3.org/1999/xlink" xmlns="http://www.w3.org/2000/svg" stroke-width="0.501" stroke-linejoin="bevel" fill-rule="evenodd" version="1.1" overflow="visible" viewBox="0 0 75 75" x="0px" y="0px"><g fill="none" stroke="black" font-family="Times New Roman" font-size="16" transform="scale(1 -1)"><g transform="translate(0 -75)"><g><path d="M 44.062,10.524 C 38.243,11.144 32.008,13.626 25.001,18.108 C 19.897,21.368 13.568,28.104 10.475,31.663 C 9.765,30.923 8.943,29.961 8.119,28.895 C 8.032,28.783 7.899,28.723 7.766,28.723 C 7.673,28.723 7.579,28.753 7.499,28.812 C 7.305,28.959 7.267,29.232 7.416,29.424 C 8.284,30.546 9.154,31.561 9.899,32.331 C 9.789,32.461 9.695,32.574 9.598,32.691 C 9.212,32.386 8.822,32.082 8.428,31.775 C 7.753,31.252 7.076,30.727 6.435,30.201 C 6.352,30.134 6.252,30.101 6.153,30.101 C 6.025,30.101 5.9,30.155 5.813,30.258 C 5.656,30.443 5.681,30.718 5.869,30.872 C 6.518,31.403 7.2,31.932 7.881,32.46 C 8.273,32.764 8.661,33.069 9.045,33.371 C 6.44,36.694 4.043,41.968 2.748,45.584 L 2.595,46.01 C 0.691,51.304 0.671,52.669 0.989,52.879 C 1.24,53.048 1.514,53.121 1.806,53.121 C 2.816,53.121 4.034,52.242 5.221,51.387 C 6.329,50.588 7.376,49.833 8.338,49.728 C 8.554,49.705 8.738,49.798 8.808,50 C 9.135,50.588 13.767,55.124 18.69,58.263 C 18.836,58.356 18.917,58.524 18.899,58.696 C 18.842,59.244 18.669,60.001 18.484,60.803 C 18.192,62.069 17.704,64.192 18.052,64.667 C 18.068,64.689 18.079,64.7 18.125,64.704 C 19.542,64.812 24.365,61.458 31.006,55.786 C 31.137,56.261 31.345,56.75 31.552,57.229 C 31.687,57.541 31.82,57.848 31.922,58.134 C 32.004,58.361 32.255,58.481 32.486,58.401 C 32.716,58.322 32.837,58.074 32.757,57.846 C 32.649,57.541 32.508,57.216 32.365,56.886 C 32.13,56.345 31.887,55.786 31.796,55.311 C 31.785,55.254 31.763,55.204 31.733,55.16 C 31.781,55.118 31.83,55.077 31.879,55.034 C 31.885,55.046 31.887,55.059 31.895,55.07 C 32.147,55.407 32.386,55.798 32.618,56.176 C 32.888,56.616 33.167,57.073 33.477,57.463 C 33.628,57.652 33.906,57.686 34.098,57.537 C 34.29,57.388 34.324,57.114 34.173,56.925 C 33.896,56.577 33.643,56.164 33.375,55.725 C 33.133,55.33 32.882,54.922 32.607,54.553 C 32.583,54.521 32.549,54.504 32.52,54.48 C 32.979,54.081 33.444,53.672 33.918,53.254 C 34.547,52.699 35.229,52.158 35.947,51.648 C 36.096,51.543 36.291,51.535 36.447,51.627 C 36.602,51.72 36.689,51.896 36.667,52.076 C 36.43,54.041 37.13,55.825 38.541,56.85 C 39.551,57.585 40.744,57.778 41.654,57.356 C 42.553,56.938 43.105,55.941 43.208,54.547 C 43.258,53.866 42.99,53.151 42.472,52.583 C 42.023,52.09 41.446,51.792 40.926,51.783 C 40.917,51.783 40.909,51.777 40.9,51.777 C 40.18,51.771 39.218,51.907 38.99,52.06 C 38.781,52.2 38.496,52.145 38.355,51.935 C 38.215,51.725 38.27,51.44 38.48,51.299 C 38.926,51 39.883,50.897 40.5,50.869 C 40.522,50.371 40.534,49.695 40.414,49.469 C 40.356,49.361 40.345,49.234 40.382,49.117 C 40.418,49.001 40.5,48.903 40.608,48.848 C 43.116,47.553 45.76,46.43 48.32,45.343 C 49.63,44.794 50.93,44.246 52.191,43.691 C 54.903,42.498 56.441,41.372 58.769,39.667 L 59.295,39.282 C 59.486,39.141 59.753,39.171 59.91,39.349 C 60.042,39.498 60.059,39.714 59.963,39.88 C 59.877,40.11 59.571,41.341 59.326,42.334 C 59.133,43.109 58.931,43.923 58.763,44.564 C 58.707,44.776 58.651,44.976 58.601,45.142 C 57.641,48.454 58.157,53.932 60.686,57.369 C 63.2,60.786 68.474,60.482 71.316,58.948 C 74.019,57.498 74.229,54.478 74.154,52.329 C 74.112,51.031 73.267,50.408 72.449,50.366 C 71.977,50.333 71.435,50.534 71.37,51.013 C 71.343,51.209 71.339,51.484 71.337,51.775 C 71.326,52.6 71.312,53.626 70.816,54.369 C 70.176,55.341 68.958,56.315 67.659,56.291 C 66.187,56.268 64.867,55.137 64.211,54.025 C 62.728,51.508 63.099,48.301 63.427,45.473 L 63.448,45.293 C 63.758,42.565 64.78,39.974 65.769,37.47 C 66.324,36.064 66.897,34.61 67.331,33.161 C 68.643,28.785 68.812,25.5 67.882,22.508 C 66.689,18.681 64.049,15.239 60.82,13.301 C 55.485,10.098 48.762,10.022 44.062,10.524 Z M 40.428,18.762 C 40.657,18.87 40.755,19.143 40.646,19.372 C 40.497,19.687 40.349,19.991 40.203,20.287 C 39.229,22.271 38.459,23.839 38.924,26.487 C 39.24,28.288 41.203,31.456 42.607,32.435 C 42.743,32.529 42.818,32.689 42.802,32.852 C 42.787,33.017 42.685,33.16 42.534,33.228 C 39.953,34.39 37.05,38.106 37.171,41.155 C 37.269,43.597 39.297,45.038 41.22,45.038 L 41.273,45.038 C 42.572,45.02 43.97,44.294 43.995,42.307 C 44.013,41.334 43.742,40.362 43.322,39.889 C 43.181,39.73 43.169,39.494 43.291,39.321 C 44.757,37.236 46.732,36.211 48.644,35.219 C 51.163,33.913 53.543,32.678 54.575,29.08 C 54.644,28.837 54.898,28.695 55.141,28.766 C 55.385,28.836 55.525,29.089 55.456,29.333 C 54.315,33.309 51.646,34.694 49.066,36.033 C 47.339,36.928 45.557,37.854 44.235,39.582 C 44.67,40.259 44.93,41.287 44.911,42.32 C 44.88,44.797 43.067,45.93 41.285,45.955 C 38.903,46.005 36.376,44.214 36.255,41.192 C 36.128,37.991 38.817,34.286 41.519,32.722 C 40.019,31.316 38.342,28.467 38.022,26.646 C 37.505,23.703 38.374,21.932 39.381,19.882 C 39.523,19.59 39.671,19.292 39.817,18.981 C 39.897,18.814 40.061,18.718 40.232,18.718 C 40.298,18.718 40.365,18.732 40.428,18.762 Z M 24.88,23.739 C 25.102,23.859 25.185,24.137 25.066,24.36 C 24.415,25.565 24.093,26.455 24.152,27.868 C 25.283,28.13 26.44,28.601 26.952,29.22 C 28.022,30.518 28.193,31.975 27.422,33.217 C 26.461,34.763 24.295,35.542 22.272,35.064 C 18.947,34.278 16.939,30.479 17.794,26.597 C 17.842,26.382 18.031,26.237 18.241,26.237 C 18.273,26.237 18.308,26.241 18.341,26.248 C 18.588,26.303 18.743,26.547 18.689,26.793 C 18.037,29.757 19.302,33.42 22.483,34.173 C 24.106,34.556 25.896,33.936 26.643,32.733 C 27.203,31.834 27.061,30.792 26.245,29.804 C 25.662,29.099 23.348,28.468 22.149,28.564 C 21.9,28.578 21.677,28.394 21.658,28.141 C 21.639,27.889 21.828,27.669 22.08,27.65 C 22.399,27.626 22.799,27.645 23.231,27.701 C 23.205,26.203 23.576,25.191 24.259,23.924 C 24.342,23.771 24.499,23.684 24.662,23.684 C 24.736,23.684 24.81,23.702 24.88,23.739 Z M 24.615,41.384 C 24.858,42.034 25.632,42.282 25.646,42.287 L 25.792,42.328 C 26.193,42.438 27.029,42.668 27.777,43.089 C 28.54,43.521 29.008,44.361 28.997,45.278 C 28.987,46.113 28.587,46.822 27.928,47.177 C 27.421,47.45 26.846,47.492 26.268,47.294 C 25.053,46.881 24.106,45.58 23.663,44.59 C 23.657,44.576 23.651,44.56 23.646,44.544 C 23.521,44.154 22.939,43.846 22.79,43.806 C 22.764,43.802 22.739,43.795 22.714,43.788 C 22.485,43.711 22.249,43.638 22.014,43.567 C 20.673,43.155 19.152,42.689 18.914,41.272 C 18.803,40.604 18.977,39.912 19.39,39.374 C 19.691,38.982 20.256,38.496 21.241,38.401 C 21.319,38.394 21.396,38.39 21.473,38.39 C 22.775,38.39 23.883,39.443 24.615,41.384 Z M 14.626,39.285 C 15.486,39.792 15.767,40.898 15.261,41.76 C 14.76,42.607 14.173,42.009 13.312,41.508 C 12.457,41.003 11.644,40.782 12.151,39.922 C 12.658,39.065 13.764,38.779 14.626,39.285 Z M 52.56,44.53 C 51.358,45.059 50.121,45.582 48.874,46.105 C 47.489,49.815 46.566,53.787 49.874,55.423 C 51.151,56.059 52.399,56.045 53.299,55.387 C 54.076,54.819 54.466,53.872 54.318,52.914 C 54.217,52.242 53.627,51.457 53.106,50.765 C 52.794,50.348 52.498,49.953 52.316,49.596 C 52.248,49.464 52.249,49.306 52.319,49.175 C 53.425,47.083 54.74,46.347 55.9,45.698 C 56.638,45.285 57.334,44.892 57.916,44.177 C 58.075,43.566 58.259,42.827 58.435,42.113 C 58.569,41.577 58.675,41.149 58.762,40.808 C 56.678,42.328 55.143,43.393 52.56,44.53 Z M 28.113,50.562 C 28.559,51.393 28.248,52.425 27.424,52.871 C 26.599,53.317 26.422,52.547 25.975,51.716 C 25.53,50.885 24.98,50.317 25.81,49.871 C 26.635,49.419 27.674,49.73 28.113,50.562 Z" stroke-width="0.611" stroke-linejoin="miter" stroke="none" fill="#B36AE2" marker-start="none" marker-end="none" stroke-miterlimit="79.8403193612775"></path></g></g></g></svg>