<svg fill="#B36AE2" xmlns:xlink="http://www.w3.org/1999/xlink" xmlns="http://www.w3.org/2000/svg" stroke-width="0.501" stroke-linejoin="bevel" fill-rule="evenodd" version="1.1" overflow="visible" viewBox="0 0 75 75" x="0px" y="0px"><g fill="none" stroke="black" font-family="Times New Roman" font-size="16" transform="scale(1 -1)"><g transform="translate(0 -75)"><g><path d="M 67.193,-30.975 C 70.99,-29.784 74.985,-29.223 78.964,-29.324" fill="none" stroke="none" stroke-width="1" stroke-linejoin="miter" stroke-miterlimit="79.8403193612775"></path><path d="M 67.7,-33.336 C 71.046,-32.765 74.478,-32.697 77.844,-33.137" fill="none" stroke="none" stroke-width="1" stroke-linejoin="miter" stroke-miterlimit="79.8403193612775"></path><path d="M 16.33,-31.856 C 18.959,-31.438 21.679,-31.604 24.238,-32.338" fill="none" stroke="none" stroke-width="1" stroke-linejoin="miter" stroke-linecap="round" stroke-miterlimit="79.8403193612775"></path><path d="M 16.571,-34.746 C 19.146,-33.755 21.978,-33.437 24.709,-33.834" fill="none" stroke="none" stroke-width="1" stroke-linejoin="miter" stroke-linecap="round" stroke-miterlimit="79.8403193612775"></path><path d="M 64.632,2.249 C 64.074,5.355 67.739,4.696 68.022,6.579 C 68.774,11.618 56.443,11.85 50.23,15.428 L 50.098,15.428 C 50.142,17.743 50.663,19.965 50.807,22.337 C 51.159,19.406 59.694,16.739 61.997,15.992 C 66.453,14.549 73.525,11.085 72.916,6.108 C 72.257,0.743 65.103,-0.387 64.632,2.249 Z M 43.043,8.626 L 42.735,8.823 C 41.263,9.771 38.522,11.536 36.755,18.787 C 36.694,19.04 36.436,19.194 36.187,19.132 C 35.935,19.07 35.779,18.816 35.841,18.564 C 36.365,16.413 36.986,14.726 37.638,13.371 C 36.465,13.24 34.426,13.454 33.782,14.011 C 33.586,14.18 33.289,14.159 33.118,13.962 C 32.948,13.766 32.969,13.469 33.167,13.299 C 33.924,12.644 35.586,12.395 36.884,12.395 C 37.359,12.395 37.779,12.429 38.094,12.488 C 39.349,10.222 40.67,9.094 41.634,8.423 C 39.699,7.876 35.859,6.919 32.331,6.814 C 26.084,6.637 21.755,7.299 17.851,9.033 C 15.169,10.227 13.019,11.981 11.457,14.248 C 11.45,14.257 11.441,14.262 11.433,14.271 C 11.584,14.977 11.755,15.64 11.927,16.274 C 12.418,18.096 12.881,19.816 12.764,22.555 C 12.753,22.816 12.506,23.017 12.274,23.005 C 12.014,22.994 11.812,22.774 11.824,22.514 C 11.935,19.921 11.49,18.269 11.018,16.519 C 10.813,15.766 10.604,14.985 10.447,14.165 C 10.442,14.151 10.433,14.117 10.428,14.095 C 10.427,14.087 10.428,14.079 10.427,14.072 C 10.397,14.034 10.367,13.998 10.348,13.951 C 8.761,9.865 7.243,8.314 5.045,8.603 C 3.281,8.603 2.43,9.075 2.11,10.236 C 1.756,11.5 2.946,12.353 4.196,13.117 C 4.659,13.4 4.942,13.573 5.069,13.808 C 6.3,15.324 6.101,18.808 4.461,24.459 C 1.765,33.447 2.364,41.379 3.343,46.45 C 4.388,51.893 6.185,55.694 8.936,60.423 C 10.242,62.679 11.956,64.83 14.031,66.814 C 17.118,69.773 23.233,73.861 23.878,74.037 C 24.551,74.182 25.022,74.126 25.32,73.869 C 26.017,73.267 25.893,71.5 25.784,69.941 C 25.679,68.445 25.58,67.032 26.116,66.234 C 26.162,66.166 26.223,66.113 26.294,66.076 C 27.426,65.501 28.979,64.018 30.005,63.038 C 30.337,62.721 30.579,62.491 30.766,62.322 C 30.785,62.253 30.816,62.186 30.869,62.129 C 31.659,61.269 32.719,59.799 33.035,58.982 C 33.108,58.796 33.286,58.682 33.474,58.682 C 33.531,58.682 33.589,58.692 33.645,58.713 C 33.887,58.808 34.006,59.081 33.913,59.323 C 33.603,60.122 32.832,61.229 32.16,62.065 C 32.42,62.158 32.733,62.279 33.104,62.422 C 34.963,63.143 38.792,64.627 39.601,63.437 C 39.599,62.269 37.313,60.144 35.933,58.862 C 35.349,58.319 34.887,57.889 34.62,57.574 C 34.549,57.49 34.509,57.382 34.509,57.27 C 34.509,56.499 34.555,55.775 34.601,55.075 C 34.654,54.266 34.701,53.498 34.67,52.74 C 34.6,52.704 34.534,52.655 34.488,52.582 C 34.352,52.367 33.876,52.311 33.353,52.446 C 32.749,52.604 32.467,52.903 32.463,52.989 C 32.45,53.249 32.231,53.443 31.968,53.435 C 31.708,53.422 31.51,53.2 31.523,52.941 C 31.561,52.199 32.406,51.72 33.117,51.536 C 33.387,51.465 33.648,51.43 33.891,51.43 C 34.129,51.43 34.342,51.474 34.538,51.538 C 34.391,50.727 34.115,49.909 33.597,49.043 C 33.343,48.558 32.725,48.227 32.275,47.986 L 32.256,47.977 C 32.014,47.979 31.866,48.019 31.807,48.101 C 31.765,48.156 31.652,48.391 31.877,49.102 C 31.953,49.346 31.822,49.606 31.579,49.689 C 31.337,49.772 31.074,49.646 30.986,49.405 C 30.639,48.454 30.04,47.958 29.357,48.036 C 28.811,48.095 28.402,48.496 28.415,48.804 C 28.426,49.063 28.225,49.282 27.966,49.294 C 27.705,49.305 27.486,49.103 27.474,48.843 C 27.441,48.061 28.155,47.32 29.061,47.137 C 29.443,46.836 29.741,46.223 30.027,45.624 C 30.101,45.466 30.174,45.318 30.245,45.178 C 30.135,43.477 30.976,41.257 32.08,40.123 C 31.891,40.087 31.702,40.055 31.506,40.021 C 30.895,39.919 30.202,39.802 29.383,39.552 C 29.134,39.477 28.994,39.213 29.069,38.965 C 29.146,38.717 29.408,38.576 29.657,38.652 C 30.418,38.884 31.051,38.991 31.662,39.093 C 32.145,39.174 32.602,39.251 33.075,39.382 C 33.463,39.486 33.843,39.624 34.243,39.807 C 34.818,40.085 35.361,41.245 36.288,43.58 C 36.501,44.115 36.701,44.62 36.805,44.808 C 37.905,46.833 39.709,47.583 40.92,47.608 C 41.746,47.635 42.433,47.32 42.766,46.767 C 43.333,45.82 42.838,44.857 41.253,43.822 C 41.121,43.737 41.061,43.697 41.019,43.638 C 39.281,41.54 39.344,38.916 39.382,37.351 C 39.391,36.976 39.401,36.511 39.371,36.415 C 39.266,36.229 39.079,36.017 38.817,35.789 C 37.522,34.688 34.491,33.481 32.4,34.182 C 32.155,34.266 31.886,34.132 31.805,33.886 C 31.721,33.64 31.854,33.372 32.101,33.291 C 32.626,33.114 33.194,33.037 33.777,33.037 C 35.841,33.037 38.084,34.004 39.298,34.975 C 43.03,35.491 47.858,31.616 48.945,28.857 C 49.722,26.88 50.007,24.954 49.866,22.612 C 49.866,22.609 49.868,22.607 49.868,22.604 C 49.868,22.603 49.866,22.602 49.866,22.601 C 49.803,21.557 49.663,20.52 49.527,19.519 C 49.357,18.269 49.182,16.978 49.156,15.674 C 49.128,14.464 49.238,13.349 49.489,12.262 C 49.786,10.983 51.029,10.176 52.125,9.465 C 53.744,8.413 54.339,7.885 53.694,6.881 C 53.41,6.442 52.931,6.147 52.267,6.003 C 49.734,5.459 45.288,7.173 43.043,8.626 Z M 31.19,44.349 C 30.954,44.685 30.874,45.026 30.841,45.24 C 30.809,45.516 30.723,45.947 30.475,46.416 C 30.254,46.834 29.988,47.125 29.796,47.305 C 30.13,47.317 30.548,47.394 30.815,47.698 C 31.078,47.997 31.104,48.413 31.208,48.404 C 31.301,48.396 31.263,48.057 31.474,47.765 C 31.642,47.53 31.9,47.418 32.119,47.361 C 32.816,47.072 34.202,45.623 33.499,44.023 C 33.381,43.757 33.224,43.595 33.042,43.511 C 32.463,43.242 31.609,43.748 31.19,44.349 Z M 15.058,48.073 C 15.955,48.89 17.337,49.284 18.946,49.176 C 19.213,49.159 19.429,49.355 19.446,49.614 C 19.464,49.874 19.267,50.098 19.008,50.115 C 17.141,50.236 15.513,49.761 14.423,48.769 C 14.232,48.594 14.218,48.297 14.393,48.104 C 14.487,48.002 14.614,47.95 14.741,47.95 C 14.855,47.95 14.968,47.991 15.058,48.073 Z M 14.168,50.406 L 14.722,50.512 C 15.956,50.75 17.232,50.998 18.423,50.782 C 18.678,50.735 18.924,50.906 18.97,51.162 C 19.016,51.418 18.845,51.662 18.59,51.709 C 17.228,51.955 15.863,51.69 14.542,51.436 L 13.996,51.331 C 13.741,51.285 13.572,51.039 13.62,50.784 C 13.662,50.556 13.859,50.399 14.082,50.399 C 14.109,50.399 14.139,50.401 14.168,50.406 Z M 27.09,53.8 C 27.342,53.861 27.497,54.117 27.436,54.369 C 27.375,54.622 27.12,54.777 26.868,54.716 C 25.74,54.442 24.144,54.279 22.932,55.057 C 22.15,55.559 21.64,56.397 21.416,57.549 C 21.367,57.804 21.118,57.97 20.864,57.921 C 20.609,57.871 20.442,57.624 20.492,57.369 C 20.768,55.956 21.417,54.911 22.424,54.265 C 23.165,53.789 24.08,53.548 25.12,53.548 C 25.736,53.548 26.395,53.632 27.09,53.8 Z" fill="#B36AE2" stroke-width="0.628" stroke-linejoin="miter" stroke="none" marker-start="none" marker-end="none" stroke-miterlimit="79.8403193612775"></path></g></g></g></svg>