<svg xmlns:xlink="http://www.w3.org/1999/xlink" xmlns="http://www.w3.org/2000/svg" stroke-width="0.501" stroke-linejoin="bevel" fill-rule="evenodd" version="1.1" overflow="visible" viewBox="0 0 75 75" x="0px" y="0px"><g fill="none" stroke="black" font-family="Times New Roman" font-size="16" transform="scale(1 -1)"><g transform="translate(0 -75)"><g><path d="M 20.179,22.787 C 19.53,22.873 18.621,23.112 17.844,23.32 C 19.23,23.723 21.042,24.509 21.918,25.838 C 22.023,25.998 21.98,26.213 21.819,26.319 C 21.659,26.425 21.443,26.38 21.339,26.22 C 20.194,24.483 17.071,23.784 16.274,23.687 C 16.237,23.688 16.202,23.686 16.172,23.68 C 11.916,22.796 9.278,23.191 6.727,23.574 C 6.178,23.656 5.641,23.736 5.102,23.801 C 4.643,23.858 4.017,23.767 3.412,23.679 C 2.917,23.608 2.406,23.535 2.105,23.566 C 1.637,23.612 1.201,23.857 0.91,24.236 C 0.67,24.549 0.563,24.921 0.618,25.256 C 0.705,25.789 1.195,26.222 1.995,26.476 C 3.797,27.047 5.233,27.198 7.219,27.406 C 8.251,27.514 9.419,27.637 10.849,27.842 C 12.47,28.07 14.498,28.55 15.8,30.245 C 15.917,30.398 15.888,30.615 15.736,30.732 C 15.583,30.849 15.367,30.82 15.25,30.668 C 14.1,29.172 12.243,28.738 10.752,28.528 C 10.576,28.504 10.416,28.484 10.248,28.46 C 10.32,28.484 10.388,28.522 10.433,28.59 C 10.54,28.749 10.496,28.964 10.337,29.071 C 10.277,29.111 10.17,29.219 10.055,29.396 C 9.917,29.617 9.807,29.868 9.757,30.025 C 9.774,30.052 9.855,30.114 9.913,30.159 C 10.093,30.298 10.338,30.486 10.515,30.839 C 10.629,31.065 10.688,31.25 10.724,31.405 C 11.094,33.002 10.432,34.416 10.432,34.416 C 10.316,34.662 10.078,35.159 9.58,35.636 C 9.51,35.702 9.269,36.108 8.516,36.349 C 8.4,36.386 8.293,36.422 8.193,36.468 C 8.04,36.539 7.865,36.482 7.77,36.348 C 7.768,36.35 7.765,36.351 7.763,36.353 C 7.871,36.472 7.892,36.649 7.794,36.785 C 7.768,36.821 7.745,36.86 7.724,36.903 C 6.953,37.023 6.309,37.233 5.631,37.453 C 5.307,37.558 4.978,37.665 4.627,37.763 C 4.443,37.815 4.334,38.007 4.387,38.192 C 4.439,38.375 4.627,38.484 4.815,38.431 C 5.175,38.331 5.512,38.221 5.845,38.113 C 6.425,37.924 6.979,37.745 7.601,37.629 C 7.603,37.724 7.608,37.825 7.618,37.934 C 7.618,38.002 7.62,38.066 7.624,38.125 C 7.018,38.482 5.615,39.091 5.013,39.258 C 4.828,39.308 4.72,39.5 4.77,39.685 C 4.821,39.87 5.012,39.976 5.197,39.926 C 5.885,39.737 7.223,39.147 7.881,38.778 C 8.025,38.901 8.224,38.965 8.475,39.046 L 8.638,39.099 C 9.413,39.354 9.942,39.683 10.764,40.282 C 10.788,40.298 10.808,40.317 10.826,40.339 C 10.876,40.398 10.972,40.523 11.098,40.689 C 11.443,41.139 12.084,41.976 12.472,42.345 C 13.182,43.007 13.985,43.419 14.93,43.604 C 15.755,43.764 16.559,43.732 17.269,43.704 C 17.307,43.703 17.344,43.703 17.381,43.702 C 17.199,43.386 16.987,43.058 16.891,42.96 C 16.757,42.823 16.76,42.604 16.897,42.47 C 16.965,42.404 17.052,42.371 17.14,42.371 C 17.231,42.371 17.32,42.406 17.388,42.475 C 17.612,42.705 18.017,43.39 18.219,43.794 C 18.23,43.805 18.245,43.811 18.255,43.825 C 18.578,44.256 18.923,44.823 19.228,45.336 C 19.256,45.37 19.278,45.406 19.294,45.448 L 19.321,45.493 C 19.894,46.457 20.852,48.075 21.291,47.946 C 22.313,47.652 23.906,44.188 23.849,41.829 C 23.846,41.737 23.886,41.653 23.949,41.586 L 23.95,41.575 C 23.999,41.122 24.044,40.693 24.236,40.219 C 24.29,40.085 24.419,40.002 24.557,40.002 C 24.601,40.002 24.644,40.01 24.687,40.028 C 24.865,40.1 24.95,40.302 24.878,40.48 C 24.729,40.848 24.688,41.201 24.645,41.602 C 27.618,42.573 31.209,46.354 33.384,48.647 L 33.66,48.938 C 37.193,52.651 42.739,54.378 48.488,53.558 C 50.396,53.285 52.125,52.58 53.779,51.407 C 55.395,50.259 56.949,48.49 58.532,45.997 C 58.886,45.442 59.29,44.749 59.72,44.016 C 61.768,40.516 64.575,35.722 67.854,35.14 L 68,35.114 C 68.917,34.944 70.303,34.687 71.558,35.821 C 71.873,36.104 72.059,36.454 72.24,36.792 C 72.526,37.327 72.725,37.66 73.203,37.773 C 73.695,37.891 74.179,37.75 74.533,37.384 C 74.944,36.96 75.099,36.334 74.938,35.75 C 74.071,32.608 69.812,30.86 66.931,31.629 C 63.913,32.433 61.258,35.302 59.901,37.515 C 59.8,37.68 59.467,38.28 59.083,38.974 C 57.564,41.718 57.107,42.499 56.896,42.741 C 56.721,43.054 56.562,43.356 56.408,43.652 C 56.051,44.335 55.714,44.979 55.219,45.668 C 55.108,45.824 54.891,45.861 54.735,45.749 C 54.579,45.637 54.544,45.42 54.656,45.265 C 55.121,44.614 55.448,43.991 55.792,43.33 C 55.955,43.02 56.121,42.704 56.306,42.374 L 56.306,42.374 C 56.958,41.154 57.072,34.03 54.762,30.278 C 53.415,28.089 52.124,26.452 50.818,25.273 C 48.709,23.369 46.46,22.524 44.813,23.011 C 44.59,23.079 44.404,23.166 44.256,23.27 C 43.362,23.887 43.755,25.123 43.897,25.486 C 44.187,26.225 45.483,26.575 46.268,26.58 C 46.347,26.58 46.423,26.607 46.484,26.657 C 47.235,27.261 47.455,28.954 47.451,29.502 C 47.44,30.762 47.069,31.442 46.169,31.851 C 46.127,31.871 46.077,31.875 46.027,31.872 C 45.26,32.109 42.228,33.283 41.644,37.148 C 41.616,37.338 41.44,37.47 41.25,37.44 C 41.06,37.411 40.93,37.234 40.958,37.045 C 41.513,33.371 44.085,31.895 45.324,31.39 C 44.949,31.067 44.366,30.573 43.647,29.992 C 41.432,28.205 38.229,25.843 35.548,24.735 C 32.685,23.553 29.601,22.858 25.843,22.548 C 24.257,22.42 22.246,22.504 20.179,22.787 Z M 41.256,24.093 C 41.057,24.489 41.068,24.88 41.289,25.289 C 41.702,26.054 42.782,26.68 43.494,26.762 C 43.667,26.783 43.799,26.932 43.8,27.107 C 43.801,27.187 43.9,27.458 43.972,27.654 C 44.172,28.202 44.447,28.953 44.337,29.616 C 44.335,29.628 44.328,29.637 44.325,29.648 C 45.163,30.332 45.793,30.877 46.075,31.121 C 46.512,30.868 46.749,30.479 46.756,29.497 C 46.761,28.926 46.526,27.712 46.126,27.27 C 45.147,27.229 43.668,26.804 43.25,25.739 C 42.888,24.81 42.911,23.964 43.277,23.334 C 42.409,23.355 41.566,23.47 41.256,24.093 Z M 0.059,26.891 C 0.566,28.008 4.046,28.676 9.368,28.676 C 9.475,28.676 9.567,28.726 9.63,28.803 C 9.723,28.688 9.831,28.574 9.952,28.494 C 10,28.462 10.052,28.447 10.105,28.441 C 8.978,28.291 8.008,28.187 7.147,28.097 C 5.119,27.883 3.655,27.73 1.786,27.138 C 0.899,26.856 0.431,26.425 0.185,26.025 C -0.006,26.358 -0.05,26.649 0.059,26.891 Z M 15.422,36.033 C 15.613,36.041 15.76,36.204 15.752,36.396 C 15.703,37.443 14.706,38.314 13.867,38.744 C 12.88,39.248 11.909,39.3 11.268,38.882 C 11.108,38.777 11.063,38.563 11.167,38.401 C 11.272,38.241 11.487,38.196 11.648,38.301 C 12.071,38.577 12.801,38.509 13.552,38.126 C 14.411,37.685 15.03,36.961 15.058,36.363 C 15.067,36.178 15.22,36.033 15.405,36.033 C 15.41,36.033 15.416,36.033 15.422,36.033 Z" fill="#000000" stroke-width="0.463" stroke-linejoin="miter" stroke="none" marker-start="none" marker-end="none" stroke-miterlimit="79.8403193612775"></path></g></g></g></svg>