<svg fill="#B36AE2" xmlns:xlink="http://www.w3.org/1999/xlink" xmlns="http://www.w3.org/2000/svg" stroke-width="0.501" stroke-linejoin="bevel" fill-rule="evenodd" version="1.1" overflow="visible" viewBox="0 0 75 75" x="0px" y="0px"><g fill="none" stroke="black" font-family="Times New Roman" font-size="16" transform="scale(1 -1)"><g transform="translate(0 -75)"><g><path d="M 52.86,0.457 C 51.96,0.585 51.785,1.537 51.574,3.084 C 51.5,3.633 51.421,4.2 51.285,4.745 C 51.134,5.332 49.758,10.397 46.892,11.882 C 48.515,13.12 49.911,14.907 50.818,16.906 C 52.026,15.956 53.59,12.76 54.6,10.203 C 55.437,8.108 56.263,3.007 54.792,1.132 C 54.34,0.557 53.708,0.336 52.86,0.457 Z M 33.176,5.881 C 31.582,7.518 30.389,10.96 30.231,13.251 C 31.284,12.217 32.562,11.299 34.05,10.518 C 34.43,10.315 34.872,10.141 35.359,9.992 C 35.345,9.954 35.334,9.914 35.334,9.872 C 35.333,9.425 35.463,8.86 35.601,8.261 C 35.831,7.264 36.117,6.024 35.684,5.462 C 35.497,5.22 35.172,5.094 34.688,5.079 C 34.215,5.059 33.709,5.333 33.176,5.881 Z M 35.869,10.594 C 35.303,10.745 34.805,10.933 34.386,11.157 C 32.68,12.05 31.261,13.128 30.167,14.359 C 28.148,16.614 27.151,19.474 27.202,22.858 C 27.236,25.438 27.577,27.185 28.199,29.507 C 28.305,29.901 28.419,30.277 28.559,30.683 C 28.798,31.334 29.07,31.91 29.486,32.637 C 30.124,32.618 31.06,31.069 31.692,30.022 C 32.059,29.414 32.406,28.84 32.725,28.453 C 32.832,28.324 33.012,28.285 33.16,28.358 C 36.184,29.822 42.392,30.062 45.022,28.818 C 45.201,28.734 45.412,28.807 45.5,28.982 C 46.93,31.849 48.02,33.182 48.344,33.224 C 48.877,33.069 49.322,31.914 49.604,31.186 C 50.982,27.62 51.471,24.319 51.143,20.794 C 51.103,20.342 51.027,19.871 50.916,19.389 C 50.778,18.794 50.58,18.176 50.323,17.555 C 49.405,15.354 47.781,13.315 45.978,12.104 C 45.816,11.997 45.653,11.895 45.489,11.798 C 42.858,10.286 38.901,9.792 35.869,10.594 Z M 40.837,13.644 C 40.823,14.062 40.198,14.384 39.444,14.359 C 38.689,14.336 38.088,13.975 38.097,13.552 C 38.112,13.134 38.737,12.813 39.492,12.836 C 40.246,12.861 40.852,13.22 40.837,13.644 Z M 34.989,16.494 C 35.113,16.979 34.604,17.528 33.859,17.72 C 33.109,17.912 32.398,17.677 32.272,17.196 C 32.152,16.71 32.658,16.162 33.407,15.97 C 34.157,15.777 34.863,16.013 34.989,16.494 Z M 45.216,16.09 C 46.014,16.35 46.523,16.975 46.355,17.489 C 46.187,17.998 45.409,18.205 44.61,17.946 C 43.818,17.685 43.308,17.056 43.471,16.546 C 43.639,16.032 44.423,15.831 45.216,16.09 Z M 32.309,30.395 C 31.334,32.009 30.335,33.679 29.152,33.309 C 29.065,33.282 28.993,33.224 28.949,33.146 C 28.716,32.75 28.529,32.398 28.362,32.058 C 28.224,32.486 28.016,32.933 27.735,33.415 C 27.379,34.026 26.959,34.602 26.553,35.158 C 26.102,35.779 25.674,36.365 25.427,36.882 C 25.342,37.062 25.126,37.139 24.946,37.053 C 24.767,36.968 24.69,36.752 24.777,36.573 C 25.052,35.994 25.498,35.381 25.971,34.733 C 26.23,34.378 26.487,34.012 26.734,33.64 C 25.857,33.773 24.638,34.656 23.809,35.43 C 22.548,36.598 20.933,39.018 20.42,40.508 C 18.731,45.425 19.341,48.281 20.779,51.058 C 21.872,53.164 23.301,54.865 25.023,56.111 C 25.979,56.795 27.028,57.343 28.144,57.751 C 28.244,57.742 28.347,57.772 28.425,57.848 C 28.426,57.848 28.426,57.851 28.427,57.852 C 29.264,58.14 30.155,58.357 31.083,58.489 C 34.521,58.98 42.967,59.36 47.155,52.328 C 50.352,46.963 49.773,42.567 49.102,37.474 C 49.076,37.27 48.578,34.541 48.457,33.934 C 48.423,33.939 48.389,33.946 48.349,33.946 C 47.42,33.946 46.049,31.656 45.008,29.609 C 42.117,30.759 36.299,30.531 33.114,29.13 C 32.868,29.469 32.595,29.921 32.309,30.395 Z M 35.144,35.59 C 36.791,36.73 39.796,37.045 41.707,36.278 C 41.892,36.204 42.102,36.294 42.177,36.478 C 42.25,36.662 42.16,36.872 41.976,36.946 C 39.832,37.807 36.584,37.464 34.735,36.183 C 34.57,36.069 34.53,35.845 34.644,35.681 C 34.714,35.58 34.826,35.527 34.94,35.527 C 35.012,35.527 35.082,35.547 35.144,35.59 Z M 32.884,39.408 C 34.929,41.132 39.472,41.424 42.015,40.526 C 42.204,40.46 42.408,40.558 42.475,40.745 C 42.541,40.934 42.443,41.14 42.255,41.206 C 39.475,42.187 34.677,41.863 32.42,39.959 C 32.268,39.832 32.249,39.604 32.377,39.451 C 32.448,39.367 32.55,39.323 32.653,39.323 C 32.734,39.323 32.817,39.351 32.884,39.408 Z M 32.157,43.725 C 34.185,45.235 37.32,45.686 40.543,44.927 C 40.734,44.882 40.93,45.002 40.977,45.195 C 41.022,45.389 40.903,45.583 40.708,45.629 C 37.279,46.435 33.923,45.94 31.726,44.303 C 31.566,44.185 31.533,43.958 31.652,43.799 C 31.723,43.704 31.832,43.654 31.941,43.654 C 32.016,43.654 32.091,43.677 32.157,43.725 Z M 25.047,63.905 C 26.133,66.082 27.256,68.334 25.85,70.482 C 25.492,71.029 25.069,71.337 24.595,71.396 C 23.709,71.5 22.897,70.746 22.111,70.016 C 21.547,69.492 20.904,68.902 20.505,68.954 C 20.35,68.975 20.197,69.108 20.051,69.347 C 19.383,70.444 19.986,71.595 20.405,72.183 C 21.439,73.637 23.668,74.937 25.76,74.484 C 27.211,74.168 28.63,72.976 29.133,71.653 C 30.009,69.325 29.821,68.103 27.949,63.953 C 27.853,63.735 27.751,63.525 27.65,63.316 C 26.966,61.892 26.263,60.421 27.599,58.31 C 26.638,57.935 25.727,57.456 24.879,56.879 C 22.67,59.115 23.821,61.443 25.047,63.905 Z" fill="#B36AE2" stroke-width="0.481" stroke-linejoin="miter" stroke="none" marker-start="none" marker-end="none" stroke-miterlimit="79.8403193612775"></path><path d="M 67.193,-30.975 C 70.99,-29.784 74.985,-29.223 78.964,-29.324" fill="none" stroke="none" stroke-width="1" stroke-linejoin="miter" stroke-miterlimit="79.8403193612775"></path><path d="M 67.7,-33.336 C 71.046,-32.765 74.478,-32.697 77.844,-33.137" fill="none" stroke="none" stroke-width="1" stroke-linejoin="miter" stroke-miterlimit="79.8403193612775"></path><path d="M 16.33,-31.856 C 18.959,-31.438 21.679,-31.604 24.238,-32.338" fill="none" stroke="none" stroke-width="1" stroke-linejoin="miter" stroke-linecap="round" stroke-miterlimit="79.8403193612775"></path><path d="M 16.571,-34.746 C 19.146,-33.755 21.978,-33.437 24.709,-33.834" fill="none" stroke="none" stroke-width="1" stroke-linejoin="miter" stroke-linecap="round" stroke-miterlimit="79.8403193612775"></path></g></g></g></svg>