<svg fill="#B36AE2" xmlns:xlink="http://www.w3.org/1999/xlink" xmlns="http://www.w3.org/2000/svg" stroke-width="0.501" stroke-linejoin="bevel" fill-rule="evenodd" version="1.1" overflow="visible" viewBox="0 0 75 75" x="0px" y="0px"><g fill="none" stroke="black" font-family="Times New Roman" font-size="16" transform="scale(1 -1)"><g transform="translate(0 -75)"><g><path d="M 62.353,13.542 C 61.898,13.779 61.633,14.092 61.563,14.471 C 61.451,15.081 61.834,15.774 62.229,16.219 C 63.09,17.187 64.631,17.74 65.651,18.106 C 65.943,18.211 66.197,18.303 66.39,18.386 C 67.803,18.989 69.253,20.856 69.622,22.546 C 69.86,23.63 69.653,24.57 69.027,25.262 C 67.766,26.644 65.185,27.647 62.688,28.618 C 60.53,29.457 58.298,30.324 57.734,31.225 C 57.705,31.273 57.666,31.31 57.623,31.34 C 57.533,31.445 57.391,31.5 57.24,31.469 C 57.031,31.423 56.895,31.206 56.94,30.995 C 56.96,30.547 56.548,29.44 55.882,28.797 C 54.646,27.607 52.584,26.878 50.762,26.233 C 49.457,25.771 48.223,25.335 47.409,24.773 C 47.283,24.685 47.12,24.562 46.93,24.42 C 45.846,23.603 43.585,21.904 42.695,22.982 C 42.426,23.305 42.282,23.649 42.269,24.007 C 42.242,24.569 42.528,25.178 43.074,25.723 C 43.691,26.338 44.523,26.75 45.111,26.719 C 45.25,26.71 45.388,26.783 45.463,26.904 C 45.537,27.025 45.54,27.178 45.471,27.302 L 44.764,28.558 C 43.504,30.7 43.758,33.143 45.394,34.638 C 45.554,34.784 45.565,35.031 45.42,35.191 C 45.274,35.35 45.026,35.361 44.867,35.215 C 42.95,33.464 42.638,30.63 44.086,28.168 L 44.501,27.431 C 43.834,27.272 43.098,26.851 42.522,26.276 C 41.923,25.679 41.571,24.996 41.501,24.325 C 40.58,23.818 39.362,23.551 38.073,23.268 C 37.339,23.106 36.58,22.94 35.799,22.717 C 35.311,22.577 34.706,22.41 34.048,22.231 C 32.189,21.723 29.934,21.105 28.635,20.591 C 28.535,21.419 28.34,22.871 28.098,24.257 C 28.16,24.287 28.217,24.329 28.259,24.39 C 28.994,25.49 30.705,25.569 32.214,25.639 C 32.589,25.657 32.951,25.673 33.285,25.704 C 33.501,25.725 33.658,25.914 33.638,26.129 C 33.617,26.344 33.425,26.502 33.213,26.483 C 32.89,26.453 32.54,26.437 32.177,26.419 C 30.726,26.353 28.958,26.268 27.924,25.207 C 27.723,26.235 27.503,27.118 27.291,27.53 C 27.291,27.532 27.291,27.535 27.29,27.537 C 27.27,27.604 27.229,27.658 27.181,27.703 C 27.159,27.727 27.138,27.746 27.117,27.758 C 27.115,27.76 27.112,27.76 27.109,27.761 C 27.08,27.778 27.047,27.785 27.013,27.793 C 26.997,27.799 26.982,27.807 26.966,27.809 C 26.942,27.812 26.919,27.807 26.896,27.805 C 26.867,27.804 26.839,27.805 26.812,27.797 C 26.808,27.795 26.805,27.797 26.802,27.795 C 24.231,27.009 21.604,26.459 18.992,26.164 C 17.183,25.955 13.849,25.572 9.652,26.112 C 9.789,26.227 9.839,26.418 9.755,26.585 C 9.215,27.633 8.801,28.716 8.52,29.81 C 8.516,29.81 8.513,29.811 8.509,29.812 C 8.227,29.857 7.924,29.898 7.609,29.941 C 6.582,30.081 5.416,30.241 4.446,30.614 C 4.245,30.691 4.144,30.918 4.222,31.119 C 4.299,31.321 4.526,31.42 4.727,31.343 C 5.612,31.003 6.729,30.85 7.714,30.716 C 7.925,30.687 8.131,30.658 8.329,30.629 C 8.244,31.045 8.176,31.463 8.126,31.881 C 6.97,32.208 5.349,32.884 4.498,33.283 C 4.303,33.374 4.219,33.606 4.31,33.802 C 4.402,33.998 4.634,34.081 4.83,33.991 C 5.638,33.613 7.01,33.045 8.049,32.72 C 8.027,33.075 8.015,33.43 8.018,33.786 C 8.511,33.088 9.321,32.528 10.654,32.528 C 11.391,32.528 12.286,32.7 13.375,33.113 C 13.578,33.189 13.679,33.415 13.603,33.616 C 13.526,33.818 13.298,33.92 13.099,33.843 C 10.616,32.903 9.023,33.215 8.359,34.768 C 8.307,34.891 8.196,34.966 8.073,34.99 C 8.348,38.357 9.7,41.567 11.954,43.878 C 11.977,43.901 11.996,43.926 12.011,43.954 C 12.278,44.41 12.576,44.966 12.893,45.56 C 13.892,47.427 15.558,50.541 16.541,50.409 C 16.567,50.405 16.591,50.402 16.619,50.405 C 17.4,50.445 17.875,48.623 18.183,47.417 L 18.289,47.007 C 18.431,46.461 18.548,46.106 18.67,45.855 C 18.734,45.727 18.861,45.642 19.003,45.636 C 21.208,45.531 25.234,45.154 27.417,43.817 C 27.576,43.719 27.784,43.749 27.911,43.889 C 28.527,44.572 33.043,47.5 34.248,47.241 C 34.342,47.22 34.351,47.192 34.361,47.162 C 34.764,45.848 34.204,43.442 33.755,41.508 C 33.585,40.775 33.424,40.084 33.332,39.523 C 33.298,39.31 33.441,39.109 33.655,39.075 C 33.869,39.037 34.069,39.184 34.104,39.397 C 34.191,39.931 34.348,40.611 34.517,41.331 C 35.012,43.462 35.574,45.876 35.107,47.394 C 35.008,47.712 34.762,47.928 34.415,48.005 C 32.849,48.345 28.706,45.591 27.569,44.632 C 25.284,45.893 21.524,46.284 19.286,46.405 C 19.236,46.538 19.189,46.688 19.147,46.836 C 19.225,46.862 19.298,46.909 19.347,46.984 C 21.635,50.436 24.427,53.019 28.684,55.62 C 34.359,59.085 43.351,60.02 48.728,57.706 C 52.993,55.868 56.84,52.108 58.768,47.897 C 59.95,45.31 60.218,41.43 59.45,38.008 C 58.705,35.946 61.375,33.402 64.291,32.22 C 65.211,31.844 66.478,31.255 67.496,30.78 C 68.178,30.463 68.772,30.186 69.132,30.034 C 71.984,28.816 73.775,27.035 74.311,24.885 C 74.867,22.647 74.079,20.123 72.029,17.584 C 70.254,15.383 65.105,12.096 62.353,13.542 Z M 0.517,18.811 C 1.181,22.149 1.776,25.016 2.486,28.058 C 3.518,28.791 6.573,29.274 7.748,29.46 C 7.769,29.463 7.786,29.474 7.806,29.481 C 8.1,28.379 8.515,27.285 9.059,26.228 C 9.067,26.21 9.084,26.204 9.095,26.189 C 8.786,26.233 8.479,26.277 8.161,26.333 C 6.815,26.564 5.477,26.88 4.184,27.27 C 3.975,27.334 3.759,27.215 3.696,27.01 C 3.634,26.803 3.751,26.584 3.958,26.522 C 5.281,26.122 6.65,25.799 8.027,25.562 C 8.449,25.489 8.861,25.425 9.266,25.373 C 10.993,25.135 12.58,25.052 13.987,25.052 C 16.181,25.052 17.933,25.254 19.082,25.387 C 21.632,25.676 24.196,26.207 26.711,26.958 C 27.01,26.041 27.651,22.645 27.897,20.163 C 27.833,20.041 27.823,19.894 27.9,19.775 C 27.909,19.761 27.924,19.754 27.933,19.742 C 27.994,18.945 27.983,18.562 27.96,18.382 C 26.997,17.483 22.008,16.13 16.668,16.009 C 9.55,15.844 1.576,17.249 0.517,18.811 Z M 17.282,29.929 C 17.537,30.221 17.683,30.351 17.459,30.549 C 16.714,31.206 14.394,32.04 13.915,30.899 C 13.826,30.716 13.811,30.554 13.853,30.403 C 14.129,29.486 16.661,29.204 17.282,29.929 Z M 26.405,31.887 C 26.561,32.036 26.568,32.283 26.419,32.44 C 26.27,32.595 26.022,32.602 25.865,32.452 C 24.844,31.48 23.204,30.995 21.965,31.306 C 21.449,31.435 20.772,31.768 20.487,32.627 C 20.419,32.832 20.196,32.94 19.993,32.874 C 19.789,32.806 19.677,32.584 19.745,32.38 C 20.056,31.447 20.776,30.796 21.775,30.548 C 22.08,30.472 22.404,30.435 22.739,30.435 C 24.026,30.435 25.449,30.978 26.405,31.887 Z" fill="#B36AE2" stroke-width="0.521" stroke-linejoin="miter" stroke="none" marker-start="none" marker-end="none" stroke-miterlimit="79.8403193612775"></path></g></g></g></svg>