<svg fill="#B36AE2" xmlns:xlink="http://www.w3.org/1999/xlink" xmlns="http://www.w3.org/2000/svg" stroke-width="0.501" stroke-linejoin="bevel" fill-rule="evenodd" version="1.1" overflow="visible" viewBox="0 0 75 75" x="0px" y="0px"><g fill="none" stroke="black" font-family="Times New Roman" font-size="16" transform="scale(1 -1)"><g transform="translate(0 -75)"><g><path d="M 25.93,1.321 L 25.356,1.559 C 21.395,3.208 17.975,4.631 14.119,8.274 C 13.307,9.041 11.781,10.483 10.273,12.497 C 7.601,10.809 7.081,9.735 7.014,9.239 C 6.984,9.021 6.79,8.861 6.564,8.861 C 6.546,8.861 6.526,8.862 6.506,8.864 C 6.258,8.896 6.083,9.113 6.115,9.351 C 6.27,10.496 7.463,11.76 9.758,13.211 C 9.597,13.441 9.438,13.678 9.28,13.921 C 7.293,12.963 5.846,11.992 5.407,11.318 C 5.322,11.187 5.174,11.114 5.022,11.114 C 4.94,11.114 4.858,11.135 4.783,11.18 C 4.57,11.307 4.505,11.574 4.637,11.777 C 5.351,12.873 7.526,14.042 8.817,14.668 C 8.035,15.981 7.333,17.457 6.834,19.079 C 4.308,27.29 5.724,34.737 9.024,44.826 C 12.141,54.358 18.834,61.76 26.93,64.626 C 30.252,65.802 37.532,67.036 43.819,64.236 C 43.823,64.231 43.822,64.227 43.824,64.222 C 43.936,63.991 44.211,63.894 44.445,64.006 C 49.086,66.25 52.549,66.848 59.678,64.169 C 61.72,63.399 64.413,63.857 65.939,65.233 C 67.198,66.369 67.619,68.024 67.127,69.893 C 66.841,70.986 66.059,71.246 65.431,71.456 C 64.888,71.636 64.418,71.791 64.117,72.427 C 63.861,72.968 63.9,73.412 64.234,73.748 C 64.837,74.352 66.185,74.467 67.179,73.997 C 68.574,73.339 70.587,71.046 70.421,67.426 C 70.31,65.021 68.047,61.764 64.978,60.932 C 62.236,60.19 59.323,61.021 56.505,61.827 C 53.225,62.764 50.128,63.65 47.88,61.71 C 47.775,61.619 47.715,61.485 47.719,61.344 C 47.724,61.205 47.79,61.073 47.902,60.989 C 48.941,60.191 50.98,56.788 51.345,55.845 C 52.637,52.524 53.858,49.387 53.858,45.759 C 53.858,41.811 52.571,37.327 50.829,35.132 C 50.394,34.683 50.275,34.002 50.136,33.215 C 49.912,31.947 49.66,30.51 48.051,29.603 C 47.483,29.286 46.852,29.316 46.123,29.696 C 45.593,29.976 45.118,30.812 45.021,31.64 C 44.976,32.033 44.978,32.762 45.511,33.229 C 45.566,33.277 45.601,33.336 45.628,33.4 C 47.491,34.21 48.643,35.059 49.125,35.991 C 49.244,36.22 49.154,36.5 48.926,36.618 C 48.697,36.737 48.417,36.647 48.298,36.419 C 47.879,35.61 46.663,34.8 44.685,34.012 C 44.578,33.97 44.502,33.89 44.451,33.796 C 40.634,32.178 36.124,25.772 35.031,22.052 C 34.684,20.867 34.441,19.869 34.265,18.896 C 35.686,19.183 38.483,19.174 39.128,18.981 C 39.367,18.91 39.5,18.666 39.425,18.438 C 39.351,18.209 39.097,18.081 38.857,18.154 C 38.132,18.37 34.715,18.229 34.115,17.968 C 34.082,17.742 34.054,17.517 34.029,17.291 C 34.988,17.33 35.992,17.077 36.966,16.833 C 37.549,16.687 38.099,16.549 38.601,16.484 C 38.849,16.452 39.023,16.233 38.988,15.996 C 38.958,15.778 38.763,15.621 38.539,15.621 C 38.519,15.621 38.5,15.622 38.479,15.625 C 37.922,15.697 37.345,15.842 36.736,15.995 C 35.784,16.234 34.803,16.481 33.95,16.419 C 33.824,14.69 33.887,12.899 34.14,10.913 C 34.293,9.723 34.747,8.584 35.185,7.482 C 35.854,5.807 36.43,4.36 35.775,3.227 C 35.528,2.798 35.164,2.528 34.694,2.426 C 33.974,2.268 33.052,2.518 32.206,3.087 C 31.834,4.199 30.856,5.254 29.9,6.276 C 28.952,7.289 27.972,8.336 27.688,9.342 C 27.668,9.416 27.627,9.476 27.577,9.528 C 27.794,9.65 28.006,9.779 28.208,9.919 C 30.536,11.537 31.896,13.184 32.252,14.815 C 32.306,15.066 32.148,15.313 31.895,15.369 C 31.646,15.421 31.397,15.264 31.342,15.013 C 31.038,13.62 29.805,12.164 27.676,10.684 C 25.316,9.044 21.522,8.744 19.217,9.402 C 18.972,9.472 18.714,9.329 18.642,9.082 C 18.572,8.835 18.715,8.578 18.962,8.507 C 19.782,8.272 20.777,8.144 21.839,8.144 C 23.462,8.144 25.242,8.445 26.789,9.131 C 26.792,9.117 26.788,9.103 26.792,9.088 C 27.137,7.865 28.196,6.733 29.219,5.64 C 30.151,4.645 31.114,3.615 31.372,2.658 C 31.443,2.391 31.459,2.152 31.423,1.921 C 31.369,1.557 31.168,1.282 30.809,1.079 C 29.683,0.444 27.4,0.709 25.93,1.321 Z M 14.495,15.077 C 15.902,15.095 17.076,15.799 17.635,16.958 C 17.746,17.191 17.648,17.469 17.417,17.58 C 17.184,17.692 16.907,17.594 16.796,17.363 C 16.394,16.528 15.53,16.021 14.482,16.008 C 13.516,16.022 12.24,16.437 11.583,17.715 C 11.466,17.944 11.186,18.033 10.957,17.915 C 10.728,17.799 10.638,17.518 10.755,17.29 C 11.459,15.92 12.866,15.076 14.436,15.076 C 14.455,15.076 14.475,15.077 14.495,15.077 Z M 24.007,16.671 C 23.826,17.471 20.481,17.335 20.828,16.162 C 21.189,14.933 24.423,15.398 24.007,16.671 Z M 29.955,16.77 C 31.283,17.052 32.265,17.912 32.65,19.131 C 32.727,19.377 32.592,19.638 32.347,19.716 C 32.101,19.791 31.84,19.656 31.762,19.411 C 31.481,18.522 30.752,17.891 29.761,17.681 C 28.6,17.434 27.328,17.823 26.596,18.649 C 26.425,18.841 26.131,18.86 25.938,18.689 C 25.745,18.519 25.728,18.224 25.899,18.031 C 26.666,17.165 27.836,16.674 29.042,16.674 C 29.345,16.674 29.652,16.705 29.955,16.77 Z M 34.006,28.484 C 34.263,28.502 34.457,28.723 34.44,28.981 C 34.418,29.3 34.398,29.676 34.376,30.09 C 34.168,34.042 33.88,37.369 32.477,38.046 C 32.246,38.158 31.963,38.149 31.638,38.02 C 30.42,37.54 28.024,35.009 27.221,34.019 C 25.202,34.623 19.798,35.973 15.595,34.635 C 15.578,34.694 15.562,34.754 15.545,34.814 C 14.988,36.865 14.232,39.675 12.245,39.544 C 10.442,39.43 8.154,33.684 7.728,30.273 C 7.697,30.018 7.878,29.785 8.132,29.753 C 8.389,29.722 8.62,29.902 8.653,30.158 C 9.129,33.973 11.417,38.558 12.304,38.614 C 13.553,38.686 14.201,36.212 14.647,34.571 C 14.712,34.332 14.772,34.108 14.831,33.904 C 14.867,33.779 14.953,33.675 15.069,33.617 C 15.186,33.559 15.321,33.552 15.443,33.597 C 18.792,34.862 23.739,34.138 27.251,33.036 C 27.465,32.968 27.693,33.064 27.798,33.257 C 28.281,33.966 31.395,37.208 32.071,37.208 C 33.094,36.715 33.341,32.037 33.447,30.04 C 33.469,29.622 33.489,29.241 33.511,28.917 C 33.528,28.672 33.732,28.483 33.975,28.483 C 33.985,28.483 33.996,28.483 34.006,28.484 Z" stroke-width="0.62" stroke-linejoin="miter" stroke="none" fill="#B36AE2" marker-start="none" marker-end="none" stroke-miterlimit="79.8403193612775"></path></g></g></g></svg>