<svg fill="#B36AE2" xmlns:xlink="http://www.w3.org/1999/xlink" xmlns="http://www.w3.org/2000/svg" stroke-width="0.501" stroke-linejoin="bevel" fill-rule="evenodd" version="1.1" overflow="visible" viewBox="0 0 75 75" x="0px" y="0px"><g fill="none" stroke="black" font-family="Times New Roman" font-size="16" transform="scale(1 -1)"><g transform="translate(0 -75)"><g><path d="M 63.841,16.701 C 67.644,19.88 70.744,24.403 73.059,30.144 C 74.995,34.926 74.942,44.02 71.773,49.426 C 68.168,55.572 60.449,60.58 51.125,62.819 C 45.364,64.21 40.015,64.739 34.774,64.438 C 27.584,64.028 22.074,62.846 17.436,60.717 C 12.432,58.416 0.778,51.683 0.638,38.898 C 0.555,31.649 3.835,24.259 8.992,20.07 C 9.007,20.058 9.024,20.043 9.038,20.029 C 17.786,11.19 34.213,12.561 40.871,13.561 C 41.354,13.637 41.786,13.651 42.244,13.668 C 42.474,13.675 42.723,13.686 42.984,13.703 C 43.14,15.184 43.652,16.291 44.518,16.987 C 46.175,18.317 48.693,17.929 50.945,17.555 C 51.369,18.594 51.309,19.555 50.779,20.211 C 50.134,21.008 48.915,21.232 47.433,20.822 C 46.204,20.474 44.234,19.969 42.399,19.596 C 41.294,19.369 39.742,19.091 38.625,19.063 C 35.517,19.003 31.436,19.289 28.23,19.788 C 24.566,20.355 18.002,22.415 15.205,24.807 C 10.528,28.799 8.974,32.716 8.078,37.368 C 8.019,37.675 8.22,37.973 8.527,38.033 C 8.833,38.096 9.132,37.891 9.192,37.582 C 10.042,33.164 11.515,29.448 15.941,25.67 C 18.544,23.443 24.962,21.441 28.404,20.908 C 31.551,20.419 35.551,20.139 38.601,20.197 C 39.335,20.214 40.421,20.366 41.737,20.624 C 41.757,21.871 41.48,22.744 40.891,23.311 C 39.9,24.265 37.961,24.531 34.598,24.168 C 31.853,23.874 24.672,25.033 22.751,26.3 C 22.539,26.441 22.445,26.708 22.526,26.95 C 22.651,27.332 22.865,27.647 23.073,27.952 C 23.398,28.433 23.68,28.849 23.668,29.515 C 23.645,30.975 23.423,31.542 23.141,32.258 C 23.022,32.566 22.889,32.904 22.758,33.339 C 22.719,33.362 22.683,33.388 22.649,33.418 C 22.449,33.591 22.345,33.858 22.345,34.21 C 22.345,34.523 22.6,34.777 22.912,34.777 C 23.193,34.777 23.425,34.575 23.471,34.307 C 23.611,34.238 23.721,34.109 23.763,33.948 C 23.905,33.417 24.053,33.039 24.198,32.672 C 24.508,31.881 24.776,31.198 24.802,29.532 C 24.82,28.509 24.372,27.848 24.01,27.316 C 23.939,27.21 23.871,27.11 23.811,27.013 C 25.53,26.228 29.791,25.418 32.679,25.275 C 32.014,26.133 31.438,27.115 30.984,28.175 C 30.918,28.136 30.843,28.109 30.762,28.1 C 30.262,28.043 29.749,28.005 29.232,27.969 C 28.565,27.919 27.877,27.869 27.217,27.776 C 27.191,27.772 27.163,27.771 27.138,27.771 C 26.859,27.771 26.616,27.976 26.577,28.259 C 26.533,28.569 26.75,28.856 27.06,28.9 C 27.757,28.997 28.465,29.048 29.149,29.098 C 29.635,29.134 30.115,29.171 30.585,29.221 C 30.472,29.559 30.371,29.903 30.285,30.25 C 29.858,30.26 29.447,30.305 29.047,30.354 C 28.353,30.439 27.698,30.521 27.055,30.37 C 26.749,30.3 26.445,30.49 26.374,30.795 C 26.304,31.1 26.494,31.404 26.798,31.475 C 27.638,31.67 28.425,31.574 29.186,31.479 C 29.486,31.442 29.776,31.413 30.065,31.395 C 29.717,33.711 30.016,36.136 31.292,38.273 C 32.768,40.748 35.102,43.224 37.19,45.321 C 37.614,45.807 38.235,46.742 38.954,47.822 C 41.048,50.966 43.649,54.883 45.934,54.552 C 45.964,54.548 45.995,54.541 46.024,54.531 C 47.746,53.986 48.063,51.958 48.4,49.811 C 48.566,48.75 48.736,47.657 49.08,46.735 C 51.181,46.805 53.553,46.114 55.845,45.44 C 57.394,44.984 58.863,44.553 60.153,44.385 C 60.518,44.709 61.078,45.32 61.665,45.961 C 63.761,48.248 65.341,49.871 66.529,49.871 C 66.54,49.871 66.552,49.871 66.562,49.871 C 68.901,49.816 69.233,46.663 69.475,44.361 C 69.519,43.942 69.56,43.553 69.611,43.221 C 69.831,41.632 69.872,40.037 69.91,38.495 C 69.927,37.86 69.943,37.223 69.972,36.587 C 69.985,36.274 69.744,36.009 69.43,35.995 C 69.099,35.967 68.853,36.224 68.839,36.536 C 68.81,37.18 68.794,37.824 68.778,38.466 C 68.738,39.977 68.698,41.54 68.488,43.059 C 68.438,43.399 68.394,43.806 68.348,44.243 C 68.149,46.126 67.878,48.706 66.535,48.737 C 66.531,48.737 66.528,48.737 66.525,48.737 C 65.746,48.737 63.636,46.435 62.5,45.195 C 61.715,44.339 61.095,43.661 60.668,43.341 C 60.553,43.254 60.411,43.215 60.267,43.23 C 58.82,43.384 57.219,43.855 55.525,44.352 C 53.18,45.042 50.754,45.751 48.76,45.58 C 48.523,45.56 48.292,45.692 48.193,45.912 C 47.685,47.038 47.479,48.359 47.279,49.636 C 47.003,51.4 46.742,53.069 45.727,53.435 C 44.154,53.589 41.491,49.588 39.898,47.194 C 39.157,46.08 38.517,45.118 38.018,44.547 C 35.954,42.474 33.679,40.062 32.265,37.692 C 29.882,33.704 31.307,28.546 33.945,25.512 C 34.009,25.439 34.043,25.355 34.063,25.267 C 34.208,25.274 34.35,25.282 34.476,25.296 C 38.255,25.701 40.407,25.353 41.678,24.128 C 42.465,23.368 42.857,22.291 42.871,20.854 C 44.463,21.198 46.07,21.613 47.127,21.914 C 49.068,22.449 50.72,22.087 51.661,20.922 C 52.418,19.986 52.559,18.697 52.087,17.372 C 52.489,17.311 52.877,17.259 53.222,17.24 C 54.288,17.185 55.754,17.63 56.24,18.173 C 56.448,18.404 56.806,18.424 57.04,18.216 C 57.274,18.006 57.293,17.648 57.083,17.415 C 56.274,16.512 54.416,16.036 53.159,16.108 C 52.553,16.14 51.891,16.25 51.188,16.364 L 50.902,16.412 C 48.849,16.754 46.524,17.143 45.229,16.102 C 44.535,15.545 44.162,14.602 44.081,13.229 C 44.39,12.243 44.678,11.5 45.36,11.025 C 45.958,10.609 47.345,10.216 50.559,10.712 C 55.243,11.421 60.208,13.659 63.841,16.701 M 41.257,31.312 C 40.528,30.851 39.641,30.619 38.736,30.619 C 37.882,30.619 37.013,30.826 36.248,31.241 C 35.011,31.912 34.291,33.027 34.274,34.3 C 34.269,34.614 34.519,34.87 34.833,34.875 C 35.15,34.87 35.403,34.629 35.408,34.317 C 35.423,33.15 36.279,32.513 36.788,32.237 C 37.996,31.582 39.585,31.595 40.653,32.271 C 40.916,32.439 41.266,32.359 41.435,32.094 C 41.601,31.83 41.523,31.479 41.257,31.312 M 47.539,26.773 C 46.307,25.329 43.087,26.47 42.739,27.771 C 42.641,28.156 42.784,28.557 43.306,28.912 C 44.78,29.917 48.771,28.156 47.539,26.773 M 62.119,21.547 C 62.36,21.345 62.392,20.988 62.191,20.747 C 62.079,20.613 61.918,20.544 61.756,20.544 C 61.628,20.544 61.498,20.588 61.393,20.677 C 60.482,21.437 58.697,22.236 56.085,23.05 C 55.786,23.143 55.619,23.461 55.713,23.758 C 55.806,24.058 56.123,24.226 56.422,24.132 C 59.217,23.261 61.08,22.416 62.119,21.547 M 51.809,29.396 C 51.801,29.709 52.049,29.969 52.362,29.977 C 52.667,29.963 52.934,29.738 52.943,29.425 C 52.968,28.402 53.74,27.858 54.382,27.583 C 55.978,26.896 58.295,27.194 59.44,28.228 C 59.673,28.439 60.032,28.42 60.241,28.189 C 60.451,27.956 60.433,27.598 60.2,27.387 C 59.255,26.534 57.8,26.072 56.343,26.072 C 55.508,26.072 54.673,26.224 53.935,26.54 C 52.596,27.115 51.84,28.13 51.809,29.396 M 54.756,21.445 C 54.464,21.558 54.319,21.887 54.433,22.178 C 54.545,22.47 54.875,22.616 55.165,22.502 C 56.753,21.889 59.01,20.463 60.306,19.258 C 60.535,19.046 60.547,18.687 60.335,18.458 C 60.223,18.337 60.07,18.277 59.92,18.277 C 59.781,18.277 59.643,18.327 59.533,18.43 C 58.348,19.532 56.205,20.885 54.756,21.445 Z" fill="#B36AE2" stroke-width="0.756" stroke-linejoin="miter" stroke="none" marker-start="none" marker-end="none" stroke-miterlimit="79.8403193612775"></path></g></g></g></svg>