<svg xmlns:xlink="http://www.w3.org/1999/xlink" xmlns="http://www.w3.org/2000/svg" stroke-width="0.501" stroke-linejoin="bevel" fill-rule="evenodd" version="1.1" overflow="visible" viewBox="0 0 75 75" x="0px" y="0px"><g fill="none" stroke="black" font-family="Times New Roman" font-size="16" transform="scale(1 -1)"><g transform="translate(0 -75)"><g><path d="M 33.463,4.127 C 33.264,4.703 32.987,5.99 32.721,7.233 C 32.357,8.925 32.014,10.523 31.727,11.145 C 31.715,11.172 31.699,11.197 31.681,11.223 C 28.595,15.271 26.362,20.452 25.226,26.208 L 25.169,26.509 C 24.962,27.599 24.671,29.119 23.88,29.885 C 26.041,30.924 28.742,33.077 27.699,37.18 C 27.644,37.398 27.426,37.531 27.206,37.474 C 26.989,37.419 26.857,37.198 26.913,36.981 C 27.863,33.24 25.298,31.313 22.927,30.348 C 22.898,30.352 22.87,30.357 22.837,30.359 C 22.826,30.36 22.814,30.361 22.805,30.361 C 22.678,30.361 22.557,30.301 22.48,30.199 C 22.465,30.181 22.453,30.162 22.441,30.144 C 22.325,30.072 22.255,29.949 22.246,29.819 C 21.716,28.89 21.758,28.086 21.803,27.372 C 21.83,26.93 21.857,26.509 21.737,26.09 C 21.518,25.313 20.25,25.191 19.701,25.256 C 18.113,25.44 17.085,27.723 16.891,29.882 C 16.758,31.361 17.052,32.552 17.592,32.715 C 17.612,32.721 17.632,32.73 17.649,32.738 C 19.405,33.578 19.085,37.101 18.609,40.075 C 18.584,40.227 18.565,40.351 18.553,40.438 C 17.668,46.767 19.903,51.682 25.196,55.042 C 26.456,55.839 28.231,56.607 30.066,57.149 C 30.17,57.181 30.258,57.251 30.308,57.346 C 30.36,57.442 30.372,57.554 30.339,57.657 C 30.277,57.86 30.07,58.065 28.963,59.036 C 28.614,59.342 28.252,59.659 28.125,59.792 C 26.407,61.6 25.633,64.525 26.152,67.243 C 26.643,69.811 28.178,71.811 30.473,72.871 C 35.661,75.262 38.867,74.341 42.087,72.225 C 44.126,70.884 45.494,68.132 45.654,65.043 C 45.766,62.806 45.185,61.199 44.553,60.936 C 43.761,60.601 43.161,60.551 42.868,60.799 C 42.174,61.382 42.152,62.398 42.123,63.802 C 42.109,64.565 42.09,65.431 41.96,66.39 C 41.787,67.667 40.983,68.883 39.702,69.817 C 38.269,70.859 36.481,71.347 35.037,71.085 C 33.103,70.744 31.569,69.867 30.72,68.617 C 29.914,67.433 29.693,65.932 30.057,64.155 C 30.518,61.924 33.425,58.837 35.393,57.967 C 35.41,57.959 35.429,57.954 35.447,57.949 C 36.29,57.712 37.038,57.58 37.762,57.453 C 39.088,57.221 40.233,57.02 41.58,56.235 C 46.339,53.463 49.3,48.056 49.708,41.406 C 49.773,40.286 49.603,38.939 49.424,37.513 C 48.987,34.076 48.495,30.178 50.861,27.036 C 50.923,26.948 51.023,26.851 51.14,26.752 C 48.635,27.214 45.579,27.299 42.584,27.303 C 42.549,27.418 42.512,27.552 42.469,27.701 C 41.641,30.607 41.015,32.34 40.269,32.597 C 39.747,32.774 39.189,32.681 38.61,32.32 C 36.209,30.822 33.86,24.769 33.655,23.179 C 33.628,22.957 33.784,22.753 34.005,22.723 C 34.024,22.722 34.041,22.721 34.058,22.721 C 34.26,22.721 34.434,22.871 34.46,23.077 C 34.657,24.594 36.96,30.336 39.041,31.632 C 39.408,31.86 39.724,31.924 40.001,31.83 C 40.347,31.654 40.914,30.189 41.688,27.479 C 41.778,27.164 41.849,26.916 41.897,26.773 C 41.951,26.605 42.107,26.492 42.282,26.492 C 45.772,26.492 49.369,26.4 52.035,25.73 C 52.253,25.676 52.473,25.807 52.528,26.025 C 52.547,26.101 52.538,26.171 52.517,26.239 C 52.767,26.461 53.01,26.874 53.389,27.565 C 53.914,28.515 54.784,30.107 55.396,29.82 C 55.655,29.62 56.193,28.351 57.279,23.45 C 57.353,23.117 57.41,22.864 57.444,22.725 C 58.337,19.141 58.935,14.519 55.58,10.562 C 53.665,8.301 49.441,6.803 47.487,6.803 C 47.422,6.803 47.364,6.785 47.309,6.759 C 45.52,6.662 43.719,6.889 42.431,7.12 C 42.402,7.136 42.372,7.154 42.337,7.163 C 41.536,7.373 40.976,7.538 40.416,7.703 C 40.285,7.74 40.153,7.778 40.02,7.817 C 39.981,7.876 39.934,7.929 39.866,7.961 C 39.602,8.094 39.321,8.229 39.035,8.365 C 38.024,8.849 36.977,9.351 36.262,9.936 C 36.09,10.078 35.834,10.053 35.692,9.88 C 35.55,9.706 35.576,9.451 35.748,9.308 C 36.539,8.66 37.63,8.137 38.686,7.633 C 38.739,7.607 38.789,7.583 38.842,7.557 C 38.475,6.531 38.844,4.426 39.45,3.729 C 39.882,3.231 40.004,2.457 39.746,1.846 C 39.464,1.18 38.768,0.781 37.785,0.726 C 35.142,0.576 34.318,1.656 33.463,4.127 Z M 45.056,1.351 C 43.295,2.338 42.813,4.933 42.68,6.254 C 43.727,6.079 45.062,5.919 46.441,5.919 C 46.679,5.919 46.919,5.933 47.158,5.942 C 47.303,5.221 47.605,4.572 47.886,3.992 C 48.116,3.515 48.336,3.067 48.439,2.631 C 48.546,2.178 48.423,1.829 48.066,1.559 C 47.3,0.985 45.744,0.964 45.056,1.351 Z M 46.686,10.914 C 46.747,10.917 46.808,10.92 46.862,10.932 C 46.893,10.94 46.919,10.953 46.948,10.965 C 46.996,10.982 47.044,11.001 47.084,11.027 C 47.11,11.044 47.135,11.065 47.159,11.084 C 47.198,11.114 47.234,11.146 47.269,11.182 C 47.29,11.207 47.309,11.234 47.33,11.259 C 47.361,11.302 47.391,11.344 47.418,11.393 C 47.437,11.421 47.451,11.45 47.466,11.482 C 47.491,11.534 47.516,11.588 47.539,11.646 C 47.55,11.677 47.563,11.711 47.573,11.744 C 47.594,11.806 47.614,11.871 47.63,11.938 C 47.639,11.97 47.647,12.003 47.654,12.036 C 47.672,12.11 47.686,12.185 47.698,12.263 C 47.703,12.291 47.709,12.319 47.714,12.35 C 47.726,12.438 47.738,12.524 47.748,12.615 C 47.749,12.636 47.752,12.656 47.754,12.677 C 47.816,13.33 47.793,14.014 47.803,14.433 C 47.902,14.403 48,14.373 48.097,14.36 C 48.154,14.356 48.208,14.353 48.264,14.353 C 48.924,14.353 49.461,14.787 49.692,15.517 C 49.76,15.73 49.642,15.959 49.427,16.026 C 49.213,16.096 48.986,15.976 48.918,15.761 C 48.786,15.342 48.528,15.131 48.184,15.169 C 47.7,15.221 47.168,15.757 47.084,16.681 C 47.066,16.894 46.885,17.063 46.671,17.051 C 46.456,17.045 46.285,16.877 46.276,16.663 C 46.234,15.685 45.399,15.236 44.819,15.26 C 44.577,15.261 44.171,15.333 44.16,15.784 C 44.155,16.008 43.981,16.185 43.745,16.181 C 43.52,16.175 43.343,15.988 43.348,15.764 C 43.367,14.983 43.956,14.454 44.811,14.447 C 44.988,14.445 45.166,14.465 45.339,14.506 C 45.316,14.426 45.296,14.345 45.279,14.261 C 45.279,14.26 45.278,14.259 45.278,14.258 C 45.261,14.176 45.247,14.093 45.234,14.007 C 45.232,14.004 45.232,13.999 45.231,13.996 C 45.219,13.914 45.209,13.83 45.202,13.745 C 45.201,13.737 45.201,13.728 45.201,13.72 C 45.194,13.64 45.189,13.558 45.186,13.479 C 45.185,13.464 45.185,13.451 45.185,13.436 C 45.182,13.36 45.182,13.285 45.183,13.208 C 45.183,13.189 45.184,13.169 45.185,13.148 C 45.187,13.077 45.19,13.007 45.194,12.936 C 45.196,12.911 45.2,12.886 45.201,12.859 C 45.207,12.795 45.214,12.731 45.221,12.669 C 45.226,12.637 45.231,12.606 45.237,12.577 C 45.246,12.518 45.255,12.462 45.267,12.406 C 45.273,12.37 45.282,12.336 45.291,12.3 C 45.302,12.251 45.314,12.2 45.328,12.151 C 45.339,12.113 45.351,12.077 45.363,12.04 C 45.377,11.996 45.393,11.953 45.407,11.91 C 45.422,11.871 45.438,11.834 45.455,11.798 C 45.472,11.759 45.487,11.722 45.505,11.685 C 45.524,11.648 45.545,11.612 45.566,11.577 C 45.585,11.545 45.603,11.512 45.621,11.482 C 45.646,11.446 45.673,11.414 45.698,11.382 C 45.72,11.355 45.737,11.328 45.759,11.305 C 45.788,11.271 45.821,11.242 45.852,11.213 C 45.874,11.194 45.893,11.173 45.915,11.156 C 45.953,11.125 45.993,11.102 46.034,11.078 C 46.053,11.065 46.071,11.049 46.093,11.037 C 46.155,11.005 46.222,10.978 46.292,10.958 C 46.402,10.927 46.505,10.912 46.6,10.906 C 46.63,10.905 46.656,10.913 46.686,10.914 Z M 55.107,12.225 C 55.33,12.235 55.504,12.425 55.493,12.65 C 55.484,12.874 55.291,13.054 55.07,13.036 C 53.976,12.986 53.435,13.153 52.361,13.485 L 52.299,13.506 C 52.083,13.57 51.856,13.452 51.79,13.237 C 51.723,13.023 51.844,12.796 52.058,12.73 L 52.122,12.709 C 53.118,12.401 53.72,12.215 54.701,12.215 C 54.83,12.215 54.963,12.218 55.107,12.225 Z M 40.358,13.472 C 40.577,13.513 40.721,13.727 40.678,13.946 C 40.636,14.168 40.423,14.309 40.202,14.268 C 38.9,14.014 37.509,14.097 36.31,14.194 C 36.09,14.202 35.891,14.044 35.872,13.821 C 35.854,13.598 36.02,13.402 36.243,13.384 C 36.87,13.333 37.546,13.288 38.24,13.288 C 38.938,13.288 39.654,13.333 40.358,13.472 Z M 55.347,13.945 C 55.559,14.021 55.67,14.252 55.597,14.464 C 55.523,14.674 55.292,14.786 55.079,14.713 C 54.679,14.571 54.002,14.59 53.407,14.608 C 53.137,14.616 52.877,14.622 52.653,14.616 C 52.43,14.61 52.253,14.423 52.26,14.199 C 52.265,13.975 52.46,13.81 52.676,13.804 C 52.886,13.811 53.129,13.804 53.384,13.796 C 53.589,13.79 53.802,13.785 54.015,13.785 C 54.494,13.785 54.972,13.815 55.347,13.945 Z M 40.609,15.15 C 40.626,15.372 40.458,15.568 40.235,15.583 L 40.01,15.599 C 38.912,15.68 37.966,15.749 36.891,15.96 C 36.676,16.002 36.458,15.862 36.415,15.643 C 36.371,15.421 36.514,15.208 36.734,15.165 C 37.858,14.943 38.873,14.868 39.951,14.79 L 40.175,14.774 C 40.184,14.773 40.194,14.773 40.205,14.773 C 40.416,14.773 40.593,14.936 40.609,15.15 Z M 54.645,17.446 C 54.645,18.193 54.022,18.804 53.255,18.804 C 52.487,18.804 51.858,18.193 51.858,17.446 C 51.858,16.695 52.487,16.089 53.255,16.089 C 54.022,16.089 54.645,16.695 54.645,17.446 Z M 40.816,18.323 C 40.816,19.076 40.194,19.681 39.425,19.681 C 38.658,19.681 38.036,19.076 38.036,18.323 C 38.036,17.576 38.658,16.97 39.425,16.97 C 40.194,16.97 40.816,17.576 40.816,18.323 Z" fill="#000000" stroke-width="0.542" stroke-linejoin="miter" stroke="none" marker-start="none" marker-end="none" stroke-miterlimit="79.8403193612775"></path></g></g></g></svg>