<svg fill="#B36AE2" xmlns:xlink="http://www.w3.org/1999/xlink" xmlns="http://www.w3.org/2000/svg" stroke-width="0.501" stroke-linejoin="bevel" fill-rule="evenodd" version="1.1" overflow="visible" viewBox="0 0 75 75" x="0px" y="0px"><g fill="none" stroke="black" font-family="Times New Roman" font-size="16" transform="scale(1 -1)"><g transform="translate(0 -75)"><g><path d="M 67.193,-30.975 C 70.99,-29.784 74.985,-29.223 78.964,-29.324" fill="none" stroke="none" stroke-width="1" stroke-linejoin="miter" stroke-miterlimit="79.8403193612775"></path><path d="M 67.7,-33.336 C 71.046,-32.765 74.478,-32.697 77.844,-33.137" fill="none" stroke="none" stroke-width="1" stroke-linejoin="miter" stroke-miterlimit="79.8403193612775"></path><path d="M 16.33,-31.856 C 18.959,-31.438 21.679,-31.604 24.238,-32.338" fill="none" stroke="none" stroke-width="1" stroke-linejoin="miter" stroke-linecap="round" stroke-miterlimit="79.8403193612775"></path><path d="M 16.571,-34.746 C 19.146,-33.755 21.978,-33.437 24.709,-33.834" fill="none" stroke="none" stroke-width="1" stroke-linejoin="miter" stroke-linecap="round" stroke-miterlimit="79.8403193612775"></path><path d="M 18.489,25.354 C 20.808,26.491 21.539,28.375 22.244,30.206 C 23.014,32.204 23.741,34.093 26.567,35.077 C 27.537,35.417 28.039,34.991 28.776,34.262 C 29.496,33.55 30.464,32.595 32.039,33.922 C 34.157,32.313 44.991,27.036 47.51,26.147 C 47.073,22.664 47.337,12.54 47.841,9.107 C 44.087,10.866 23.797,22.304 18.489,25.354 Z M 48.487,26.034 C 49.046,26.15 49.753,26.57 50.745,27.183 C 51.6,27.711 52.664,28.369 53.185,28.382 C 53.28,28.385 53.365,28.421 53.438,28.471 C 53.686,28.202 53.958,27.854 54.167,27.436 C 54.97,25.808 56.057,25.002 57.465,25.002 C 57.925,25.002 58.419,25.088 58.948,25.259 C 59.923,25.575 60.703,26.383 61.093,27.478 C 61.647,29.041 61.342,30.897 60.26,32.567 C 60.208,32.648 60.148,32.724 60.09,32.802 C 60.59,33.172 61.368,33.64 62.125,34.095 C 62.492,34.315 62.85,34.53 63.166,34.727 C 63.169,34.704 63.173,34.68 63.179,34.658 C 63.54,33.252 65.263,31.11 67.143,30.953 C 67.256,30.944 67.366,30.94 67.475,30.94 C 68.827,30.94 69.897,31.623 70.439,32.85 C 71.213,34.597 70.708,36.904 69.266,38.543 C 70.437,39.335 73.314,40.884 73.98,41.126 C 74.265,39.328 74.106,35.586 73.964,32.244 C 73.781,27.966 73.683,25.138 74.049,23.987 C 73.233,23.021 70.277,20.704 68.922,19.856 C 66.507,18.354 52.72,10.367 48.834,9.115 C 48.339,12.247 48.055,22.651 48.487,26.034 Z M 8.028,25.892 C 5.703,26.948 3.59,29.379 2.373,32.395 C 0.626,36.72 0.379,41.613 1.713,45.484 C 2.908,48.955 4.536,51.629 8.754,54.043 C 8.565,53.143 8.467,52.214 8.383,51.211 C 8.36,50.941 8.562,50.703 8.832,50.68 C 8.846,50.679 8.86,50.679 8.873,50.679 C 9.126,50.679 9.342,50.872 9.363,51.129 C 9.483,52.561 9.606,53.748 10.001,54.914 C 10.049,55.055 10.024,55.201 9.952,55.32 C 10.668,57.19 12.48,61.718 16.964,64.864 C 21.286,67.897 25.74,69.265 30.964,69.159 C 35.32,69.078 39.262,67.703 42.678,65.072 C 45.282,63.069 47.187,61.451 49.808,57.381 C 50.355,56.532 52.099,54.104 52.926,53.29 C 53.203,53.02 53.504,52.808 53.794,52.603 C 53.842,52.57 53.886,52.537 53.933,52.504 C 52.3,52.519 50.771,52.235 49.444,51.931 C 48.276,51.665 46.77,51.006 45.671,50.522 C 45.364,50.388 45.068,50.258 44.836,50.162 C 44.079,51.536 42.193,54.108 40.422,54.67 C 39.831,54.858 39.292,54.817 38.823,54.546 C 36.088,52.956 35.916,38.168 35.916,38.019 C 35.916,37.748 36.137,37.528 36.408,37.528 C 36.68,37.528 36.899,37.748 36.899,38.019 C 36.899,43.702 37.864,52.851 39.316,53.695 C 39.537,53.823 39.803,53.835 40.125,53.732 C 41.643,53.25 43.58,50.582 44.15,49.345 C 44.25,49.126 44.496,49.012 44.729,49.077 C 44.991,49.151 45.442,49.348 46.065,49.622 C 47.128,50.088 48.585,50.727 49.662,50.973 C 51.28,51.343 53.205,51.689 55.21,51.443 C 55.228,51.441 55.244,51.447 55.263,51.447 C 55.276,51.447 55.286,51.44 55.299,51.44 C 55.315,51.442 55.328,51.451 55.343,51.453 C 55.395,51.462 55.442,51.478 55.487,51.501 C 55.508,51.511 55.529,51.518 55.548,51.532 C 55.61,51.574 55.662,51.626 55.699,51.692 C 55.7,51.693 55.701,51.693 55.701,51.694 C 57.298,54.612 58.878,56.517 59.724,56.549 C 59.801,56.55 59.98,56.559 60.195,56.231 C 61.486,54.254 63.259,49.186 64.134,46.263 C 64.156,46.191 64.197,46.13 64.245,46.077 C 64.449,45.542 64.717,44.962 65.008,44.343 C 65.661,42.957 66.391,41.395 66.397,40.174 C 64.771,40.452 62.868,40.059 61.404,39.11 C 60.203,38.331 59.442,37.26 59.261,36.094 C 59.22,35.826 59.404,35.574 59.672,35.533 C 59.941,35.492 60.192,35.675 60.234,35.944 C 60.371,36.829 60.977,37.66 61.94,38.286 C 63.317,39.178 65.213,39.512 66.661,39.117 C 67.143,38.988 67.565,38.779 67.913,38.497 C 68.001,38.425 68.088,38.35 68.202,38.251 C 69.832,36.72 70.107,34.531 69.54,33.247 C 69.127,32.315 68.298,31.855 67.222,31.934 C 65.893,32.044 64.471,33.741 64.15,34.834 L 64.192,35.66 C 64.202,35.853 64.097,36.034 63.925,36.123 C 63.753,36.21 63.545,36.19 63.393,36.068 C 63.062,35.802 62.361,35.382 61.62,34.938 C 60.818,34.457 59.989,33.96 59.451,33.554 C 59.44,33.546 59.435,33.534 59.425,33.524 C 58.476,34.352 57.188,34.743 55.68,34.638 C 52.855,34.448 49.542,32.541 48.333,30.946 L 48.031,30.541 C 47.769,30.188 47.624,29.994 47.268,29.57 C 47.094,29.362 47.121,29.051 47.329,28.878 C 47.538,28.702 47.848,28.73 48.022,28.937 C 48.394,29.381 48.546,29.585 48.82,29.954 L 49.118,30.353 C 50.071,31.61 53.054,33.475 55.746,33.657 C 57.106,33.748 58.185,33.403 58.954,32.629 C 59.137,32.446 59.294,32.253 59.433,32.034 C 60.35,30.62 60.617,29.078 60.165,27.807 C 59.88,27.003 59.326,26.415 58.646,26.195 C 56.948,25.648 55.906,26.134 55.047,27.874 C 54.687,28.594 54.187,29.142 53.825,29.479 C 53.58,29.703 53.343,29.893 53.16,30.012 C 52.949,30.164 52.728,30.288 52.502,30.379 C 52.25,30.478 51.964,30.357 51.863,30.105 C 51.762,29.853 51.884,29.566 52.137,29.466 C 52.267,29.414 52.398,29.34 52.535,29.246 C 51.857,29.025 51.06,28.534 50.228,28.019 C 49.536,27.592 48.487,26.948 48.127,26.987 C 46.833,27.171 34.592,33.261 32.724,34.611 C 33.551,35.577 33.706,36.799 33.153,38.064 C 32.16,40.323 29.221,42.192 26.6,42.228 C 24.512,42.266 22.859,41.592 21.535,40.229 C 21.51,40.261 21.488,40.294 21.454,40.32 C 19.718,41.621 17.138,42.869 14.642,44.076 C 12.549,45.088 10.384,46.136 8.754,47.196 C 8.747,47.201 8.737,47.201 8.729,47.207 C 8.697,47.224 8.666,47.234 8.632,47.245 C 8.605,47.253 8.577,47.264 8.549,47.268 C 8.516,47.272 8.485,47.268 8.451,47.266 C 8.422,47.264 8.392,47.263 8.363,47.255 C 8.333,47.247 8.306,47.233 8.278,47.22 C 8.248,47.205 8.218,47.191 8.191,47.171 C 8.184,47.166 8.174,47.164 8.166,47.157 C 6.591,45.808 5.862,42.95 5.714,40.914 C 5.451,37.338 6.761,32.461 9.708,30.468 C 11.416,29.315 13.474,29.269 15.657,30.339 C 17.723,31.35 18.771,33.501 19.785,35.581 C 20.434,36.911 21.102,38.286 22.025,39.326 C 23.204,40.656 24.651,41.29 26.587,41.245 C 28.821,41.213 31.415,39.575 32.252,37.668 C 32.665,36.725 32.562,35.898 31.94,35.202 C 31.885,35.138 31.826,35.077 31.771,35.018 L 31.687,34.931 C 30.601,33.839 30.246,34.191 29.466,34.961 C 28.781,35.64 27.842,36.569 26.242,36.005 C 22.986,34.871 22.105,32.58 21.327,30.559 C 20.59,28.647 19.893,26.84 17.317,25.923 C 17.251,25.918 17.185,25.912 17.125,25.882 C 14.298,24.426 11.236,24.429 8.028,25.892 Z M 6.576,40.65 C 6.724,42.707 7.472,45.141 8.726,46.217 C 12.124,44.005 17.709,41.971 20.668,39.754 L 21.137,39.495 C 18.864,36.931 18.289,32.606 15.281,31.136 C 9.152,28.133 6.212,35.714 6.576,40.65 Z M 41.41,30.619 C 42.709,31.558 44.598,32.514 45.695,32.525 C 45.968,32.527 46.185,32.749 46.183,33.021 C 46.181,33.291 45.961,33.509 45.691,33.509 L 45.688,33.509 C 44.119,33.494 41.899,32.186 40.833,31.415 C 40.613,31.257 40.564,30.948 40.723,30.729 C 40.82,30.596 40.97,30.525 41.123,30.525 C 41.223,30.525 41.323,30.555 41.41,30.619 Z M 39.622,32.89 C 40.839,33.661 43.169,34.24 44.628,34.336 C 44.9,34.354 45.105,34.588 45.088,34.859 C 45.07,35.13 44.829,35.336 44.565,35.316 C 42.95,35.212 40.462,34.587 39.095,33.72 C 38.865,33.575 38.797,33.273 38.943,33.042 C 39.036,32.895 39.196,32.814 39.359,32.814 C 39.449,32.814 39.54,32.838 39.622,32.89 Z M 48.727,38.524 C 48.727,39.442 48.097,40.189 47.311,40.189 C 46.53,40.189 45.902,39.442 45.902,38.524 C 45.902,37.599 46.53,36.852 47.311,36.852 C 48.097,36.852 48.727,37.599 48.727,38.524 Z M 68.534,39.261 C 68.19,39.538 67.799,39.759 67.366,39.923 C 67.372,39.948 67.384,39.972 67.385,39.998 C 67.39,40.139 67.381,40.285 67.372,40.429 C 67.712,40.483 68.112,40.655 68.566,40.858 C 68.868,40.993 69.374,41.219 69.528,41.219 L 69.53,41.219 C 69.798,41.214 70.027,41.427 70.034,41.698 C 70.04,41.97 69.826,42.195 69.554,42.202 C 69.177,42.204 68.711,42 68.165,41.756 C 67.874,41.625 67.407,41.42 67.218,41.397 C 67.157,41.649 67.085,41.905 66.998,42.161 C 67.214,42.238 67.455,42.355 67.721,42.489 C 67.99,42.623 68.394,42.825 68.542,42.84 C 68.813,42.867 69.01,43.109 68.982,43.379 C 68.956,43.649 68.716,43.851 68.444,43.819 C 68.116,43.786 67.71,43.583 67.281,43.368 C 67.083,43.269 66.807,43.133 66.655,43.081 C 66.418,43.653 66.153,44.221 65.898,44.762 C 65.772,45.03 65.653,45.286 65.538,45.54 C 67.576,44.702 71.929,42.734 73.432,41.963 C 72.379,41.505 69.665,40.029 68.556,39.241 C 68.548,39.248 68.541,39.254 68.534,39.261 Z M 61.104,41.704 C 61.104,42.634 60.462,43.389 59.675,43.389 C 58.889,43.389 58.246,42.634 58.246,41.704 C 58.246,40.779 58.889,40.025 59.675,40.025 C 60.462,40.025 61.104,40.779 61.104,41.704 Z" fill="#B36AE2" stroke-width="0.656" stroke-linejoin="miter" stroke="none" marker-start="none" marker-end="none" stroke-miterlimit="79.8403193612775"></path></g></g></g></svg>