<svg xmlns="http://www.w3.org/2000/svg" xmlns:xlink="http://www.w3.org/1999/xlink" version="1.1" x="0px" y="0px" viewBox="0 0 65 65" enable-background="new 0 0 65 65" xml:space="preserve"><path d="M33.627,28.764c0-0.829-0.671-1.5-1.5-1.5H12.059l14.425-11.119c0.002-0.001,0.003-0.002,0.005-0.004l0.016-0.012  c0.022-0.018,0.04-0.039,0.061-0.057c0.051-0.044,0.102-0.088,0.146-0.138c0.029-0.034,0.053-0.07,0.079-0.106  c0.032-0.042,0.064-0.084,0.092-0.13c0.023-0.04,0.04-0.082,0.06-0.124c0.022-0.046,0.045-0.092,0.063-0.141  c0.015-0.044,0.024-0.09,0.035-0.135c0.012-0.049,0.026-0.097,0.033-0.147c0.008-0.057,0.008-0.114,0.009-0.171  c0.001-0.037,0.008-0.072,0.006-0.11c0-0.004-0.001-0.008-0.002-0.012c-0.003-0.06-0.016-0.119-0.026-0.178  c-0.007-0.039-0.009-0.079-0.019-0.117c-0.004-0.017-0.013-0.033-0.018-0.05c-0.053-0.179-0.135-0.343-0.245-0.486c0,0,0,0,0-0.001  c-0.002-0.003-0.005-0.005-0.008-0.008c-0.058-0.074-0.122-0.142-0.191-0.203c-0.023-0.02-0.048-0.035-0.072-0.054  c-0.051-0.04-0.103-0.08-0.16-0.112c-0.04-0.023-0.082-0.04-0.123-0.06c-0.045-0.021-0.088-0.043-0.136-0.06  c-0.055-0.019-0.112-0.031-0.168-0.044c-0.038-0.008-0.074-0.02-0.113-0.025c-0.064-0.01-0.128-0.01-0.193-0.011  c-0.032-0.001-0.063-0.007-0.096-0.006L1.98,14.563c-0.828,0.04-1.466,0.742-1.427,1.57c0.039,0.803,0.702,1.429,1.498,1.429  c0.024,0,0.048,0,0.072-0.001l18.771-0.894L6.741,27.576c-0.023,0.018-0.041,0.04-0.062,0.059c-0.042,0.037-0.083,0.073-0.121,0.114  c-0.031,0.034-0.06,0.07-0.087,0.106c-0.031,0.041-0.061,0.081-0.087,0.125c-0.025,0.04-0.046,0.082-0.067,0.124  c-0.022,0.044-0.043,0.089-0.061,0.136c-0.017,0.045-0.03,0.09-0.042,0.137c-0.013,0.046-0.024,0.093-0.032,0.142  c-0.009,0.052-0.013,0.104-0.016,0.157c-0.001,0.03-0.009,0.059-0.009,0.089c0,0.016,0.004,0.03,0.004,0.045  c0.001,0.054,0.009,0.108,0.017,0.162c0.006,0.045,0.011,0.09,0.021,0.134c0.011,0.047,0.027,0.093,0.043,0.14  c0.016,0.047,0.031,0.095,0.052,0.14c0.018,0.04,0.041,0.078,0.063,0.116c0.028,0.049,0.056,0.097,0.088,0.143  c0.009,0.012,0.014,0.025,0.023,0.037c0.014,0.019,0.033,0.031,0.048,0.049c0.047,0.056,0.098,0.109,0.154,0.158  c0.03,0.026,0.06,0.052,0.092,0.076c0.055,0.042,0.114,0.077,0.175,0.111c0.033,0.018,0.064,0.038,0.099,0.054  c0.07,0.032,0.145,0.056,0.221,0.077c0.027,0.007,0.052,0.019,0.08,0.024c0.103,0.022,0.21,0.036,0.32,0.036h24.471  C32.956,30.264,33.627,29.593,33.627,28.764z"></path><path d="M40.53,41.959c-0.002-0.056-0.006-0.11-0.015-0.166c-0.008-0.047-0.019-0.093-0.03-0.138  c-0.013-0.048-0.025-0.095-0.043-0.142c-0.019-0.052-0.041-0.1-0.064-0.147c-0.014-0.027-0.021-0.055-0.036-0.081  c-0.008-0.014-0.019-0.024-0.027-0.038c-0.028-0.046-0.061-0.089-0.093-0.132c-0.028-0.036-0.056-0.073-0.087-0.106  c-0.033-0.036-0.07-0.067-0.107-0.101c-0.035-0.031-0.07-0.064-0.109-0.092c-0.04-0.03-0.084-0.055-0.128-0.08  c-0.039-0.022-0.076-0.046-0.116-0.064c-0.049-0.022-0.099-0.039-0.149-0.057c-0.042-0.015-0.082-0.029-0.124-0.04  c-0.049-0.012-0.099-0.019-0.148-0.026c-0.05-0.007-0.099-0.014-0.148-0.016c-0.017-0.001-0.032-0.006-0.049-0.006L21.681,40.34  c-0.005,0-0.011,0-0.017,0c-0.821,0-1.491,0.661-1.5,1.483c-0.009,0.829,0.655,1.508,1.484,1.517l11.825,0.128l-16.845,9.584  c-0.032,0.018-0.058,0.042-0.087,0.062c-0.037,0.025-0.074,0.05-0.108,0.077c-0.043,0.035-0.083,0.073-0.122,0.111  c-0.03,0.03-0.059,0.06-0.086,0.092c-0.035,0.042-0.066,0.086-0.097,0.131c-0.024,0.036-0.047,0.072-0.069,0.11  c-0.025,0.047-0.047,0.094-0.067,0.143c-0.017,0.041-0.034,0.082-0.047,0.126c-0.017,0.053-0.029,0.105-0.04,0.16  c-0.006,0.028-0.017,0.055-0.021,0.084c-0.002,0.015,0,0.029-0.002,0.044c-0.006,0.055-0.006,0.109-0.006,0.165  c0,0.045-0.001,0.09,0.003,0.134c0.004,0.049,0.014,0.098,0.024,0.146c0.009,0.049,0.018,0.097,0.032,0.145  c0.013,0.042,0.03,0.084,0.047,0.126c0.02,0.051,0.04,0.101,0.065,0.148c0.007,0.014,0.011,0.028,0.019,0.042  c0.01,0.018,0.025,0.03,0.037,0.048c0.05,0.081,0.108,0.156,0.173,0.227c0.021,0.022,0.04,0.046,0.062,0.067  c0.084,0.081,0.177,0.152,0.28,0.212c0.017,0.01,0.035,0.016,0.052,0.024c0.086,0.046,0.177,0.083,0.272,0.111  c0.036,0.011,0.072,0.019,0.109,0.026c0.038,0.009,0.073,0.022,0.111,0.027l18.679,2.615c0.07,0.01,0.141,0.015,0.21,0.015  c0.736,0,1.379-0.542,1.483-1.292c0.115-0.82-0.457-1.579-1.277-1.693L21.94,53.48l17.84-10.149c0.016-0.009,0.027-0.021,0.042-0.03  c0.045-0.027,0.086-0.059,0.128-0.09c0.038-0.029,0.076-0.059,0.11-0.091s0.064-0.066,0.095-0.102  c0.034-0.038,0.067-0.074,0.097-0.115c0.027-0.037,0.05-0.078,0.074-0.118c0.024-0.042,0.05-0.083,0.07-0.128  c0.02-0.043,0.035-0.089,0.051-0.134c0.017-0.047,0.033-0.092,0.045-0.139c0.011-0.044,0.017-0.09,0.023-0.135  c0.008-0.054,0.016-0.106,0.018-0.161c0-0.015,0.005-0.029,0.005-0.045C40.538,42.015,40.532,41.988,40.53,41.959z"></path><path d="M64.132,10.253c0.029-0.038,0.055-0.078,0.08-0.119c0.024-0.04,0.05-0.078,0.071-0.119c0.021-0.043,0.038-0.089,0.057-0.135  c0.017-0.043,0.034-0.086,0.048-0.131c0.012-0.043,0.02-0.088,0.027-0.133c0.01-0.052,0.021-0.103,0.024-0.155  c0.001-0.012,0.005-0.023,0.006-0.036c0.002-0.03-0.004-0.059-0.004-0.089c0-0.057,0-0.114-0.007-0.172  c-0.006-0.047-0.016-0.091-0.025-0.137c-0.01-0.049-0.021-0.099-0.036-0.147c-0.017-0.05-0.037-0.098-0.059-0.146  c-0.014-0.03-0.021-0.062-0.037-0.092c-0.006-0.012-0.016-0.021-0.021-0.033c-0.025-0.046-0.057-0.088-0.087-0.131  c-0.026-0.039-0.053-0.079-0.083-0.114s-0.066-0.067-0.1-0.1c-0.036-0.035-0.07-0.07-0.108-0.101s-0.08-0.055-0.121-0.082  c-0.04-0.025-0.078-0.052-0.119-0.074c-0.045-0.023-0.093-0.04-0.14-0.059c-0.043-0.017-0.085-0.036-0.13-0.048  c-0.045-0.014-0.093-0.021-0.14-0.03c-0.051-0.01-0.102-0.02-0.153-0.024c-0.014-0.001-0.025-0.005-0.039-0.006L40.809,6.532  c-0.849-0.044-1.536,0.583-1.585,1.41c-0.049,0.827,0.582,1.537,1.409,1.585l16.827,0.99L38.343,20.524  c-0.041,0.021-0.074,0.05-0.112,0.074c-0.042,0.027-0.086,0.052-0.126,0.083c-0.046,0.037-0.084,0.078-0.125,0.119  c-0.028,0.028-0.059,0.054-0.085,0.085c-0.039,0.046-0.071,0.098-0.104,0.148c-0.021,0.031-0.044,0.061-0.063,0.094  c-0.036,0.064-0.063,0.133-0.089,0.202c-0.008,0.022-0.021,0.042-0.028,0.065c-0.001,0.002-0.001,0.003-0.001,0.005  c-0.03,0.094-0.051,0.191-0.063,0.29c-0.004,0.035,0,0.069-0.001,0.104c-0.003,0.063-0.008,0.125-0.002,0.189  c0.005,0.054,0.019,0.106,0.029,0.16c0.008,0.042,0.012,0.086,0.023,0.128c0.027,0.095,0.064,0.186,0.109,0.272  c0.001,0.002,0.002,0.004,0.003,0.007c0.004,0.008,0.011,0.014,0.016,0.021c0.055,0.101,0.123,0.192,0.199,0.278  c0.023,0.026,0.047,0.051,0.072,0.075c0.071,0.07,0.15,0.133,0.236,0.188c0.019,0.012,0.034,0.026,0.053,0.038  c0.092,0.053,0.189,0.098,0.294,0.132l21.482,6.911c0.152,0.049,0.307,0.073,0.459,0.073c0.634,0,1.224-0.405,1.428-1.041  c0.254-0.789-0.18-1.634-0.969-1.887l-18.074-5.814l20.738-10.855c0.019-0.01,0.033-0.023,0.051-0.034  c0.047-0.027,0.092-0.057,0.135-0.088c0.037-0.027,0.073-0.054,0.106-0.083c0.036-0.032,0.069-0.067,0.103-0.103  C64.071,10.324,64.104,10.291,64.132,10.253z"></path></svg>